SplineFontDB: 3.2
FontName: Arcade
FullName: Arcade
FamilyName: Arcade
Weight: Book
Copyright: (c) Jakob Fischer at www.pizzadude.dk - DO NOT DISTRIBUTE WITHOUT AUTHOR'S PERMISSION!
Version: 2
ItalicAngle: 0
UnderlinePosition: -143
UnderlineWidth: 20
Ascent: 800
Descent: 200
InvalidEm: 0
sfntRevision: 0x00010000
LayerCount: 2
Layer: 0 1 "Back" 1
Layer: 1 1 "Fore" 0
XUID: [1021 79 1126599139 8573292]
StyleMap: 0x0040
FSType: 0
OS2Version: 1
OS2_WeightWidthSlopeOnly: 0
OS2_UseTypoMetrics: 0
CreationTime: 1044737117
ModificationTime: 1655569793
PfmFamily: 81
TTFWeight: 400
TTFWidth: 5
LineGap: 0
VLineGap: 0
Panose: 0 0 4 0 0 0 0 0 0 0
OS2TypoAscent: 670
OS2TypoAOffset: 0
OS2TypoDescent: 0
OS2TypoDOffset: 0
OS2TypoLinegap: 0
OS2WinAscent: 670
OS2WinAOffset: 0
OS2WinDescent: 0
OS2WinDOffset: 0
HheadAscent: 800
HheadAOffset: 0
HheadDescent: -200
HheadDOffset: 0
OS2SubXSize: 700
OS2SubYSize: 650
OS2SubXOff: 0
OS2SubYOff: 143
OS2SupXSize: 700
OS2SupYSize: 650
OS2SupXOff: 0
OS2SupYOff: 453
OS2StrikeYSize: 50
OS2StrikeYPos: 259
OS2Vendor: 'MACR'
OS2CodePages: 00000001.00000000
OS2UnicodeRanges: 00000003.00000000.00000000.00000000
DEI: 91125
TtTable: prep
NPUSHB
 29
 17
 17
 16
 16
 15
 15
 14
 14
 13
 13
 12
 12
 11
 11
 10
 10
 9
 9
 8
 8
 3
 3
 2
 2
 1
 1
 0
 0
 1
SCANTYPE
PUSHW_1
 511
SCANCTRL
RCVT
ROUND[Grey]
WCVTP
RCVT
ROUND[Grey]
WCVTP
RCVT
ROUND[Grey]
WCVTP
RCVT
ROUND[Grey]
WCVTP
RCVT
ROUND[Grey]
WCVTP
RCVT
ROUND[Grey]
WCVTP
RCVT
ROUND[Grey]
WCVTP
RCVT
ROUND[Grey]
WCVTP
RCVT
ROUND[Grey]
WCVTP
RCVT
ROUND[Grey]
WCVTP
RCVT
ROUND[Grey]
WCVTP
RCVT
ROUND[Grey]
WCVTP
RCVT
ROUND[Grey]
WCVTP
RCVT
ROUND[Grey]
WCVTP
PUSHB_4
 5
 4
 70
 0
CALL
PUSHB_4
 7
 6
 70
 0
CALL
PUSHB_2
 4
 4
RCVT
ROUND[Grey]
WCVTP
PUSHB_2
 6
 6
RCVT
ROUND[Grey]
WCVTP
EndTTInstrs
TtTable: fpgm
NPUSHB
 1
 0
FDEF
SROUND
RCVT
DUP
PUSHB_1
 3
CINDEX
RCVT
SWAP
SUB
ROUND[Grey]
RTG
SWAP
ROUND[Grey]
ADD
WCVTP
ENDF
EndTTInstrs
ShortTable: cvt  22
  84
  217
  538
  670
  56
  122
  56
  123
  188
  255
  453
  387

StartChar: .notdef
Encoding: 65536 -1 0
Width: 500
Flags: W
LayerCount: 2
Fore
SplineSet
63 0 m 1,0,-1
 63 800 l 1,1,-1
 438 800 l 1,2,-1
 438 0 l 1,3,-1
 63 0 l 1,0,-1
125 63 m 1,4,-1
 375 63 l 1,5,-1
 375 738 l 1,6,-1
 125 738 l 1,7,-1
 125 63 l 1,4,-1
EndSplineSet
Validated: 1
EndChar

StartChar: exclam
Encoding: 33 33 4
Width: 520
Flags: W
LayerCount: 2
Fore
SplineSet
265 739 m 1,0,-1
 321 739 l 1,1,-1
 321 683 l 1,2,-1
 265 683 l 1,3,-1
 265 739 l 1,0,-1
198 739 m 1,4,-1
 254 739 l 1,5,-1
 254 683 l 1,6,-1
 198 683 l 1,7,-1
 198 739 l 1,4,-1
265 673 m 1,8,-1
 321 673 l 1,9,-1
 321 617 l 1,10,-1
 265 617 l 1,11,-1
 265 673 l 1,8,-1
265 607 m 1,12,-1
 321 607 l 1,13,-1
 321 551 l 1,14,-1
 265 551 l 1,15,-1
 265 607 l 1,12,-1
331 673 m 1,16,-1
 387 673 l 1,17,-1
 387 617 l 1,18,-1
 331 617 l 1,19,-1
 331 673 l 1,16,-1
331 607 m 1,20,-1
 387 607 l 1,21,-1
 387 551 l 1,22,-1
 331 551 l 1,23,-1
 331 607 l 1,20,-1
331 541 m 1,24,-1
 387 541 l 1,25,-1
 387 485 l 1,26,-1
 331 485 l 1,27,-1
 331 541 l 1,24,-1
132 673 m 1,28,-1
 188 673 l 1,29,-1
 188 617 l 1,30,-1
 132 617 l 1,31,-1
 132 673 l 1,28,-1
132 607 m 1,32,-1
 188 607 l 1,33,-1
 188 551 l 1,34,-1
 132 551 l 1,35,-1
 132 607 l 1,32,-1
132 541 m 1,36,-1
 188 541 l 1,37,-1
 188 485 l 1,38,-1
 132 485 l 1,39,-1
 132 541 l 1,36,-1
198 673 m 1,40,-1
 254 673 l 1,41,-1
 254 617 l 1,42,-1
 198 617 l 1,43,-1
 198 673 l 1,40,-1
198 607 m 1,44,-1
 254 607 l 1,45,-1
 254 551 l 1,46,-1
 198 551 l 1,47,-1
 198 607 l 1,44,-1
198 541 m 1,48,-1
 254 541 l 1,49,-1
 254 485 l 1,50,-1
 198 485 l 1,51,-1
 198 541 l 1,48,-1
265 541 m 1,52,-1
 321 541 l 1,53,-1
 321 485 l 1,54,-1
 265 485 l 1,55,-1
 265 541 l 1,52,-1
198 475 m 1,56,-1
 254 475 l 1,57,-1
 254 419 l 1,58,-1
 198 419 l 1,59,-1
 198 475 l 1,56,-1
265 475 m 1,60,-1
 321 475 l 1,61,-1
 321 419 l 1,62,-1
 265 419 l 1,63,-1
 265 475 l 1,60,-1
198 409 m 1,64,-1
 254 409 l 1,65,-1
 254 353 l 1,66,-1
 198 353 l 1,67,-1
 198 409 l 1,64,-1
265 409 m 1,68,-1
 321 409 l 1,69,-1
 321 353 l 1,70,-1
 265 353 l 1,71,-1
 265 409 l 1,68,-1
198 211 m 1,72,-1
 254 211 l 1,73,-1
 254 155 l 1,74,-1
 198 155 l 1,75,-1
 198 211 l 1,72,-1
264 211 m 1,76,-1
 320 211 l 1,77,-1
 320 155 l 1,78,-1
 264 155 l 1,79,-1
 264 211 l 1,76,-1
198 277 m 1,80,-1
 254 277 l 1,81,-1
 254 221 l 1,82,-1
 198 221 l 1,83,-1
 198 277 l 1,80,-1
264 277 m 1,84,-1
 320 277 l 1,85,-1
 320 221 l 1,86,-1
 264 221 l 1,87,-1
 264 277 l 1,84,-1
EndSplineSet
EndChar

StartChar: quotedbl
Encoding: 34 34 5
Width: 520
Flags: W
LayerCount: 2
Fore
SplineSet
0 670 m 1,0,-1
 56 670 l 1,1,-1
 56 614 l 1,2,-1
 0 614 l 1,3,-1
 0 670 l 1,0,-1
66 670 m 1,4,-1
 122 670 l 1,5,-1
 122 614 l 1,6,-1
 66 614 l 1,7,-1
 66 670 l 1,4,-1
198 670 m 1,8,-1
 254 670 l 1,9,-1
 254 614 l 1,10,-1
 198 614 l 1,11,-1
 198 670 l 1,8,-1
265 670 m 1,12,-1
 321 670 l 1,13,-1
 321 614 l 1,14,-1
 265 614 l 1,15,-1
 265 670 l 1,12,-1
0 604 m 1,16,-1
 56 604 l 1,17,-1
 56 548 l 1,18,-1
 0 548 l 1,19,-1
 0 604 l 1,16,-1
66 604 m 1,20,-1
 122 604 l 1,21,-1
 122 548 l 1,22,-1
 66 548 l 1,23,-1
 66 604 l 1,20,-1
198 604 m 1,24,-1
 254 604 l 1,25,-1
 254 548 l 1,26,-1
 198 548 l 1,27,-1
 198 604 l 1,24,-1
265 604 m 1,28,-1
 321 604 l 1,29,-1
 321 548 l 1,30,-1
 265 548 l 1,31,-1
 265 604 l 1,28,-1
66 538 m 1,32,-1
 122 538 l 1,33,-1
 122 482 l 1,34,-1
 66 482 l 1,35,-1
 66 538 l 1,32,-1
265 538 m 1,36,-1
 321 538 l 1,37,-1
 321 482 l 1,38,-1
 265 482 l 1,39,-1
 265 538 l 1,36,-1
EndSplineSet
Validated: 1
EndChar

StartChar: numbersign
Encoding: 35 35 6
Width: 520
Flags: W
LayerCount: 2
Fore
SplineSet
0 405 m 1,0,-1
 56 405 l 1,1,-1
 56 349 l 1,2,-1
 0 349 l 1,3,-1
 0 405 l 1,0,-1
66 405 m 1,4,-1
 122 405 l 1,5,-1
 122 349 l 1,6,-1
 66 349 l 1,7,-1
 66 405 l 1,4,-1
132 405 m 1,8,-1
 188 405 l 1,9,-1
 188 349 l 1,10,-1
 132 349 l 1,11,-1
 132 405 l 1,8,-1
198 405 m 1,12,-1
 254 405 l 1,13,-1
 254 349 l 1,14,-1
 198 349 l 1,15,-1
 198 405 l 1,12,-1
265 405 m 1,16,-1
 321 405 l 1,17,-1
 321 349 l 1,18,-1
 265 349 l 1,19,-1
 265 405 l 1,16,-1
331 405 m 1,20,-1
 387 405 l 1,21,-1
 387 349 l 1,22,-1
 331 349 l 1,23,-1
 331 405 l 1,20,-1
397 405 m 1,24,-1
 453 405 l 1,25,-1
 453 349 l 1,26,-1
 397 349 l 1,27,-1
 397 405 l 1,24,-1
66 339 m 1,28,-1
 122 339 l 1,29,-1
 122 283 l 1,30,-1
 66 283 l 1,31,-1
 66 339 l 1,28,-1
132 339 m 1,32,-1
 188 339 l 1,33,-1
 188 283 l 1,34,-1
 132 283 l 1,35,-1
 132 339 l 1,32,-1
265 339 m 1,36,-1
 321 339 l 1,37,-1
 321 283 l 1,38,-1
 265 283 l 1,39,-1
 265 339 l 1,36,-1
331 339 m 1,40,-1
 387 339 l 1,41,-1
 387 283 l 1,42,-1
 331 283 l 1,43,-1
 331 339 l 1,40,-1
66 273 m 1,44,-1
 122 273 l 1,45,-1
 122 217 l 1,46,-1
 66 217 l 1,47,-1
 66 273 l 1,44,-1
132 273 m 1,48,-1
 188 273 l 1,49,-1
 188 217 l 1,50,-1
 132 217 l 1,51,-1
 132 273 l 1,48,-1
265 273 m 1,52,-1
 321 273 l 1,53,-1
 321 217 l 1,54,-1
 265 217 l 1,55,-1
 265 273 l 1,52,-1
331 273 m 1,56,-1
 387 273 l 1,57,-1
 387 217 l 1,58,-1
 331 217 l 1,59,-1
 331 273 l 1,56,-1
66 670 m 1,60,-1
 122 670 l 1,61,-1
 122 614 l 1,62,-1
 66 614 l 1,63,-1
 66 670 l 1,60,-1
132 670 m 1,64,-1
 188 670 l 1,65,-1
 188 614 l 1,66,-1
 132 614 l 1,67,-1
 132 670 l 1,64,-1
265 670 m 1,68,-1
 321 670 l 1,69,-1
 321 614 l 1,70,-1
 265 614 l 1,71,-1
 265 670 l 1,68,-1
331 670 m 1,72,-1
 387 670 l 1,73,-1
 387 614 l 1,74,-1
 331 614 l 1,75,-1
 331 670 l 1,72,-1
66 604 m 1,76,-1
 122 604 l 1,77,-1
 122 548 l 1,78,-1
 66 548 l 1,79,-1
 66 604 l 1,76,-1
132 604 m 1,80,-1
 188 604 l 1,81,-1
 188 548 l 1,82,-1
 132 548 l 1,83,-1
 132 604 l 1,80,-1
265 604 m 1,84,-1
 321 604 l 1,85,-1
 321 548 l 1,86,-1
 265 548 l 1,87,-1
 265 604 l 1,84,-1
331 604 m 1,88,-1
 387 604 l 1,89,-1
 387 548 l 1,90,-1
 331 548 l 1,91,-1
 331 604 l 1,88,-1
0 538 m 1,92,-1
 56 538 l 1,93,-1
 56 482 l 1,94,-1
 0 482 l 1,95,-1
 0 538 l 1,92,-1
66 538 m 1,96,-1
 122 538 l 1,97,-1
 122 482 l 1,98,-1
 66 482 l 1,99,-1
 66 538 l 1,96,-1
132 538 m 1,100,-1
 188 538 l 1,101,-1
 188 482 l 1,102,-1
 132 482 l 1,103,-1
 132 538 l 1,100,-1
198 538 m 1,104,-1
 254 538 l 1,105,-1
 254 482 l 1,106,-1
 198 482 l 1,107,-1
 198 538 l 1,104,-1
265 538 m 1,108,-1
 321 538 l 1,109,-1
 321 482 l 1,110,-1
 265 482 l 1,111,-1
 265 538 l 1,108,-1
331 538 m 1,112,-1
 387 538 l 1,113,-1
 387 482 l 1,114,-1
 331 482 l 1,115,-1
 331 538 l 1,112,-1
397 538 m 1,116,-1
 453 538 l 1,117,-1
 453 482 l 1,118,-1
 397 482 l 1,119,-1
 397 538 l 1,116,-1
66 472 m 1,120,-1
 122 472 l 1,121,-1
 122 416 l 1,122,-1
 66 416 l 1,123,-1
 66 472 l 1,120,-1
132 472 m 1,124,-1
 188 472 l 1,125,-1
 188 416 l 1,126,-1
 132 416 l 1,127,-1
 132 472 l 1,124,-1
265 472 m 1,128,-1
 321 472 l 1,129,-1
 321 416 l 1,130,-1
 265 416 l 1,131,-1
 265 472 l 1,128,-1
331 472 m 1,132,-1
 387 472 l 1,133,-1
 387 416 l 1,134,-1
 331 416 l 1,135,-1
 331 472 l 1,132,-1
EndSplineSet
Validated: 1
EndChar

StartChar: dollar
Encoding: 36 36 7
Width: 520
Flags: W
LayerCount: 2
Fore
SplineSet
198 405 m 1,0,-1
 254 405 l 1,1,-1
 254 349 l 1,2,-1
 198 349 l 1,3,-1
 198 405 l 1,0,-1
0 339 m 1,4,-1
 56 339 l 1,5,-1
 56 283 l 1,6,-1
 0 283 l 1,7,-1
 0 339 l 1,4,-1
66 339 m 1,8,-1
 122 339 l 1,9,-1
 122 283 l 1,10,-1
 66 283 l 1,11,-1
 66 339 l 1,8,-1
132 339 m 1,12,-1
 188 339 l 1,13,-1
 188 283 l 1,14,-1
 132 283 l 1,15,-1
 132 339 l 1,12,-1
132 273 m 1,16,-1
 188 273 l 1,17,-1
 188 217 l 1,18,-1
 132 217 l 1,19,-1
 132 273 l 1,16,-1
132 670 m 1,20,-1
 188 670 l 1,21,-1
 188 614 l 1,22,-1
 132 614 l 1,23,-1
 132 670 l 1,20,-1
66 604 m 1,24,-1
 122 604 l 1,25,-1
 122 548 l 1,26,-1
 66 548 l 1,27,-1
 66 604 l 1,24,-1
132 604 m 1,28,-1
 188 604 l 1,29,-1
 188 548 l 1,30,-1
 132 548 l 1,31,-1
 132 604 l 1,28,-1
198 604 m 1,32,-1
 254 604 l 1,33,-1
 254 548 l 1,34,-1
 198 548 l 1,35,-1
 198 604 l 1,32,-1
0 538 m 1,36,-1
 56 538 l 1,37,-1
 56 482 l 1,38,-1
 0 482 l 1,39,-1
 0 538 l 1,36,-1
0 472 m 1,40,-1
 56 472 l 1,41,-1
 56 416 l 1,42,-1
 0 416 l 1,43,-1
 0 472 l 1,40,-1
66 472 m 1,44,-1
 122 472 l 1,45,-1
 122 416 l 1,46,-1
 66 416 l 1,47,-1
 66 472 l 1,44,-1
132 472 m 1,48,-1
 188 472 l 1,49,-1
 188 416 l 1,50,-1
 132 416 l 1,51,-1
 132 472 l 1,48,-1
EndSplineSet
Validated: 1
EndChar

StartChar: percent
Encoding: 37 37 8
Width: 520
Flags: W
LayerCount: 2
Fore
SplineSet
66 405 m 1,0,-1
 122 405 l 1,1,-1
 122 349 l 1,2,-1
 66 349 l 1,3,-1
 66 405 l 1,0,-1
132 405 m 1,4,-1
 188 405 l 1,5,-1
 188 349 l 1,6,-1
 132 349 l 1,7,-1
 132 405 l 1,4,-1
265 405 m 1,8,-1
 321 405 l 1,9,-1
 321 349 l 1,10,-1
 265 349 l 1,11,-1
 265 405 l 1,8,-1
331 405 m 1,12,-1
 387 405 l 1,13,-1
 387 349 l 1,14,-1
 331 349 l 1,15,-1
 331 405 l 1,12,-1
265 339 m 1,16,-1
 321 339 l 1,17,-1
 321 283 l 1,18,-1
 265 283 l 1,19,-1
 265 339 l 1,16,-1
331 339 m 1,20,-1
 387 339 l 1,21,-1
 387 283 l 1,22,-1
 331 283 l 1,23,-1
 331 339 l 1,20,-1
0 604 m 1,24,-1
 56 604 l 1,25,-1
 56 548 l 1,26,-1
 0 548 l 1,27,-1
 0 604 l 1,24,-1
66 604 m 1,28,-1
 122 604 l 1,29,-1
 122 548 l 1,30,-1
 66 548 l 1,31,-1
 66 604 l 1,28,-1
265 604 m 1,32,-1
 321 604 l 1,33,-1
 321 548 l 1,34,-1
 265 548 l 1,35,-1
 265 604 l 1,32,-1
331 604 m 1,36,-1
 387 604 l 1,37,-1
 387 548 l 1,38,-1
 331 548 l 1,39,-1
 331 604 l 1,36,-1
0 538 m 1,40,-1
 56 538 l 1,41,-1
 56 482 l 1,42,-1
 0 482 l 1,43,-1
 0 538 l 1,40,-1
66 538 m 1,44,-1
 122 538 l 1,45,-1
 122 482 l 1,46,-1
 66 482 l 1,47,-1
 66 538 l 1,44,-1
198 538 m 1,48,-1
 254 538 l 1,49,-1
 254 482 l 1,50,-1
 198 482 l 1,51,-1
 198 538 l 1,48,-1
265 538 m 1,52,-1
 321 538 l 1,53,-1
 321 482 l 1,54,-1
 265 482 l 1,55,-1
 265 538 l 1,52,-1
132 472 m 1,56,-1
 188 472 l 1,57,-1
 188 416 l 1,58,-1
 132 416 l 1,59,-1
 132 472 l 1,56,-1
198 472 m 1,60,-1
 254 472 l 1,61,-1
 254 416 l 1,62,-1
 198 416 l 1,63,-1
 198 472 l 1,60,-1
0 339 m 1,64,-1
 56 339 l 1,65,-1
 56 283 l 1,66,-1
 0 283 l 1,67,-1
 0 339 l 1,64,-1
66 339 m 1,68,-1
 122 339 l 1,69,-1
 122 283 l 1,70,-1
 66 283 l 1,71,-1
 66 339 l 1,68,-1
EndSplineSet
Validated: 1
EndChar

StartChar: ampersand
Encoding: 38 38 9
Width: 420
Flags: W
LayerCount: 2
Fore
SplineSet
0 405 m 1,0,-1
 56 405 l 1,1,-1
 56 349 l 1,2,-1
 0 349 l 1,3,-1
 0 405 l 1,0,-1
132 405 m 1,4,-1
 188 405 l 1,5,-1
 188 349 l 1,6,-1
 132 349 l 1,7,-1
 132 405 l 1,4,-1
265 405 m 1,8,-1
 321 405 l 1,9,-1
 321 349 l 1,10,-1
 265 349 l 1,11,-1
 265 405 l 1,8,-1
0 339 m 1,12,-1
 56 339 l 1,13,-1
 56 283 l 1,14,-1
 0 283 l 1,15,-1
 0 339 l 1,12,-1
198 339 m 1,16,-1
 254 339 l 1,17,-1
 254 283 l 1,18,-1
 198 283 l 1,19,-1
 198 339 l 1,16,-1
66 273 m 1,20,-1
 122 273 l 1,21,-1
 122 217 l 1,22,-1
 66 217 l 1,23,-1
 66 273 l 1,20,-1
132 273 m 1,24,-1
 188 273 l 1,25,-1
 188 217 l 1,26,-1
 132 217 l 1,27,-1
 132 273 l 1,24,-1
265 273 m 1,28,-1
 321 273 l 1,29,-1
 321 217 l 1,30,-1
 265 217 l 1,31,-1
 265 273 l 1,28,-1
66 670 m 1,32,-1
 122 670 l 1,33,-1
 122 614 l 1,34,-1
 66 614 l 1,35,-1
 66 670 l 1,32,-1
132 670 m 1,36,-1
 188 670 l 1,37,-1
 188 614 l 1,38,-1
 132 614 l 1,39,-1
 132 670 l 1,36,-1
0 604 m 1,40,-1
 56 604 l 1,41,-1
 56 548 l 1,42,-1
 0 548 l 1,43,-1
 0 604 l 1,40,-1
198 604 m 1,44,-1
 254 604 l 1,45,-1
 254 548 l 1,46,-1
 198 548 l 1,47,-1
 198 604 l 1,44,-1
0 538 m 1,48,-1
 56 538 l 1,49,-1
 56 482 l 1,50,-1
 0 482 l 1,51,-1
 0 538 l 1,48,-1
132 538 m 1,52,-1
 188 538 l 1,53,-1
 188 482 l 1,54,-1
 132 482 l 1,55,-1
 132 538 l 1,52,-1
66 472 m 1,56,-1
 122 472 l 1,57,-1
 122 416 l 1,58,-1
 66 416 l 1,59,-1
 66 472 l 1,56,-1
EndSplineSet
Validated: 1
EndChar

StartChar: quotesingle
Encoding: 39 39 10
Width: 347
Flags: W
LayerCount: 2
Fore
SplineSet
0 670 m 1,0,-1
 56 670 l 1,1,-1
 56 614 l 1,2,-1
 0 614 l 1,3,-1
 0 670 l 1,0,-1
66 670 m 1,4,-1
 122 670 l 1,5,-1
 122 614 l 1,6,-1
 66 614 l 1,7,-1
 66 670 l 1,4,-1
0 604 m 1,8,-1
 56 604 l 1,9,-1
 56 548 l 1,10,-1
 0 548 l 1,11,-1
 0 604 l 1,8,-1
66 604 m 1,12,-1
 122 604 l 1,13,-1
 122 548 l 1,14,-1
 66 548 l 1,15,-1
 66 604 l 1,12,-1
66 538 m 1,16,-1
 122 538 l 1,17,-1
 122 482 l 1,18,-1
 66 482 l 1,19,-1
 66 538 l 1,16,-1
EndSplineSet
Validated: 1
EndChar

StartChar: parenleft
Encoding: 40 40 11
Width: 520
Flags: W
LayerCount: 2
Fore
SplineSet
0 405 m 1,0,-1
 56 405 l 1,1,-1
 56 349 l 1,2,-1
 0 349 l 1,3,-1
 0 405 l 1,0,-1
66 405 m 1,4,-1
 122 405 l 1,5,-1
 122 349 l 1,6,-1
 66 349 l 1,7,-1
 66 405 l 1,4,-1
66 339 m 1,8,-1
 122 339 l 1,9,-1
 122 283 l 1,10,-1
 66 283 l 1,11,-1
 66 339 l 1,8,-1
132 339 m 1,12,-1
 188 339 l 1,13,-1
 188 283 l 1,14,-1
 132 283 l 1,15,-1
 132 339 l 1,12,-1
132 273 m 1,16,-1
 188 273 l 1,17,-1
 188 217 l 1,18,-1
 132 217 l 1,19,-1
 132 273 l 1,16,-1
198 273 m 1,20,-1
 254 273 l 1,21,-1
 254 217 l 1,22,-1
 198 217 l 1,23,-1
 198 273 l 1,20,-1
132 670 m 1,24,-1
 188 670 l 1,25,-1
 188 614 l 1,26,-1
 132 614 l 1,27,-1
 132 670 l 1,24,-1
198 670 m 1,28,-1
 254 670 l 1,29,-1
 254 614 l 1,30,-1
 198 614 l 1,31,-1
 198 670 l 1,28,-1
66 604 m 1,32,-1
 122 604 l 1,33,-1
 122 548 l 1,34,-1
 66 548 l 1,35,-1
 66 604 l 1,32,-1
132 604 m 1,36,-1
 188 604 l 1,37,-1
 188 548 l 1,38,-1
 132 548 l 1,39,-1
 132 604 l 1,36,-1
0 538 m 1,40,-1
 56 538 l 1,41,-1
 56 482 l 1,42,-1
 0 482 l 1,43,-1
 0 538 l 1,40,-1
66 538 m 1,44,-1
 122 538 l 1,45,-1
 122 482 l 1,46,-1
 66 482 l 1,47,-1
 66 538 l 1,44,-1
0 472 m 1,48,-1
 56 472 l 1,49,-1
 56 416 l 1,50,-1
 0 416 l 1,51,-1
 0 472 l 1,48,-1
66 472 m 1,52,-1
 122 472 l 1,53,-1
 122 416 l 1,54,-1
 66 416 l 1,55,-1
 66 472 l 1,52,-1
EndSplineSet
Validated: 1
EndChar

StartChar: parenright
Encoding: 41 41 12
Width: 520
Flags: W
LayerCount: 2
Fore
SplineSet
132 405 m 1,0,-1
 188 405 l 1,1,-1
 188 349 l 1,2,-1
 132 349 l 1,3,-1
 132 405 l 1,0,-1
198 405 m 1,4,-1
 254 405 l 1,5,-1
 254 349 l 1,6,-1
 198 349 l 1,7,-1
 198 405 l 1,4,-1
66 339 m 1,8,-1
 122 339 l 1,9,-1
 122 283 l 1,10,-1
 66 283 l 1,11,-1
 66 339 l 1,8,-1
132 339 m 1,12,-1
 188 339 l 1,13,-1
 188 283 l 1,14,-1
 132 283 l 1,15,-1
 132 339 l 1,12,-1
0 273 m 1,16,-1
 56 273 l 1,17,-1
 56 217 l 1,18,-1
 0 217 l 1,19,-1
 0 273 l 1,16,-1
66 273 m 1,20,-1
 122 273 l 1,21,-1
 122 217 l 1,22,-1
 66 217 l 1,23,-1
 66 273 l 1,20,-1
0 670 m 1,24,-1
 56 670 l 1,25,-1
 56 614 l 1,26,-1
 0 614 l 1,27,-1
 0 670 l 1,24,-1
66 670 m 1,28,-1
 122 670 l 1,29,-1
 122 614 l 1,30,-1
 66 614 l 1,31,-1
 66 670 l 1,28,-1
66 604 m 1,32,-1
 122 604 l 1,33,-1
 122 548 l 1,34,-1
 66 548 l 1,35,-1
 66 604 l 1,32,-1
132 604 m 1,36,-1
 188 604 l 1,37,-1
 188 548 l 1,38,-1
 132 548 l 1,39,-1
 132 604 l 1,36,-1
132 538 m 1,40,-1
 188 538 l 1,41,-1
 188 482 l 1,42,-1
 132 482 l 1,43,-1
 132 538 l 1,40,-1
198 538 m 1,44,-1
 254 538 l 1,45,-1
 254 482 l 1,46,-1
 198 482 l 1,47,-1
 198 538 l 1,44,-1
132 472 m 1,48,-1
 188 472 l 1,49,-1
 188 416 l 1,50,-1
 132 416 l 1,51,-1
 132 472 l 1,48,-1
198 472 m 1,52,-1
 254 472 l 1,53,-1
 254 416 l 1,54,-1
 198 416 l 1,55,-1
 198 472 l 1,52,-1
EndSplineSet
Validated: 1
EndChar

StartChar: asterisk
Encoding: 42 42 13
Width: 520
Flags: W
LayerCount: 2
Fore
SplineSet
66 405 m 1,0,-1
 122 405 l 1,1,-1
 122 349 l 1,2,-1
 66 349 l 1,3,-1
 66 405 l 1,0,-1
198 405 m 1,4,-1
 254 405 l 1,5,-1
 254 349 l 1,6,-1
 198 349 l 1,7,-1
 198 405 l 1,4,-1
66 538 m 1,8,-1
 122 538 l 1,9,-1
 122 482 l 1,10,-1
 66 482 l 1,11,-1
 66 538 l 1,8,-1
198 538 m 1,12,-1
 254 538 l 1,13,-1
 254 482 l 1,14,-1
 198 482 l 1,15,-1
 198 538 l 1,12,-1
132 472 m 1,16,-1
 188 472 l 1,17,-1
 188 416 l 1,18,-1
 132 416 l 1,19,-1
 132 472 l 1,16,-1
EndSplineSet
Validated: 1
EndChar

StartChar: plus
Encoding: 43 43 14
Width: 452
Flags: W
LayerCount: 2
Fore
SplineSet
132 405 m 1,0,-1
 188 405 l 1,1,-1
 188 349 l 1,2,-1
 132 349 l 1,3,-1
 132 405 l 1,0,-1
198 405 m 1,4,-1
 254 405 l 1,5,-1
 254 349 l 1,6,-1
 198 349 l 1,7,-1
 198 405 l 1,4,-1
132 339 m 1,8,-1
 188 339 l 1,9,-1
 188 283 l 1,10,-1
 132 283 l 1,11,-1
 132 339 l 1,8,-1
198 339 m 1,12,-1
 254 339 l 1,13,-1
 254 283 l 1,14,-1
 198 283 l 1,15,-1
 198 339 l 1,12,-1
132 604 m 1,16,-1
 188 604 l 1,17,-1
 188 548 l 1,18,-1
 132 548 l 1,19,-1
 132 604 l 1,16,-1
198 604 m 1,20,-1
 254 604 l 1,21,-1
 254 548 l 1,22,-1
 198 548 l 1,23,-1
 198 604 l 1,20,-1
132 538 m 1,24,-1
 188 538 l 1,25,-1
 188 482 l 1,26,-1
 132 482 l 1,27,-1
 132 538 l 1,24,-1
198 538 m 1,28,-1
 254 538 l 1,29,-1
 254 482 l 1,30,-1
 198 482 l 1,31,-1
 198 538 l 1,28,-1
0 472 m 1,32,-1
 56 472 l 1,33,-1
 56 416 l 1,34,-1
 0 416 l 1,35,-1
 0 472 l 1,32,-1
66 472 m 1,36,-1
 122 472 l 1,37,-1
 122 416 l 1,38,-1
 66 416 l 1,39,-1
 66 472 l 1,36,-1
132 472 m 1,40,-1
 188 472 l 1,41,-1
 188 416 l 1,42,-1
 132 416 l 1,43,-1
 132 472 l 1,40,-1
198 472 m 1,44,-1
 254 472 l 1,45,-1
 254 416 l 1,46,-1
 198 416 l 1,47,-1
 198 472 l 1,44,-1
265 472 m 1,48,-1
 321 472 l 1,49,-1
 321 416 l 1,50,-1
 265 416 l 1,51,-1
 265 472 l 1,48,-1
331 472 m 1,52,-1
 387 472 l 1,53,-1
 387 416 l 1,54,-1
 331 416 l 1,55,-1
 331 472 l 1,52,-1
EndSplineSet
Validated: 1
EndChar

StartChar: comma
Encoding: 44 44 15
Width: 322
Flags: W
LayerCount: 2
Fore
SplineSet
132 273 m 1,0,-1
 188 273 l 1,1,-1
 188 217 l 1,2,-1
 132 217 l 1,3,-1
 132 273 l 1,0,-1
198 273 m 1,4,-1
 254 273 l 1,5,-1
 254 217 l 1,6,-1
 198 217 l 1,7,-1
 198 273 l 1,4,-1
132 207 m 1,8,-1
 188 207 l 1,9,-1
 188 151 l 1,10,-1
 132 151 l 1,11,-1
 132 207 l 1,8,-1
198 207 m 1,12,-1
 254 207 l 1,13,-1
 254 151 l 1,14,-1
 198 151 l 1,15,-1
 198 207 l 1,12,-1
66 140 m 1,16,-1
 122 140 l 1,17,-1
 122 84 l 1,18,-1
 66 84 l 1,19,-1
 66 140 l 1,16,-1
132 140 m 1,20,-1
 188 140 l 1,21,-1
 188 84 l 1,22,-1
 132 84 l 1,23,-1
 132 140 l 1,20,-1
EndSplineSet
Validated: 1
EndChar

StartChar: hyphen
Encoding: 45 45 16
AltUni2: 002010.ffffffff.0
Width: 397
Flags: W
LayerCount: 2
Fore
SplineSet
0 472 m 1,0,-1
 56 472 l 1,1,-1
 56 416 l 1,2,-1
 0 416 l 1,3,-1
 0 472 l 1,0,-1
66 472 m 1,4,-1
 122 472 l 1,5,-1
 122 416 l 1,6,-1
 66 416 l 1,7,-1
 66 472 l 1,4,-1
132 472 m 1,8,-1
 188 472 l 1,9,-1
 188 416 l 1,10,-1
 132 416 l 1,11,-1
 132 472 l 1,8,-1
198 472 m 1,12,-1
 254 472 l 1,13,-1
 254 416 l 1,14,-1
 198 416 l 1,15,-1
 198 472 l 1,12,-1
265 472 m 1,16,-1
 321 472 l 1,17,-1
 321 416 l 1,18,-1
 265 416 l 1,19,-1
 265 472 l 1,16,-1
EndSplineSet
Validated: 1
EndChar

StartChar: period
Encoding: 46 46 17
Width: 322
Flags: W
LayerCount: 2
Fore
SplineSet
132 273 m 1,0,-1
 188 273 l 1,1,-1
 188 217 l 1,2,-1
 132 217 l 1,3,-1
 132 273 l 1,0,-1
198 273 m 1,4,-1
 254 273 l 1,5,-1
 254 217 l 1,6,-1
 198 217 l 1,7,-1
 198 273 l 1,4,-1
132 207 m 1,8,-1
 188 207 l 1,9,-1
 188 151 l 1,10,-1
 132 151 l 1,11,-1
 132 207 l 1,8,-1
198 207 m 1,12,-1
 254 207 l 1,13,-1
 254 151 l 1,14,-1
 198 151 l 1,15,-1
 198 207 l 1,12,-1
EndSplineSet
Validated: 1
EndChar

StartChar: slash
Encoding: 47 47 18
Width: 520
Flags: W
LayerCount: 2
Fore
SplineSet
397 670 m 1,0,-1
 453 670 l 1,1,-1
 453 614 l 1,2,-1
 397 614 l 1,3,-1
 397 670 l 1,0,-1
132 405 m 1,4,-1
 188 405 l 1,5,-1
 188 349 l 1,6,-1
 132 349 l 1,7,-1
 132 405 l 1,4,-1
198 405 m 1,8,-1
 254 405 l 1,9,-1
 254 349 l 1,10,-1
 198 349 l 1,11,-1
 198 405 l 1,8,-1
66 339 m 1,12,-1
 122 339 l 1,13,-1
 122 283 l 1,14,-1
 66 283 l 1,15,-1
 66 339 l 1,12,-1
132 339 m 1,16,-1
 188 339 l 1,17,-1
 188 283 l 1,18,-1
 132 283 l 1,19,-1
 132 339 l 1,16,-1
0 273 m 1,20,-1
 56 273 l 1,21,-1
 56 217 l 1,22,-1
 0 217 l 1,23,-1
 0 273 l 1,20,-1
66 273 m 1,24,-1
 122 273 l 1,25,-1
 122 217 l 1,26,-1
 66 217 l 1,27,-1
 66 273 l 1,24,-1
463 670 m 5,28,-1
 519 670 l 5,29,-1
 519 614 l 5,30,-1
 463 614 l 5,31,-1
 463 670 l 5,28,-1
397 604 m 1,32,-1
 453 604 l 1,33,-1
 453 548 l 1,34,-1
 397 548 l 1,35,-1
 397 604 l 1,32,-1
331 604 m 1,36,-1
 387 604 l 1,37,-1
 387 548 l 1,38,-1
 331 548 l 1,39,-1
 331 604 l 1,36,-1
331 538 m 1,40,-1
 387 538 l 1,41,-1
 387 482 l 1,42,-1
 331 482 l 1,43,-1
 331 538 l 1,40,-1
265 538 m 1,44,-1
 321 538 l 1,45,-1
 321 482 l 1,46,-1
 265 482 l 1,47,-1
 265 538 l 1,44,-1
264 472 m 1,48,-1
 320 472 l 1,49,-1
 320 416 l 1,50,-1
 264 416 l 1,51,-1
 264 472 l 1,48,-1
198 472 m 1,52,-1
 254 472 l 1,53,-1
 254 416 l 1,54,-1
 198 416 l 1,55,-1
 198 472 l 1,52,-1
EndSplineSet
EndChar

StartChar: zero
Encoding: 48 48 19
Width: 520
Flags: W
LayerCount: 2
Fore
SplineSet
132 339 m 5,0,-1
 188 339 l 5,1,-1
 188 283 l 5,2,-1
 132 283 l 5,3,-1
 132 339 l 5,0,-1
200 406 m 1,4,-1
 256 406 l 1,5,-1
 256 350 l 1,6,-1
 200 350 l 1,7,-1
 200 406 l 1,4,-1
200 472 m 1,8,-1
 256 472 l 1,9,-1
 256 416 l 1,10,-1
 200 416 l 1,11,-1
 200 472 l 1,8,-1
200 538 m 1,12,-1
 256 538 l 1,13,-1
 256 482 l 1,14,-1
 200 482 l 1,15,-1
 200 538 l 1,12,-1
266 604 m 1,16,-1
 322 604 l 1,17,-1
 322 548 l 1,18,-1
 266 548 l 1,19,-1
 266 604 l 1,16,-1
0 405 m 1,20,-1
 56 405 l 1,21,-1
 56 349 l 1,22,-1
 0 349 l 1,23,-1
 0 405 l 1,20,-1
66 405 m 1,24,-1
 122 405 l 1,25,-1
 122 349 l 1,26,-1
 66 349 l 1,27,-1
 66 405 l 1,24,-1
331 405 m 1,28,-1
 387 405 l 1,29,-1
 387 349 l 1,30,-1
 331 349 l 1,31,-1
 331 405 l 1,28,-1
397 405 m 1,32,-1
 453 405 l 1,33,-1
 453 349 l 1,34,-1
 397 349 l 1,35,-1
 397 405 l 1,32,-1
0 339 m 1,36,-1
 56 339 l 1,37,-1
 56 283 l 1,38,-1
 0 283 l 1,39,-1
 0 339 l 1,36,-1
66 339 m 1,40,-1
 122 339 l 1,41,-1
 122 283 l 1,42,-1
 66 283 l 1,43,-1
 66 339 l 1,40,-1
331 339 m 1,44,-1
 387 339 l 1,45,-1
 387 283 l 1,46,-1
 331 283 l 1,47,-1
 331 339 l 1,44,-1
397 339 m 1,48,-1
 453 339 l 1,49,-1
 453 283 l 1,50,-1
 397 283 l 1,51,-1
 397 339 l 1,48,-1
66 273 m 1,52,-1
 122 273 l 1,53,-1
 122 217 l 1,54,-1
 66 217 l 1,55,-1
 66 273 l 1,52,-1
132 273 m 1,56,-1
 188 273 l 1,57,-1
 188 217 l 1,58,-1
 132 217 l 1,59,-1
 132 273 l 1,56,-1
198 273 m 1,60,-1
 254 273 l 1,61,-1
 254 217 l 1,62,-1
 198 217 l 1,63,-1
 198 273 l 1,60,-1
265 273 m 1,64,-1
 321 273 l 1,65,-1
 321 217 l 1,66,-1
 265 217 l 1,67,-1
 265 273 l 1,64,-1
331 273 m 1,68,-1
 387 273 l 1,69,-1
 387 217 l 1,70,-1
 331 217 l 1,71,-1
 331 273 l 1,68,-1
66 670 m 1,72,-1
 122 670 l 1,73,-1
 122 614 l 1,74,-1
 66 614 l 1,75,-1
 66 670 l 1,72,-1
132 670 m 1,76,-1
 188 670 l 1,77,-1
 188 614 l 1,78,-1
 132 614 l 1,79,-1
 132 670 l 1,76,-1
198 670 m 1,80,-1
 254 670 l 1,81,-1
 254 614 l 1,82,-1
 198 614 l 1,83,-1
 198 670 l 1,80,-1
265 670 m 1,84,-1
 321 670 l 1,85,-1
 321 614 l 1,86,-1
 265 614 l 1,87,-1
 265 670 l 1,84,-1
331 670 m 1,88,-1
 387 670 l 1,89,-1
 387 614 l 1,90,-1
 331 614 l 1,91,-1
 331 670 l 1,88,-1
0 604 m 1,92,-1
 56 604 l 1,93,-1
 56 548 l 1,94,-1
 0 548 l 1,95,-1
 0 604 l 1,92,-1
66 604 m 1,96,-1
 122 604 l 1,97,-1
 122 548 l 1,98,-1
 66 548 l 1,99,-1
 66 604 l 1,96,-1
331 604 m 1,100,-1
 387 604 l 1,101,-1
 387 548 l 1,102,-1
 331 548 l 1,103,-1
 331 604 l 1,100,-1
397 604 m 1,104,-1
 453 604 l 1,105,-1
 453 548 l 1,106,-1
 397 548 l 1,107,-1
 397 604 l 1,104,-1
0 538 m 1,108,-1
 56 538 l 1,109,-1
 56 482 l 1,110,-1
 0 482 l 1,111,-1
 0 538 l 1,108,-1
66 538 m 1,112,-1
 122 538 l 1,113,-1
 122 482 l 1,114,-1
 66 482 l 1,115,-1
 66 538 l 1,112,-1
331 538 m 1,116,-1
 387 538 l 1,117,-1
 387 482 l 1,118,-1
 331 482 l 1,119,-1
 331 538 l 1,116,-1
397 538 m 1,120,-1
 453 538 l 1,121,-1
 453 482 l 1,122,-1
 397 482 l 1,123,-1
 397 538 l 1,120,-1
0 472 m 1,124,-1
 56 472 l 1,125,-1
 56 416 l 1,126,-1
 0 416 l 1,127,-1
 0 472 l 1,124,-1
66 472 m 1,128,-1
 122 472 l 1,129,-1
 122 416 l 1,130,-1
 66 416 l 1,131,-1
 66 472 l 1,128,-1
331 472 m 1,132,-1
 387 472 l 1,133,-1
 387 416 l 1,134,-1
 331 416 l 1,135,-1
 331 472 l 1,132,-1
397 472 m 1,136,-1
 453 472 l 1,137,-1
 453 416 l 1,138,-1
 397 416 l 1,139,-1
 397 472 l 1,136,-1
EndSplineSet
EndChar

StartChar: one
Encoding: 49 49 20
Width: 452
Flags: W
LayerCount: 2
Fore
SplineSet
132 405 m 1,0,-1
 188 405 l 1,1,-1
 188 349 l 1,2,-1
 132 349 l 1,3,-1
 132 405 l 1,0,-1
198 405 m 1,4,-1
 254 405 l 1,5,-1
 254 349 l 1,6,-1
 198 349 l 1,7,-1
 198 405 l 1,4,-1
132 339 m 1,8,-1
 188 339 l 1,9,-1
 188 283 l 1,10,-1
 132 283 l 1,11,-1
 132 339 l 1,8,-1
198 339 m 1,12,-1
 254 339 l 1,13,-1
 254 283 l 1,14,-1
 198 283 l 1,15,-1
 198 339 l 1,12,-1
0 273 m 1,16,-1
 56 273 l 1,17,-1
 56 217 l 1,18,-1
 0 217 l 1,19,-1
 0 273 l 1,16,-1
66 273 m 1,20,-1
 122 273 l 1,21,-1
 122 217 l 1,22,-1
 66 217 l 1,23,-1
 66 273 l 1,20,-1
132 273 m 1,24,-1
 188 273 l 1,25,-1
 188 217 l 1,26,-1
 132 217 l 1,27,-1
 132 273 l 1,24,-1
198 273 m 1,28,-1
 254 273 l 1,29,-1
 254 217 l 1,30,-1
 198 217 l 1,31,-1
 198 273 l 1,28,-1
265 273 m 1,32,-1
 321 273 l 1,33,-1
 321 217 l 1,34,-1
 265 217 l 1,35,-1
 265 273 l 1,32,-1
331 273 m 1,36,-1
 387 273 l 1,37,-1
 387 217 l 1,38,-1
 331 217 l 1,39,-1
 331 273 l 1,36,-1
132 670 m 1,40,-1
 188 670 l 1,41,-1
 188 614 l 1,42,-1
 132 614 l 1,43,-1
 132 670 l 1,40,-1
198 670 m 1,44,-1
 254 670 l 1,45,-1
 254 614 l 1,46,-1
 198 614 l 1,47,-1
 198 670 l 1,44,-1
66 604 m 1,48,-1
 122 604 l 1,49,-1
 122 548 l 1,50,-1
 66 548 l 1,51,-1
 66 604 l 1,48,-1
132 604 m 1,52,-1
 188 604 l 1,53,-1
 188 548 l 1,54,-1
 132 548 l 1,55,-1
 132 604 l 1,52,-1
198 604 m 1,56,-1
 254 604 l 1,57,-1
 254 548 l 1,58,-1
 198 548 l 1,59,-1
 198 604 l 1,56,-1
132 538 m 1,60,-1
 188 538 l 1,61,-1
 188 482 l 1,62,-1
 132 482 l 1,63,-1
 132 538 l 1,60,-1
198 538 m 1,64,-1
 254 538 l 1,65,-1
 254 482 l 1,66,-1
 198 482 l 1,67,-1
 198 538 l 1,64,-1
132 472 m 1,68,-1
 188 472 l 1,69,-1
 188 416 l 1,70,-1
 132 416 l 1,71,-1
 132 472 l 1,68,-1
198 472 m 1,72,-1
 254 472 l 1,73,-1
 254 416 l 1,74,-1
 198 416 l 1,75,-1
 198 472 l 1,72,-1
EndSplineSet
Validated: 1
EndChar

StartChar: two
Encoding: 50 50 21
Width: 520
Flags: W
LayerCount: 2
Fore
SplineSet
66 405 m 1,0,-1
 122 405 l 1,1,-1
 122 349 l 1,2,-1
 66 349 l 1,3,-1
 66 405 l 1,0,-1
132 405 m 1,4,-1
 188 405 l 1,5,-1
 188 349 l 1,6,-1
 132 349 l 1,7,-1
 132 405 l 1,4,-1
0 339 m 1,8,-1
 56 339 l 1,9,-1
 56 283 l 1,10,-1
 0 283 l 1,11,-1
 0 339 l 1,8,-1
66 339 m 1,12,-1
 122 339 l 1,13,-1
 122 283 l 1,14,-1
 66 283 l 1,15,-1
 66 339 l 1,12,-1
0 273 m 1,16,-1
 56 273 l 1,17,-1
 56 217 l 1,18,-1
 0 217 l 1,19,-1
 0 273 l 1,16,-1
66 273 m 1,20,-1
 122 273 l 1,21,-1
 122 217 l 1,22,-1
 66 217 l 1,23,-1
 66 273 l 1,20,-1
132 273 m 1,24,-1
 188 273 l 1,25,-1
 188 217 l 1,26,-1
 132 217 l 1,27,-1
 132 273 l 1,24,-1
198 273 m 1,28,-1
 254 273 l 1,29,-1
 254 217 l 1,30,-1
 198 217 l 1,31,-1
 198 273 l 1,28,-1
265 273 m 1,32,-1
 321 273 l 1,33,-1
 321 217 l 1,34,-1
 265 217 l 1,35,-1
 265 273 l 1,32,-1
331 273 m 1,36,-1
 387 273 l 1,37,-1
 387 217 l 1,38,-1
 331 217 l 1,39,-1
 331 273 l 1,36,-1
397 273 m 1,40,-1
 453 273 l 1,41,-1
 453 217 l 1,42,-1
 397 217 l 1,43,-1
 397 273 l 1,40,-1
66 670 m 1,44,-1
 122 670 l 1,45,-1
 122 614 l 1,46,-1
 66 614 l 1,47,-1
 66 670 l 1,44,-1
132 670 m 1,48,-1
 188 670 l 1,49,-1
 188 614 l 1,50,-1
 132 614 l 1,51,-1
 132 670 l 1,48,-1
198 670 m 1,52,-1
 254 670 l 1,53,-1
 254 614 l 1,54,-1
 198 614 l 1,55,-1
 198 670 l 1,52,-1
265 670 m 1,56,-1
 321 670 l 1,57,-1
 321 614 l 1,58,-1
 265 614 l 1,59,-1
 265 670 l 1,56,-1
331 670 m 1,60,-1
 387 670 l 1,61,-1
 387 614 l 1,62,-1
 331 614 l 1,63,-1
 331 670 l 1,60,-1
0 604 m 1,64,-1
 56 604 l 1,65,-1
 56 548 l 1,66,-1
 0 548 l 1,67,-1
 0 604 l 1,64,-1
66 604 m 1,68,-1
 122 604 l 1,69,-1
 122 548 l 1,70,-1
 66 548 l 1,71,-1
 66 604 l 1,68,-1
331 604 m 1,72,-1
 387 604 l 1,73,-1
 387 548 l 1,74,-1
 331 548 l 1,75,-1
 331 604 l 1,72,-1
397 604 m 1,76,-1
 453 604 l 1,77,-1
 453 548 l 1,78,-1
 397 548 l 1,79,-1
 397 604 l 1,76,-1
265 538 m 1,80,-1
 321 538 l 1,81,-1
 321 482 l 1,82,-1
 265 482 l 1,83,-1
 265 538 l 1,80,-1
331 538 m 1,84,-1
 387 538 l 1,85,-1
 387 482 l 1,86,-1
 331 482 l 1,87,-1
 331 538 l 1,84,-1
132 472 m 1,88,-1
 188 472 l 1,89,-1
 188 416 l 1,90,-1
 132 416 l 1,91,-1
 132 472 l 1,88,-1
198 472 m 1,92,-1
 254 472 l 1,93,-1
 254 416 l 1,94,-1
 198 416 l 1,95,-1
 198 472 l 1,92,-1
265 472 m 1,96,-1
 321 472 l 1,97,-1
 321 416 l 1,98,-1
 265 416 l 1,99,-1
 265 472 l 1,96,-1
EndSplineSet
Validated: 1
EndChar

StartChar: three
Encoding: 51 51 22
Width: 520
Flags: W
LayerCount: 2
Fore
SplineSet
331 405 m 1,0,-1
 387 405 l 1,1,-1
 387 349 l 1,2,-1
 331 349 l 1,3,-1
 331 405 l 1,0,-1
397 405 m 1,4,-1
 453 405 l 1,5,-1
 453 349 l 1,6,-1
 397 349 l 1,7,-1
 397 405 l 1,4,-1
0 339 m 1,8,-1
 56 339 l 1,9,-1
 56 283 l 1,10,-1
 0 283 l 1,11,-1
 0 339 l 1,8,-1
66 339 m 1,12,-1
 122 339 l 1,13,-1
 122 283 l 1,14,-1
 66 283 l 1,15,-1
 66 339 l 1,12,-1
331 339 m 1,16,-1
 387 339 l 1,17,-1
 387 283 l 1,18,-1
 331 283 l 1,19,-1
 331 339 l 1,16,-1
397 339 m 1,20,-1
 453 339 l 1,21,-1
 453 283 l 1,22,-1
 397 283 l 1,23,-1
 397 339 l 1,20,-1
66 273 m 1,24,-1
 122 273 l 1,25,-1
 122 217 l 1,26,-1
 66 217 l 1,27,-1
 66 273 l 1,24,-1
132 273 m 1,28,-1
 188 273 l 1,29,-1
 188 217 l 1,30,-1
 132 217 l 1,31,-1
 132 273 l 1,28,-1
198 273 m 1,32,-1
 254 273 l 1,33,-1
 254 217 l 1,34,-1
 198 217 l 1,35,-1
 198 273 l 1,32,-1
265 273 m 1,36,-1
 321 273 l 1,37,-1
 321 217 l 1,38,-1
 265 217 l 1,39,-1
 265 273 l 1,36,-1
331 273 m 1,40,-1
 387 273 l 1,41,-1
 387 217 l 1,42,-1
 331 217 l 1,43,-1
 331 273 l 1,40,-1
66 670 m 1,44,-1
 122 670 l 1,45,-1
 122 614 l 1,46,-1
 66 614 l 1,47,-1
 66 670 l 1,44,-1
132 670 m 1,48,-1
 188 670 l 1,49,-1
 188 614 l 1,50,-1
 132 614 l 1,51,-1
 132 670 l 1,48,-1
198 670 m 1,52,-1
 254 670 l 1,53,-1
 254 614 l 1,54,-1
 198 614 l 1,55,-1
 198 670 l 1,52,-1
265 670 m 1,56,-1
 321 670 l 1,57,-1
 321 614 l 1,58,-1
 265 614 l 1,59,-1
 265 670 l 1,56,-1
331 670 m 1,60,-1
 387 670 l 1,61,-1
 387 614 l 1,62,-1
 331 614 l 1,63,-1
 331 670 l 1,60,-1
0 604 m 1,64,-1
 56 604 l 1,65,-1
 56 548 l 1,66,-1
 0 548 l 1,67,-1
 0 604 l 1,64,-1
66 604 m 1,68,-1
 122 604 l 1,69,-1
 122 548 l 1,70,-1
 66 548 l 1,71,-1
 66 604 l 1,68,-1
331 604 m 1,72,-1
 387 604 l 1,73,-1
 387 548 l 1,74,-1
 331 548 l 1,75,-1
 331 604 l 1,72,-1
397 604 m 1,76,-1
 453 604 l 1,77,-1
 453 548 l 1,78,-1
 397 548 l 1,79,-1
 397 604 l 1,76,-1
331 538 m 1,80,-1
 387 538 l 1,81,-1
 387 482 l 1,82,-1
 331 482 l 1,83,-1
 331 538 l 1,80,-1
397 538 m 1,84,-1
 453 538 l 1,85,-1
 453 482 l 1,86,-1
 397 482 l 1,87,-1
 397 538 l 1,84,-1
198 472 m 1,88,-1
 254 472 l 1,89,-1
 254 416 l 1,90,-1
 198 416 l 1,91,-1
 198 472 l 1,88,-1
265 472 m 1,92,-1
 321 472 l 1,93,-1
 321 416 l 1,94,-1
 265 416 l 1,95,-1
 265 472 l 1,92,-1
331 472 m 1,96,-1
 387 472 l 1,97,-1
 387 416 l 1,98,-1
 331 416 l 1,99,-1
 331 472 l 1,96,-1
EndSplineSet
Validated: 1
EndChar

StartChar: four
Encoding: 52 52 23
Width: 520
Flags: W
LayerCount: 2
Fore
SplineSet
0 405 m 1,0,-1
 56 405 l 1,1,-1
 56 349 l 1,2,-1
 0 349 l 1,3,-1
 0 405 l 1,0,-1
66 405 m 1,4,-1
 122 405 l 1,5,-1
 122 349 l 1,6,-1
 66 349 l 1,7,-1
 66 405 l 1,4,-1
132 405 m 1,8,-1
 188 405 l 1,9,-1
 188 349 l 1,10,-1
 132 349 l 1,11,-1
 132 405 l 1,8,-1
198 405 m 1,12,-1
 254 405 l 1,13,-1
 254 349 l 1,14,-1
 198 349 l 1,15,-1
 198 405 l 1,12,-1
265 405 m 1,16,-1
 321 405 l 1,17,-1
 321 349 l 1,18,-1
 265 349 l 1,19,-1
 265 405 l 1,16,-1
331 405 m 1,20,-1
 387 405 l 1,21,-1
 387 349 l 1,22,-1
 331 349 l 1,23,-1
 331 405 l 1,20,-1
397 405 m 1,24,-1
 453 405 l 1,25,-1
 453 349 l 1,26,-1
 397 349 l 1,27,-1
 397 405 l 1,24,-1
265 339 m 1,28,-1
 321 339 l 1,29,-1
 321 283 l 1,30,-1
 265 283 l 1,31,-1
 265 339 l 1,28,-1
331 339 m 1,32,-1
 387 339 l 1,33,-1
 387 283 l 1,34,-1
 331 283 l 1,35,-1
 331 339 l 1,32,-1
265 273 m 1,36,-1
 321 273 l 1,37,-1
 321 217 l 1,38,-1
 265 217 l 1,39,-1
 265 273 l 1,36,-1
331 273 m 1,40,-1
 387 273 l 1,41,-1
 387 217 l 1,42,-1
 331 217 l 1,43,-1
 331 273 l 1,40,-1
198 670 m 1,44,-1
 254 670 l 1,45,-1
 254 614 l 1,46,-1
 198 614 l 1,47,-1
 198 670 l 1,44,-1
265 670 m 1,48,-1
 321 670 l 1,49,-1
 321 614 l 1,50,-1
 265 614 l 1,51,-1
 265 670 l 1,48,-1
331 670 m 1,52,-1
 387 670 l 1,53,-1
 387 614 l 1,54,-1
 331 614 l 1,55,-1
 331 670 l 1,52,-1
132 604 m 1,56,-1
 188 604 l 1,57,-1
 188 548 l 1,58,-1
 132 548 l 1,59,-1
 132 604 l 1,56,-1
198 604 m 1,60,-1
 254 604 l 1,61,-1
 254 548 l 1,62,-1
 198 548 l 1,63,-1
 198 604 l 1,60,-1
265 604 m 1,64,-1
 321 604 l 1,65,-1
 321 548 l 1,66,-1
 265 548 l 1,67,-1
 265 604 l 1,64,-1
331 604 m 1,68,-1
 387 604 l 1,69,-1
 387 548 l 1,70,-1
 331 548 l 1,71,-1
 331 604 l 1,68,-1
66 538 m 1,72,-1
 122 538 l 1,73,-1
 122 482 l 1,74,-1
 66 482 l 1,75,-1
 66 538 l 1,72,-1
132 538 m 1,76,-1
 188 538 l 1,77,-1
 188 482 l 1,78,-1
 132 482 l 1,79,-1
 132 538 l 1,76,-1
265 538 m 1,80,-1
 321 538 l 1,81,-1
 321 482 l 1,82,-1
 265 482 l 1,83,-1
 265 538 l 1,80,-1
331 538 m 1,84,-1
 387 538 l 1,85,-1
 387 482 l 1,86,-1
 331 482 l 1,87,-1
 331 538 l 1,84,-1
0 472 m 1,88,-1
 56 472 l 1,89,-1
 56 416 l 1,90,-1
 0 416 l 1,91,-1
 0 472 l 1,88,-1
66 472 m 1,92,-1
 122 472 l 1,93,-1
 122 416 l 1,94,-1
 66 416 l 1,95,-1
 66 472 l 1,92,-1
265 472 m 1,96,-1
 321 472 l 1,97,-1
 321 416 l 1,98,-1
 265 416 l 1,99,-1
 265 472 l 1,96,-1
331 472 m 1,100,-1
 387 472 l 1,101,-1
 387 416 l 1,102,-1
 331 416 l 1,103,-1
 331 472 l 1,100,-1
EndSplineSet
Validated: 1
EndChar

StartChar: five
Encoding: 53 53 24
Width: 520
Flags: W
LayerCount: 2
Fore
SplineSet
331 405 m 1,0,-1
 387 405 l 1,1,-1
 387 349 l 1,2,-1
 331 349 l 1,3,-1
 331 405 l 1,0,-1
397 405 m 1,4,-1
 453 405 l 1,5,-1
 453 349 l 1,6,-1
 397 349 l 1,7,-1
 397 405 l 1,4,-1
0 339 m 1,8,-1
 56 339 l 1,9,-1
 56 283 l 1,10,-1
 0 283 l 1,11,-1
 0 339 l 1,8,-1
66 339 m 1,12,-1
 122 339 l 1,13,-1
 122 283 l 1,14,-1
 66 283 l 1,15,-1
 66 339 l 1,12,-1
331 339 m 1,16,-1
 387 339 l 1,17,-1
 387 283 l 1,18,-1
 331 283 l 1,19,-1
 331 339 l 1,16,-1
397 339 m 1,20,-1
 453 339 l 1,21,-1
 453 283 l 1,22,-1
 397 283 l 1,23,-1
 397 339 l 1,20,-1
66 273 m 1,24,-1
 122 273 l 1,25,-1
 122 217 l 1,26,-1
 66 217 l 1,27,-1
 66 273 l 1,24,-1
132 273 m 1,28,-1
 188 273 l 1,29,-1
 188 217 l 1,30,-1
 132 217 l 1,31,-1
 132 273 l 1,28,-1
198 273 m 1,32,-1
 254 273 l 1,33,-1
 254 217 l 1,34,-1
 198 217 l 1,35,-1
 198 273 l 1,32,-1
265 273 m 1,36,-1
 321 273 l 1,37,-1
 321 217 l 1,38,-1
 265 217 l 1,39,-1
 265 273 l 1,36,-1
331 273 m 1,40,-1
 387 273 l 1,41,-1
 387 217 l 1,42,-1
 331 217 l 1,43,-1
 331 273 l 1,40,-1
0 670 m 1,44,-1
 56 670 l 1,45,-1
 56 614 l 1,46,-1
 0 614 l 1,47,-1
 0 670 l 1,44,-1
66 670 m 1,48,-1
 122 670 l 1,49,-1
 122 614 l 1,50,-1
 66 614 l 1,51,-1
 66 670 l 1,48,-1
132 670 m 1,52,-1
 188 670 l 1,53,-1
 188 614 l 1,54,-1
 132 614 l 1,55,-1
 132 670 l 1,52,-1
198 670 m 1,56,-1
 254 670 l 1,57,-1
 254 614 l 1,58,-1
 198 614 l 1,59,-1
 198 670 l 1,56,-1
265 670 m 1,60,-1
 321 670 l 1,61,-1
 321 614 l 1,62,-1
 265 614 l 1,63,-1
 265 670 l 1,60,-1
331 670 m 1,64,-1
 387 670 l 1,65,-1
 387 614 l 1,66,-1
 331 614 l 1,67,-1
 331 670 l 1,64,-1
0 604 m 1,68,-1
 56 604 l 1,69,-1
 56 548 l 1,70,-1
 0 548 l 1,71,-1
 0 604 l 1,68,-1
66 604 m 1,72,-1
 122 604 l 1,73,-1
 122 548 l 1,74,-1
 66 548 l 1,75,-1
 66 604 l 1,72,-1
0 538 m 1,76,-1
 56 538 l 1,77,-1
 56 482 l 1,78,-1
 0 482 l 1,79,-1
 0 538 l 1,76,-1
66 538 m 1,80,-1
 122 538 l 1,81,-1
 122 482 l 1,82,-1
 66 482 l 1,83,-1
 66 538 l 1,80,-1
132 538 m 1,84,-1
 188 538 l 1,85,-1
 188 482 l 1,86,-1
 132 482 l 1,87,-1
 132 538 l 1,84,-1
198 538 m 1,88,-1
 254 538 l 1,89,-1
 254 482 l 1,90,-1
 198 482 l 1,91,-1
 198 538 l 1,88,-1
265 538 m 1,92,-1
 321 538 l 1,93,-1
 321 482 l 1,94,-1
 265 482 l 1,95,-1
 265 538 l 1,92,-1
331 538 m 1,96,-1
 387 538 l 1,97,-1
 387 482 l 1,98,-1
 331 482 l 1,99,-1
 331 538 l 1,96,-1
331 472 m 1,100,-1
 387 472 l 1,101,-1
 387 416 l 1,102,-1
 331 416 l 1,103,-1
 331 472 l 1,100,-1
397 472 m 1,104,-1
 453 472 l 1,105,-1
 453 416 l 1,106,-1
 397 416 l 1,107,-1
 397 472 l 1,104,-1
EndSplineSet
Validated: 1
EndChar

StartChar: six
Encoding: 54 54 25
Width: 520
Flags: W
LayerCount: 2
Fore
SplineSet
0 405 m 1,0,-1
 56 405 l 1,1,-1
 56 349 l 1,2,-1
 0 349 l 1,3,-1
 0 405 l 1,0,-1
66 405 m 1,4,-1
 122 405 l 1,5,-1
 122 349 l 1,6,-1
 66 349 l 1,7,-1
 66 405 l 1,4,-1
331 405 m 1,8,-1
 387 405 l 1,9,-1
 387 349 l 1,10,-1
 331 349 l 1,11,-1
 331 405 l 1,8,-1
397 405 m 1,12,-1
 453 405 l 1,13,-1
 453 349 l 1,14,-1
 397 349 l 1,15,-1
 397 405 l 1,12,-1
0 339 m 1,16,-1
 56 339 l 1,17,-1
 56 283 l 1,18,-1
 0 283 l 1,19,-1
 0 339 l 1,16,-1
66 339 m 1,20,-1
 122 339 l 1,21,-1
 122 283 l 1,22,-1
 66 283 l 1,23,-1
 66 339 l 1,20,-1
331 339 m 1,24,-1
 387 339 l 1,25,-1
 387 283 l 1,26,-1
 331 283 l 1,27,-1
 331 339 l 1,24,-1
397 339 m 1,28,-1
 453 339 l 1,29,-1
 453 283 l 1,30,-1
 397 283 l 1,31,-1
 397 339 l 1,28,-1
66 273 m 1,32,-1
 122 273 l 1,33,-1
 122 217 l 1,34,-1
 66 217 l 1,35,-1
 66 273 l 1,32,-1
132 273 m 1,36,-1
 188 273 l 1,37,-1
 188 217 l 1,38,-1
 132 217 l 1,39,-1
 132 273 l 1,36,-1
198 273 m 1,40,-1
 254 273 l 1,41,-1
 254 217 l 1,42,-1
 198 217 l 1,43,-1
 198 273 l 1,40,-1
265 273 m 1,44,-1
 321 273 l 1,45,-1
 321 217 l 1,46,-1
 265 217 l 1,47,-1
 265 273 l 1,44,-1
331 273 m 1,48,-1
 387 273 l 1,49,-1
 387 217 l 1,50,-1
 331 217 l 1,51,-1
 331 273 l 1,48,-1
66 670 m 1,52,-1
 122 670 l 1,53,-1
 122 614 l 1,54,-1
 66 614 l 1,55,-1
 66 670 l 1,52,-1
132 670 m 1,56,-1
 188 670 l 1,57,-1
 188 614 l 1,58,-1
 132 614 l 1,59,-1
 132 670 l 1,56,-1
198 670 m 1,60,-1
 254 670 l 1,61,-1
 254 614 l 1,62,-1
 198 614 l 1,63,-1
 198 670 l 1,60,-1
265 670 m 1,64,-1
 321 670 l 1,65,-1
 321 614 l 1,66,-1
 265 614 l 1,67,-1
 265 670 l 1,64,-1
331 670 m 1,68,-1
 387 670 l 1,69,-1
 387 614 l 1,70,-1
 331 614 l 1,71,-1
 331 670 l 1,68,-1
0 604 m 1,72,-1
 56 604 l 1,73,-1
 56 548 l 1,74,-1
 0 548 l 1,75,-1
 0 604 l 1,72,-1
66 604 m 1,76,-1
 122 604 l 1,77,-1
 122 548 l 1,78,-1
 66 548 l 1,79,-1
 66 604 l 1,76,-1
331 604 m 1,80,-1
 387 604 l 1,81,-1
 387 548 l 1,82,-1
 331 548 l 1,83,-1
 331 604 l 1,80,-1
397 604 m 1,84,-1
 453 604 l 1,85,-1
 453 548 l 1,86,-1
 397 548 l 1,87,-1
 397 604 l 1,84,-1
0 538 m 1,88,-1
 56 538 l 1,89,-1
 56 482 l 1,90,-1
 0 482 l 1,91,-1
 0 538 l 1,88,-1
66 538 m 1,92,-1
 122 538 l 1,93,-1
 122 482 l 1,94,-1
 66 482 l 1,95,-1
 66 538 l 1,92,-1
0 472 m 1,96,-1
 56 472 l 1,97,-1
 56 416 l 1,98,-1
 0 416 l 1,99,-1
 0 472 l 1,96,-1
66 472 m 1,100,-1
 122 472 l 1,101,-1
 122 416 l 1,102,-1
 66 416 l 1,103,-1
 66 472 l 1,100,-1
132 472 m 1,104,-1
 188 472 l 1,105,-1
 188 416 l 1,106,-1
 132 416 l 1,107,-1
 132 472 l 1,104,-1
198 472 m 1,108,-1
 254 472 l 1,109,-1
 254 416 l 1,110,-1
 198 416 l 1,111,-1
 198 472 l 1,108,-1
265 472 m 1,112,-1
 321 472 l 1,113,-1
 321 416 l 1,114,-1
 265 416 l 1,115,-1
 265 472 l 1,112,-1
331 472 m 1,116,-1
 387 472 l 1,117,-1
 387 416 l 1,118,-1
 331 416 l 1,119,-1
 331 472 l 1,116,-1
EndSplineSet
Validated: 1
EndChar

StartChar: seven
Encoding: 55 55 26
Width: 520
Flags: W
LayerCount: 2
Fore
SplineSet
132 405 m 1,0,-1
 188 405 l 1,1,-1
 188 349 l 1,2,-1
 132 349 l 1,3,-1
 132 405 l 1,0,-1
198 405 m 1,4,-1
 254 405 l 1,5,-1
 254 349 l 1,6,-1
 198 349 l 1,7,-1
 198 405 l 1,4,-1
132 339 m 1,8,-1
 188 339 l 1,9,-1
 188 283 l 1,10,-1
 132 283 l 1,11,-1
 132 339 l 1,8,-1
198 339 m 1,12,-1
 254 339 l 1,13,-1
 254 283 l 1,14,-1
 198 283 l 1,15,-1
 198 339 l 1,12,-1
132 273 m 1,16,-1
 188 273 l 1,17,-1
 188 217 l 1,18,-1
 132 217 l 1,19,-1
 132 273 l 1,16,-1
198 273 m 1,20,-1
 254 273 l 1,21,-1
 254 217 l 1,22,-1
 198 217 l 1,23,-1
 198 273 l 1,20,-1
0 670 m 1,24,-1
 56 670 l 1,25,-1
 56 614 l 1,26,-1
 0 614 l 1,27,-1
 0 670 l 1,24,-1
66 670 m 1,28,-1
 122 670 l 1,29,-1
 122 614 l 1,30,-1
 66 614 l 1,31,-1
 66 670 l 1,28,-1
132 670 m 1,32,-1
 188 670 l 1,33,-1
 188 614 l 1,34,-1
 132 614 l 1,35,-1
 132 670 l 1,32,-1
198 670 m 1,36,-1
 254 670 l 1,37,-1
 254 614 l 1,38,-1
 198 614 l 1,39,-1
 198 670 l 1,36,-1
265 670 m 1,40,-1
 321 670 l 1,41,-1
 321 614 l 1,42,-1
 265 614 l 1,43,-1
 265 670 l 1,40,-1
331 670 m 1,44,-1
 387 670 l 1,45,-1
 387 614 l 1,46,-1
 331 614 l 1,47,-1
 331 670 l 1,44,-1
397 670 m 1,48,-1
 453 670 l 1,49,-1
 453 614 l 1,50,-1
 397 614 l 1,51,-1
 397 670 l 1,48,-1
265 604 m 1,52,-1
 321 604 l 1,53,-1
 321 548 l 1,54,-1
 265 548 l 1,55,-1
 265 604 l 1,52,-1
331 604 m 1,56,-1
 387 604 l 1,57,-1
 387 548 l 1,58,-1
 331 548 l 1,59,-1
 331 604 l 1,56,-1
198 538 m 1,60,-1
 254 538 l 1,61,-1
 254 482 l 1,62,-1
 198 482 l 1,63,-1
 198 538 l 1,60,-1
265 538 m 1,64,-1
 321 538 l 1,65,-1
 321 482 l 1,66,-1
 265 482 l 1,67,-1
 265 538 l 1,64,-1
132 472 m 1,68,-1
 188 472 l 1,69,-1
 188 416 l 1,70,-1
 132 416 l 1,71,-1
 132 472 l 1,68,-1
198 472 m 1,72,-1
 254 472 l 1,73,-1
 254 416 l 1,74,-1
 198 416 l 1,75,-1
 198 472 l 1,72,-1
EndSplineSet
Validated: 1
EndChar

StartChar: eight
Encoding: 56 56 27
Width: 520
Flags: W
LayerCount: 2
Fore
SplineSet
0 405 m 1,0,-1
 56 405 l 1,1,-1
 56 349 l 1,2,-1
 0 349 l 1,3,-1
 0 405 l 1,0,-1
66 405 m 1,4,-1
 122 405 l 1,5,-1
 122 349 l 1,6,-1
 66 349 l 1,7,-1
 66 405 l 1,4,-1
331 405 m 1,8,-1
 387 405 l 1,9,-1
 387 349 l 1,10,-1
 331 349 l 1,11,-1
 331 405 l 1,8,-1
397 405 m 1,12,-1
 453 405 l 1,13,-1
 453 349 l 1,14,-1
 397 349 l 1,15,-1
 397 405 l 1,12,-1
0 339 m 1,16,-1
 56 339 l 1,17,-1
 56 283 l 1,18,-1
 0 283 l 1,19,-1
 0 339 l 1,16,-1
66 339 m 1,20,-1
 122 339 l 1,21,-1
 122 283 l 1,22,-1
 66 283 l 1,23,-1
 66 339 l 1,20,-1
331 339 m 1,24,-1
 387 339 l 1,25,-1
 387 283 l 1,26,-1
 331 283 l 1,27,-1
 331 339 l 1,24,-1
397 339 m 1,28,-1
 453 339 l 1,29,-1
 453 283 l 1,30,-1
 397 283 l 1,31,-1
 397 339 l 1,28,-1
66 273 m 1,32,-1
 122 273 l 1,33,-1
 122 217 l 1,34,-1
 66 217 l 1,35,-1
 66 273 l 1,32,-1
132 273 m 1,36,-1
 188 273 l 1,37,-1
 188 217 l 1,38,-1
 132 217 l 1,39,-1
 132 273 l 1,36,-1
198 273 m 1,40,-1
 254 273 l 1,41,-1
 254 217 l 1,42,-1
 198 217 l 1,43,-1
 198 273 l 1,40,-1
265 273 m 1,44,-1
 321 273 l 1,45,-1
 321 217 l 1,46,-1
 265 217 l 1,47,-1
 265 273 l 1,44,-1
331 273 m 1,48,-1
 387 273 l 1,49,-1
 387 217 l 1,50,-1
 331 217 l 1,51,-1
 331 273 l 1,48,-1
66 670 m 1,52,-1
 122 670 l 1,53,-1
 122 614 l 1,54,-1
 66 614 l 1,55,-1
 66 670 l 1,52,-1
132 670 m 1,56,-1
 188 670 l 1,57,-1
 188 614 l 1,58,-1
 132 614 l 1,59,-1
 132 670 l 1,56,-1
198 670 m 1,60,-1
 254 670 l 1,61,-1
 254 614 l 1,62,-1
 198 614 l 1,63,-1
 198 670 l 1,60,-1
265 670 m 1,64,-1
 321 670 l 1,65,-1
 321 614 l 1,66,-1
 265 614 l 1,67,-1
 265 670 l 1,64,-1
331 670 m 1,68,-1
 387 670 l 1,69,-1
 387 614 l 1,70,-1
 331 614 l 1,71,-1
 331 670 l 1,68,-1
0 604 m 1,72,-1
 56 604 l 1,73,-1
 56 548 l 1,74,-1
 0 548 l 1,75,-1
 0 604 l 1,72,-1
66 604 m 1,76,-1
 122 604 l 1,77,-1
 122 548 l 1,78,-1
 66 548 l 1,79,-1
 66 604 l 1,76,-1
331 604 m 1,80,-1
 387 604 l 1,81,-1
 387 548 l 1,82,-1
 331 548 l 1,83,-1
 331 604 l 1,80,-1
397 604 m 1,84,-1
 453 604 l 1,85,-1
 453 548 l 1,86,-1
 397 548 l 1,87,-1
 397 604 l 1,84,-1
0 538 m 1,88,-1
 56 538 l 1,89,-1
 56 482 l 1,90,-1
 0 482 l 1,91,-1
 0 538 l 1,88,-1
66 538 m 1,92,-1
 122 538 l 1,93,-1
 122 482 l 1,94,-1
 66 482 l 1,95,-1
 66 538 l 1,92,-1
331 538 m 1,96,-1
 387 538 l 1,97,-1
 387 482 l 1,98,-1
 331 482 l 1,99,-1
 331 538 l 1,96,-1
397 538 m 1,100,-1
 453 538 l 1,101,-1
 453 482 l 1,102,-1
 397 482 l 1,103,-1
 397 538 l 1,100,-1
66 472 m 1,104,-1
 122 472 l 1,105,-1
 122 416 l 1,106,-1
 66 416 l 1,107,-1
 66 472 l 1,104,-1
132 472 m 1,108,-1
 188 472 l 1,109,-1
 188 416 l 1,110,-1
 132 416 l 1,111,-1
 132 472 l 1,108,-1
198 472 m 1,112,-1
 254 472 l 1,113,-1
 254 416 l 1,114,-1
 198 416 l 1,115,-1
 198 472 l 1,112,-1
265 472 m 1,116,-1
 321 472 l 1,117,-1
 321 416 l 1,118,-1
 265 416 l 1,119,-1
 265 472 l 1,116,-1
331 472 m 1,120,-1
 387 472 l 1,121,-1
 387 416 l 1,122,-1
 331 416 l 1,123,-1
 331 472 l 1,120,-1
EndSplineSet
Validated: 1
EndChar

StartChar: nine
Encoding: 57 57 28
Width: 520
Flags: W
LayerCount: 2
Fore
SplineSet
331 405 m 1,0,-1
 387 405 l 1,1,-1
 387 349 l 1,2,-1
 331 349 l 1,3,-1
 331 405 l 1,0,-1
397 405 m 1,4,-1
 453 405 l 1,5,-1
 453 349 l 1,6,-1
 397 349 l 1,7,-1
 397 405 l 1,4,-1
265 339 m 1,8,-1
 321 339 l 1,9,-1
 321 283 l 1,10,-1
 265 283 l 1,11,-1
 265 339 l 1,8,-1
331 339 m 1,12,-1
 387 339 l 1,13,-1
 387 283 l 1,14,-1
 331 283 l 1,15,-1
 331 339 l 1,12,-1
132 273 m 1,16,-1
 188 273 l 1,17,-1
 188 217 l 1,18,-1
 132 217 l 1,19,-1
 132 273 l 1,16,-1
198 273 m 1,20,-1
 254 273 l 1,21,-1
 254 217 l 1,22,-1
 198 217 l 1,23,-1
 198 273 l 1,20,-1
265 273 m 1,24,-1
 321 273 l 1,25,-1
 321 217 l 1,26,-1
 265 217 l 1,27,-1
 265 273 l 1,24,-1
66 670 m 1,28,-1
 122 670 l 1,29,-1
 122 614 l 1,30,-1
 66 614 l 1,31,-1
 66 670 l 1,28,-1
132 670 m 1,32,-1
 188 670 l 1,33,-1
 188 614 l 1,34,-1
 132 614 l 1,35,-1
 132 670 l 1,32,-1
198 670 m 1,36,-1
 254 670 l 1,37,-1
 254 614 l 1,38,-1
 198 614 l 1,39,-1
 198 670 l 1,36,-1
265 670 m 1,40,-1
 321 670 l 1,41,-1
 321 614 l 1,42,-1
 265 614 l 1,43,-1
 265 670 l 1,40,-1
331 670 m 1,44,-1
 387 670 l 1,45,-1
 387 614 l 1,46,-1
 331 614 l 1,47,-1
 331 670 l 1,44,-1
0 604 m 1,48,-1
 56 604 l 1,49,-1
 56 548 l 1,50,-1
 0 548 l 1,51,-1
 0 604 l 1,48,-1
66 604 m 1,52,-1
 122 604 l 1,53,-1
 122 548 l 1,54,-1
 66 548 l 1,55,-1
 66 604 l 1,52,-1
331 604 m 1,56,-1
 387 604 l 1,57,-1
 387 548 l 1,58,-1
 331 548 l 1,59,-1
 331 604 l 1,56,-1
397 604 m 1,60,-1
 453 604 l 1,61,-1
 453 548 l 1,62,-1
 397 548 l 1,63,-1
 397 604 l 1,60,-1
0 538 m 1,64,-1
 56 538 l 1,65,-1
 56 482 l 1,66,-1
 0 482 l 1,67,-1
 0 538 l 1,64,-1
66 538 m 1,68,-1
 122 538 l 1,69,-1
 122 482 l 1,70,-1
 66 482 l 1,71,-1
 66 538 l 1,68,-1
331 538 m 1,72,-1
 387 538 l 1,73,-1
 387 482 l 1,74,-1
 331 482 l 1,75,-1
 331 538 l 1,72,-1
397 538 m 1,76,-1
 453 538 l 1,77,-1
 453 482 l 1,78,-1
 397 482 l 1,79,-1
 397 538 l 1,76,-1
66 472 m 1,80,-1
 122 472 l 1,81,-1
 122 416 l 1,82,-1
 66 416 l 1,83,-1
 66 472 l 1,80,-1
132 472 m 1,84,-1
 188 472 l 1,85,-1
 188 416 l 1,86,-1
 132 416 l 1,87,-1
 132 472 l 1,84,-1
198 472 m 1,88,-1
 254 472 l 1,89,-1
 254 416 l 1,90,-1
 198 416 l 1,91,-1
 198 472 l 1,88,-1
265 472 m 1,92,-1
 321 472 l 1,93,-1
 321 416 l 1,94,-1
 265 416 l 1,95,-1
 265 472 l 1,92,-1
331 472 m 1,96,-1
 387 472 l 1,97,-1
 387 416 l 1,98,-1
 331 416 l 1,99,-1
 331 472 l 1,96,-1
397 472 m 1,100,-1
 453 472 l 1,101,-1
 453 416 l 1,102,-1
 397 416 l 1,103,-1
 397 472 l 1,100,-1
EndSplineSet
Validated: 1
EndChar

StartChar: colon
Encoding: 58 58 29
Width: 199
Flags: W
LayerCount: 2
Fore
SplineSet
0 405 m 1,0,-1
 56 405 l 1,1,-1
 56 349 l 1,2,-1
 0 349 l 1,3,-1
 0 405 l 1,0,-1
66 405 m 1,4,-1
 122 405 l 1,5,-1
 122 349 l 1,6,-1
 66 349 l 1,7,-1
 66 405 l 1,4,-1
0 339 m 1,8,-1
 56 339 l 1,9,-1
 56 283 l 1,10,-1
 0 283 l 1,11,-1
 0 339 l 1,8,-1
66 339 m 1,12,-1
 122 339 l 1,13,-1
 122 283 l 1,14,-1
 66 283 l 1,15,-1
 66 339 l 1,12,-1
0 604 m 1,16,-1
 56 604 l 1,17,-1
 56 548 l 1,18,-1
 0 548 l 1,19,-1
 0 604 l 1,16,-1
66 604 m 1,20,-1
 122 604 l 1,21,-1
 122 548 l 1,22,-1
 66 548 l 1,23,-1
 66 604 l 1,20,-1
0 538 m 1,24,-1
 56 538 l 1,25,-1
 56 482 l 1,26,-1
 0 482 l 1,27,-1
 0 538 l 1,24,-1
66 538 m 1,28,-1
 122 538 l 1,29,-1
 122 482 l 1,30,-1
 66 482 l 1,31,-1
 66 538 l 1,28,-1
EndSplineSet
Validated: 1
EndChar

StartChar: semicolon
Encoding: 59 59 30
Width: 198
Flags: W
LayerCount: 2
Fore
SplineSet
0 405 m 1,0,-1
 56 405 l 1,1,-1
 56 349 l 1,2,-1
 0 349 l 1,3,-1
 0 405 l 1,0,-1
66 405 m 1,4,-1
 122 405 l 1,5,-1
 122 349 l 1,6,-1
 66 349 l 1,7,-1
 66 405 l 1,4,-1
0 339 m 1,8,-1
 56 339 l 1,9,-1
 56 283 l 1,10,-1
 0 283 l 1,11,-1
 0 339 l 1,8,-1
66 339 m 1,12,-1
 122 339 l 1,13,-1
 122 283 l 1,14,-1
 66 283 l 1,15,-1
 66 339 l 1,12,-1
66 273 m 1,16,-1
 122 273 l 1,17,-1
 122 217 l 1,18,-1
 66 217 l 1,19,-1
 66 273 l 1,16,-1
0 604 m 1,20,-1
 56 604 l 1,21,-1
 56 548 l 1,22,-1
 0 548 l 1,23,-1
 0 604 l 1,20,-1
66 604 m 1,24,-1
 122 604 l 1,25,-1
 122 548 l 1,26,-1
 66 548 l 1,27,-1
 66 604 l 1,24,-1
0 538 m 1,28,-1
 56 538 l 1,29,-1
 56 482 l 1,30,-1
 0 482 l 1,31,-1
 0 538 l 1,28,-1
66 538 m 1,32,-1
 122 538 l 1,33,-1
 122 482 l 1,34,-1
 66 482 l 1,35,-1
 66 538 l 1,32,-1
EndSplineSet
Validated: 1
EndChar

StartChar: less
Encoding: 60 60 31
Width: 520
Flags: W
LayerCount: 2
Fore
SplineSet
66 405 m 1,0,-1
 122 405 l 1,1,-1
 122 349 l 1,2,-1
 66 349 l 1,3,-1
 66 405 l 1,0,-1
132 405 m 1,4,-1
 188 405 l 1,5,-1
 188 349 l 1,6,-1
 132 349 l 1,7,-1
 132 405 l 1,4,-1
132 339 m 1,8,-1
 188 339 l 1,9,-1
 188 283 l 1,10,-1
 132 283 l 1,11,-1
 132 339 l 1,8,-1
198 339 m 1,12,-1
 254 339 l 1,13,-1
 254 283 l 1,14,-1
 198 283 l 1,15,-1
 198 339 l 1,12,-1
132 604 m 1,16,-1
 188 604 l 1,17,-1
 188 548 l 1,18,-1
 132 548 l 1,19,-1
 132 604 l 1,16,-1
198 604 m 1,20,-1
 254 604 l 1,21,-1
 254 548 l 1,22,-1
 198 548 l 1,23,-1
 198 604 l 1,20,-1
66 538 m 1,24,-1
 122 538 l 1,25,-1
 122 482 l 1,26,-1
 66 482 l 1,27,-1
 66 538 l 1,24,-1
132 538 m 1,28,-1
 188 538 l 1,29,-1
 188 482 l 1,30,-1
 132 482 l 1,31,-1
 132 538 l 1,28,-1
0 472 m 1,32,-1
 56 472 l 1,33,-1
 56 416 l 1,34,-1
 0 416 l 1,35,-1
 0 472 l 1,32,-1
66 472 m 1,36,-1
 122 472 l 1,37,-1
 122 416 l 1,38,-1
 66 416 l 1,39,-1
 66 472 l 1,36,-1
EndSplineSet
Validated: 1
EndChar

StartChar: equal
Encoding: 61 61 32
Width: 399
Flags: W
LayerCount: 2
Fore
SplineSet
0 405 m 1,0,-1
 56 405 l 1,1,-1
 56 349 l 1,2,-1
 0 349 l 1,3,-1
 0 405 l 1,0,-1
66 405 m 1,4,-1
 122 405 l 1,5,-1
 122 349 l 1,6,-1
 66 349 l 1,7,-1
 66 405 l 1,4,-1
132 405 m 1,8,-1
 188 405 l 1,9,-1
 188 349 l 1,10,-1
 132 349 l 1,11,-1
 132 405 l 1,8,-1
198 405 m 1,12,-1
 254 405 l 1,13,-1
 254 349 l 1,14,-1
 198 349 l 1,15,-1
 198 405 l 1,12,-1
265 405 m 1,16,-1
 321 405 l 1,17,-1
 321 349 l 1,18,-1
 265 349 l 1,19,-1
 265 405 l 1,16,-1
0 538 m 1,20,-1
 56 538 l 1,21,-1
 56 482 l 1,22,-1
 0 482 l 1,23,-1
 0 538 l 1,20,-1
66 538 m 1,24,-1
 122 538 l 1,25,-1
 122 482 l 1,26,-1
 66 482 l 1,27,-1
 66 538 l 1,24,-1
132 538 m 1,28,-1
 188 538 l 1,29,-1
 188 482 l 1,30,-1
 132 482 l 1,31,-1
 132 538 l 1,28,-1
198 538 m 1,32,-1
 254 538 l 1,33,-1
 254 482 l 1,34,-1
 198 482 l 1,35,-1
 198 538 l 1,32,-1
265 538 m 1,36,-1
 321 538 l 1,37,-1
 321 482 l 1,38,-1
 265 482 l 1,39,-1
 265 538 l 1,36,-1
EndSplineSet
Validated: 1
EndChar

StartChar: greater
Encoding: 62 62 33
Width: 520
Flags: W
LayerCount: 2
Fore
SplineSet
66 405 m 1,0,-1
 122 405 l 1,1,-1
 122 349 l 1,2,-1
 66 349 l 1,3,-1
 66 405 l 1,0,-1
132 405 m 1,4,-1
 188 405 l 1,5,-1
 188 349 l 1,6,-1
 132 349 l 1,7,-1
 132 405 l 1,4,-1
0 339 m 1,8,-1
 56 339 l 1,9,-1
 56 283 l 1,10,-1
 0 283 l 1,11,-1
 0 339 l 1,8,-1
66 339 m 1,12,-1
 122 339 l 1,13,-1
 122 283 l 1,14,-1
 66 283 l 1,15,-1
 66 339 l 1,12,-1
0 604 m 1,16,-1
 56 604 l 1,17,-1
 56 548 l 1,18,-1
 0 548 l 1,19,-1
 0 604 l 1,16,-1
66 604 m 1,20,-1
 122 604 l 1,21,-1
 122 548 l 1,22,-1
 66 548 l 1,23,-1
 66 604 l 1,20,-1
66 538 m 1,24,-1
 122 538 l 1,25,-1
 122 482 l 1,26,-1
 66 482 l 1,27,-1
 66 538 l 1,24,-1
132 538 m 1,28,-1
 188 538 l 1,29,-1
 188 482 l 1,30,-1
 132 482 l 1,31,-1
 132 538 l 1,28,-1
132 472 m 1,32,-1
 188 472 l 1,33,-1
 188 416 l 1,34,-1
 132 416 l 1,35,-1
 132 472 l 1,32,-1
198 472 m 1,36,-1
 254 472 l 1,37,-1
 254 416 l 1,38,-1
 198 416 l 1,39,-1
 198 472 l 1,36,-1
EndSplineSet
Validated: 1
EndChar

StartChar: question
Encoding: 63 63 34
Width: 520
Flags: W
LayerCount: 2
Fore
SplineSet
132 339 m 1,0,-1
 188 339 l 1,1,-1
 188 283 l 1,2,-1
 132 283 l 1,3,-1
 132 339 l 1,0,-1
198 339 m 1,4,-1
 254 339 l 1,5,-1
 254 283 l 1,6,-1
 198 283 l 1,7,-1
 198 339 l 1,4,-1
132 273 m 1,8,-1
 188 273 l 1,9,-1
 188 217 l 1,10,-1
 132 217 l 1,11,-1
 132 273 l 1,8,-1
198 273 m 1,12,-1
 254 273 l 1,13,-1
 254 217 l 1,14,-1
 198 217 l 1,15,-1
 198 273 l 1,12,-1
66 670 m 1,16,-1
 122 670 l 1,17,-1
 122 614 l 1,18,-1
 66 614 l 1,19,-1
 66 670 l 1,16,-1
132 670 m 1,20,-1
 188 670 l 1,21,-1
 188 614 l 1,22,-1
 132 614 l 1,23,-1
 132 670 l 1,20,-1
198 670 m 1,24,-1
 254 670 l 1,25,-1
 254 614 l 1,26,-1
 198 614 l 1,27,-1
 198 670 l 1,24,-1
265 670 m 1,28,-1
 321 670 l 1,29,-1
 321 614 l 1,30,-1
 265 614 l 1,31,-1
 265 670 l 1,28,-1
0 604 m 1,32,-1
 56 604 l 1,33,-1
 56 548 l 1,34,-1
 0 548 l 1,35,-1
 0 604 l 1,32,-1
66 604 m 1,36,-1
 122 604 l 1,37,-1
 122 548 l 1,38,-1
 66 548 l 1,39,-1
 66 604 l 1,36,-1
265 604 m 1,40,-1
 321 604 l 1,41,-1
 321 548 l 1,42,-1
 265 548 l 1,43,-1
 265 604 l 1,40,-1
331 604 m 1,44,-1
 387 604 l 1,45,-1
 387 548 l 1,46,-1
 331 548 l 1,47,-1
 331 604 l 1,44,-1
198 538 m 1,48,-1
 254 538 l 1,49,-1
 254 482 l 1,50,-1
 198 482 l 1,51,-1
 198 538 l 1,48,-1
265 538 m 1,52,-1
 321 538 l 1,53,-1
 321 482 l 1,54,-1
 265 482 l 1,55,-1
 265 538 l 1,52,-1
132 472 m 1,56,-1
 188 472 l 1,57,-1
 188 416 l 1,58,-1
 132 416 l 1,59,-1
 132 472 l 1,56,-1
198 472 m 1,60,-1
 254 472 l 1,61,-1
 254 416 l 1,62,-1
 198 416 l 1,63,-1
 198 472 l 1,60,-1
EndSplineSet
Validated: 1
EndChar

StartChar: at
Encoding: 64 64 35
Width: 520
Flags: W
LayerCount: 2
Fore
SplineSet
0 405 m 1,0,-1
 56 405 l 1,1,-1
 56 349 l 1,2,-1
 0 349 l 1,3,-1
 0 405 l 1,0,-1
132 405 m 1,4,-1
 188 405 l 1,5,-1
 188 349 l 1,6,-1
 132 349 l 1,7,-1
 132 405 l 1,4,-1
198 405 m 1,8,-1
 254 405 l 1,9,-1
 254 349 l 1,10,-1
 198 349 l 1,11,-1
 198 405 l 1,8,-1
331 405 m 1,12,-1
 387 405 l 1,13,-1
 387 349 l 1,14,-1
 331 349 l 1,15,-1
 331 405 l 1,12,-1
397 405 m 1,16,-1
 453 405 l 1,17,-1
 453 349 l 1,18,-1
 397 349 l 1,19,-1
 397 405 l 1,16,-1
0 339 m 1,20,-1
 56 339 l 1,21,-1
 56 283 l 1,22,-1
 0 283 l 1,23,-1
 0 339 l 1,20,-1
66 273 m 1,24,-1
 122 273 l 1,25,-1
 122 217 l 1,26,-1
 66 217 l 1,27,-1
 66 273 l 1,24,-1
132 273 m 1,28,-1
 188 273 l 1,29,-1
 188 217 l 1,30,-1
 132 217 l 1,31,-1
 132 273 l 1,28,-1
198 273 m 1,32,-1
 254 273 l 1,33,-1
 254 217 l 1,34,-1
 198 217 l 1,35,-1
 198 273 l 1,32,-1
265 273 m 1,36,-1
 321 273 l 1,37,-1
 321 217 l 1,38,-1
 265 217 l 1,39,-1
 265 273 l 1,36,-1
331 273 m 1,40,-1
 387 273 l 1,41,-1
 387 217 l 1,42,-1
 331 217 l 1,43,-1
 331 273 l 1,40,-1
397 273 m 1,44,-1
 453 273 l 1,45,-1
 453 217 l 1,46,-1
 397 217 l 1,47,-1
 397 273 l 1,44,-1
66 670 m 1,48,-1
 122 670 l 1,49,-1
 122 614 l 1,50,-1
 66 614 l 1,51,-1
 66 670 l 1,48,-1
132 670 m 1,52,-1
 188 670 l 1,53,-1
 188 614 l 1,54,-1
 132 614 l 1,55,-1
 132 670 l 1,52,-1
198 670 m 1,56,-1
 254 670 l 1,57,-1
 254 614 l 1,58,-1
 198 614 l 1,59,-1
 198 670 l 1,56,-1
265 670 m 1,60,-1
 321 670 l 1,61,-1
 321 614 l 1,62,-1
 265 614 l 1,63,-1
 265 670 l 1,60,-1
331 670 m 1,64,-1
 387 670 l 1,65,-1
 387 614 l 1,66,-1
 331 614 l 1,67,-1
 331 670 l 1,64,-1
0 604 m 1,68,-1
 56 604 l 1,69,-1
 56 548 l 1,70,-1
 0 548 l 1,71,-1
 0 604 l 1,68,-1
397 604 m 1,72,-1
 453 604 l 1,73,-1
 453 548 l 1,74,-1
 397 548 l 1,75,-1
 397 604 l 1,72,-1
0 538 m 1,76,-1
 56 538 l 1,77,-1
 56 482 l 1,78,-1
 0 482 l 1,79,-1
 0 538 l 1,76,-1
132 538 m 1,80,-1
 188 538 l 1,81,-1
 188 482 l 1,82,-1
 132 482 l 1,83,-1
 132 538 l 1,80,-1
198 538 m 1,84,-1
 254 538 l 1,85,-1
 254 482 l 1,86,-1
 198 482 l 1,87,-1
 198 538 l 1,84,-1
265 538 m 1,88,-1
 321 538 l 1,89,-1
 321 482 l 1,90,-1
 265 482 l 1,91,-1
 265 538 l 1,88,-1
397 538 m 1,92,-1
 453 538 l 1,93,-1
 453 482 l 1,94,-1
 397 482 l 1,95,-1
 397 538 l 1,92,-1
0 472 m 1,96,-1
 56 472 l 1,97,-1
 56 416 l 1,98,-1
 0 416 l 1,99,-1
 0 472 l 1,96,-1
132 472 m 1,100,-1
 188 472 l 1,101,-1
 188 416 l 1,102,-1
 132 416 l 1,103,-1
 132 472 l 1,100,-1
265 472 m 1,104,-1
 321 472 l 1,105,-1
 321 416 l 1,106,-1
 265 416 l 1,107,-1
 265 472 l 1,104,-1
397 472 m 1,108,-1
 453 472 l 1,109,-1
 453 416 l 1,110,-1
 397 416 l 1,111,-1
 397 472 l 1,108,-1
EndSplineSet
Validated: 1
EndChar

StartChar: A
Encoding: 65 65 36
Width: 520
Flags: W
LayerCount: 2
Fore
SplineSet
0 405 m 1,0,-1
 56 405 l 1,1,-1
 56 349 l 1,2,-1
 0 349 l 1,3,-1
 0 405 l 1,0,-1
66 405 m 1,4,-1
 122 405 l 1,5,-1
 122 349 l 1,6,-1
 66 349 l 1,7,-1
 66 405 l 1,4,-1
132 405 m 1,8,-1
 188 405 l 1,9,-1
 188 349 l 1,10,-1
 132 349 l 1,11,-1
 132 405 l 1,8,-1
198 405 m 1,12,-1
 254 405 l 1,13,-1
 254 349 l 1,14,-1
 198 349 l 1,15,-1
 198 405 l 1,12,-1
265 405 m 1,16,-1
 321 405 l 1,17,-1
 321 349 l 1,18,-1
 265 349 l 1,19,-1
 265 405 l 1,16,-1
331 405 m 1,20,-1
 387 405 l 1,21,-1
 387 349 l 1,22,-1
 331 349 l 1,23,-1
 331 405 l 1,20,-1
397 405 m 1,24,-1
 453 405 l 1,25,-1
 453 349 l 1,26,-1
 397 349 l 1,27,-1
 397 405 l 1,24,-1
0 339 m 1,28,-1
 56 339 l 1,29,-1
 56 283 l 1,30,-1
 0 283 l 1,31,-1
 0 339 l 1,28,-1
66 339 m 1,32,-1
 122 339 l 1,33,-1
 122 283 l 1,34,-1
 66 283 l 1,35,-1
 66 339 l 1,32,-1
331 339 m 1,36,-1
 387 339 l 1,37,-1
 387 283 l 1,38,-1
 331 283 l 1,39,-1
 331 339 l 1,36,-1
397 339 m 1,40,-1
 453 339 l 1,41,-1
 453 283 l 1,42,-1
 397 283 l 1,43,-1
 397 339 l 1,40,-1
0 273 m 1,44,-1
 56 273 l 1,45,-1
 56 217 l 1,46,-1
 0 217 l 1,47,-1
 0 273 l 1,44,-1
66 273 m 1,48,-1
 122 273 l 1,49,-1
 122 217 l 1,50,-1
 66 217 l 1,51,-1
 66 273 l 1,48,-1
331 273 m 1,52,-1
 387 273 l 1,53,-1
 387 217 l 1,54,-1
 331 217 l 1,55,-1
 331 273 l 1,52,-1
397 273 m 1,56,-1
 453 273 l 1,57,-1
 453 217 l 1,58,-1
 397 217 l 1,59,-1
 397 273 l 1,56,-1
132 670 m 1,60,-1
 188 670 l 1,61,-1
 188 614 l 1,62,-1
 132 614 l 1,63,-1
 132 670 l 1,60,-1
198 670 m 1,64,-1
 254 670 l 1,65,-1
 254 614 l 1,66,-1
 198 614 l 1,67,-1
 198 670 l 1,64,-1
265 670 m 1,68,-1
 321 670 l 1,69,-1
 321 614 l 1,70,-1
 265 614 l 1,71,-1
 265 670 l 1,68,-1
66 604 m 1,72,-1
 122 604 l 1,73,-1
 122 548 l 1,74,-1
 66 548 l 1,75,-1
 66 604 l 1,72,-1
132 604 m 1,76,-1
 188 604 l 1,77,-1
 188 548 l 1,78,-1
 132 548 l 1,79,-1
 132 604 l 1,76,-1
265 604 m 1,80,-1
 321 604 l 1,81,-1
 321 548 l 1,82,-1
 265 548 l 1,83,-1
 265 604 l 1,80,-1
331 604 m 1,84,-1
 387 604 l 1,85,-1
 387 548 l 1,86,-1
 331 548 l 1,87,-1
 331 604 l 1,84,-1
0 538 m 1,88,-1
 56 538 l 1,89,-1
 56 482 l 1,90,-1
 0 482 l 1,91,-1
 0 538 l 1,88,-1
66 538 m 1,92,-1
 122 538 l 1,93,-1
 122 482 l 1,94,-1
 66 482 l 1,95,-1
 66 538 l 1,92,-1
331 538 m 1,96,-1
 387 538 l 1,97,-1
 387 482 l 1,98,-1
 331 482 l 1,99,-1
 331 538 l 1,96,-1
397 538 m 1,100,-1
 453 538 l 1,101,-1
 453 482 l 1,102,-1
 397 482 l 1,103,-1
 397 538 l 1,100,-1
0 472 m 1,104,-1
 56 472 l 1,105,-1
 56 416 l 1,106,-1
 0 416 l 1,107,-1
 0 472 l 1,104,-1
66 472 m 1,108,-1
 122 472 l 1,109,-1
 122 416 l 1,110,-1
 66 416 l 1,111,-1
 66 472 l 1,108,-1
331 472 m 1,112,-1
 387 472 l 1,113,-1
 387 416 l 1,114,-1
 331 416 l 1,115,-1
 331 472 l 1,112,-1
397 472 m 1,116,-1
 453 472 l 1,117,-1
 453 416 l 1,118,-1
 397 416 l 1,119,-1
 397 472 l 1,116,-1
EndSplineSet
Validated: 1
EndChar

StartChar: B
Encoding: 66 66 37
Width: 520
Flags: W
LayerCount: 2
Fore
SplineSet
0 405 m 1,0,-1
 56 405 l 1,1,-1
 56 349 l 1,2,-1
 0 349 l 1,3,-1
 0 405 l 1,0,-1
66 405 m 1,4,-1
 122 405 l 1,5,-1
 122 349 l 1,6,-1
 66 349 l 1,7,-1
 66 405 l 1,4,-1
331 405 m 1,8,-1
 387 405 l 1,9,-1
 387 349 l 1,10,-1
 331 349 l 1,11,-1
 331 405 l 1,8,-1
397 405 m 1,12,-1
 453 405 l 1,13,-1
 453 349 l 1,14,-1
 397 349 l 1,15,-1
 397 405 l 1,12,-1
0 339 m 1,16,-1
 56 339 l 1,17,-1
 56 283 l 1,18,-1
 0 283 l 1,19,-1
 0 339 l 1,16,-1
66 339 m 1,20,-1
 122 339 l 1,21,-1
 122 283 l 1,22,-1
 66 283 l 1,23,-1
 66 339 l 1,20,-1
331 339 m 1,24,-1
 387 339 l 1,25,-1
 387 283 l 1,26,-1
 331 283 l 1,27,-1
 331 339 l 1,24,-1
397 339 m 1,28,-1
 453 339 l 1,29,-1
 453 283 l 1,30,-1
 397 283 l 1,31,-1
 397 339 l 1,28,-1
0 273 m 1,32,-1
 56 273 l 1,33,-1
 56 217 l 1,34,-1
 0 217 l 1,35,-1
 0 273 l 1,32,-1
66 273 m 1,36,-1
 122 273 l 1,37,-1
 122 217 l 1,38,-1
 66 217 l 1,39,-1
 66 273 l 1,36,-1
132 273 m 1,40,-1
 188 273 l 1,41,-1
 188 217 l 1,42,-1
 132 217 l 1,43,-1
 132 273 l 1,40,-1
198 273 m 1,44,-1
 254 273 l 1,45,-1
 254 217 l 1,46,-1
 198 217 l 1,47,-1
 198 273 l 1,44,-1
265 273 m 1,48,-1
 321 273 l 1,49,-1
 321 217 l 1,50,-1
 265 217 l 1,51,-1
 265 273 l 1,48,-1
331 273 m 1,52,-1
 387 273 l 1,53,-1
 387 217 l 1,54,-1
 331 217 l 1,55,-1
 331 273 l 1,52,-1
0 670 m 1,56,-1
 56 670 l 1,57,-1
 56 614 l 1,58,-1
 0 614 l 1,59,-1
 0 670 l 1,56,-1
66 670 m 1,60,-1
 122 670 l 1,61,-1
 122 614 l 1,62,-1
 66 614 l 1,63,-1
 66 670 l 1,60,-1
132 670 m 1,64,-1
 188 670 l 1,65,-1
 188 614 l 1,66,-1
 132 614 l 1,67,-1
 132 670 l 1,64,-1
198 670 m 1,68,-1
 254 670 l 1,69,-1
 254 614 l 1,70,-1
 198 614 l 1,71,-1
 198 670 l 1,68,-1
265 670 m 1,72,-1
 321 670 l 1,73,-1
 321 614 l 1,74,-1
 265 614 l 1,75,-1
 265 670 l 1,72,-1
331 670 m 1,76,-1
 387 670 l 1,77,-1
 387 614 l 1,78,-1
 331 614 l 1,79,-1
 331 670 l 1,76,-1
0 604 m 1,80,-1
 56 604 l 1,81,-1
 56 548 l 1,82,-1
 0 548 l 1,83,-1
 0 604 l 1,80,-1
66 604 m 1,84,-1
 122 604 l 1,85,-1
 122 548 l 1,86,-1
 66 548 l 1,87,-1
 66 604 l 1,84,-1
331 604 m 1,88,-1
 387 604 l 1,89,-1
 387 548 l 1,90,-1
 331 548 l 1,91,-1
 331 604 l 1,88,-1
397 604 m 1,92,-1
 453 604 l 1,93,-1
 453 548 l 1,94,-1
 397 548 l 1,95,-1
 397 604 l 1,92,-1
0 538 m 1,96,-1
 56 538 l 1,97,-1
 56 482 l 1,98,-1
 0 482 l 1,99,-1
 0 538 l 1,96,-1
66 538 m 1,100,-1
 122 538 l 1,101,-1
 122 482 l 1,102,-1
 66 482 l 1,103,-1
 66 538 l 1,100,-1
331 538 m 1,104,-1
 387 538 l 1,105,-1
 387 482 l 1,106,-1
 331 482 l 1,107,-1
 331 538 l 1,104,-1
397 538 m 1,108,-1
 453 538 l 1,109,-1
 453 482 l 1,110,-1
 397 482 l 1,111,-1
 397 538 l 1,108,-1
0 472 m 1,112,-1
 56 472 l 1,113,-1
 56 416 l 1,114,-1
 0 416 l 1,115,-1
 0 472 l 1,112,-1
66 472 m 1,116,-1
 122 472 l 1,117,-1
 122 416 l 1,118,-1
 66 416 l 1,119,-1
 66 472 l 1,116,-1
132 472 m 1,120,-1
 188 472 l 1,121,-1
 188 416 l 1,122,-1
 132 416 l 1,123,-1
 132 472 l 1,120,-1
198 472 m 1,124,-1
 254 472 l 1,125,-1
 254 416 l 1,126,-1
 198 416 l 1,127,-1
 198 472 l 1,124,-1
265 472 m 1,128,-1
 321 472 l 1,129,-1
 321 416 l 1,130,-1
 265 416 l 1,131,-1
 265 472 l 1,128,-1
331 472 m 1,132,-1
 387 472 l 1,133,-1
 387 416 l 1,134,-1
 331 416 l 1,135,-1
 331 472 l 1,132,-1
EndSplineSet
Validated: 1
EndChar

StartChar: C
Encoding: 67 67 38
Width: 520
Flags: W
LayerCount: 2
Fore
SplineSet
0 405 m 1,0,-1
 56 405 l 1,1,-1
 56 349 l 1,2,-1
 0 349 l 1,3,-1
 0 405 l 1,0,-1
66 405 m 1,4,-1
 122 405 l 1,5,-1
 122 349 l 1,6,-1
 66 349 l 1,7,-1
 66 405 l 1,4,-1
0 339 m 1,8,-1
 56 339 l 1,9,-1
 56 283 l 1,10,-1
 0 283 l 1,11,-1
 0 339 l 1,8,-1
66 339 m 1,12,-1
 122 339 l 1,13,-1
 122 283 l 1,14,-1
 66 283 l 1,15,-1
 66 339 l 1,12,-1
331 339 m 1,16,-1
 387 339 l 1,17,-1
 387 283 l 1,18,-1
 331 283 l 1,19,-1
 331 339 l 1,16,-1
397 339 m 1,20,-1
 453 339 l 1,21,-1
 453 283 l 1,22,-1
 397 283 l 1,23,-1
 397 339 l 1,20,-1
66 273 m 1,24,-1
 122 273 l 1,25,-1
 122 217 l 1,26,-1
 66 217 l 1,27,-1
 66 273 l 1,24,-1
132 273 m 1,28,-1
 188 273 l 1,29,-1
 188 217 l 1,30,-1
 132 217 l 1,31,-1
 132 273 l 1,28,-1
198 273 m 1,32,-1
 254 273 l 1,33,-1
 254 217 l 1,34,-1
 198 217 l 1,35,-1
 198 273 l 1,32,-1
265 273 m 1,36,-1
 321 273 l 1,37,-1
 321 217 l 1,38,-1
 265 217 l 1,39,-1
 265 273 l 1,36,-1
331 273 m 1,40,-1
 387 273 l 1,41,-1
 387 217 l 1,42,-1
 331 217 l 1,43,-1
 331 273 l 1,40,-1
66 670 m 1,44,-1
 122 670 l 1,45,-1
 122 614 l 1,46,-1
 66 614 l 1,47,-1
 66 670 l 1,44,-1
132 670 m 1,48,-1
 188 670 l 1,49,-1
 188 614 l 1,50,-1
 132 614 l 1,51,-1
 132 670 l 1,48,-1
198 670 m 1,52,-1
 254 670 l 1,53,-1
 254 614 l 1,54,-1
 198 614 l 1,55,-1
 198 670 l 1,52,-1
265 670 m 1,56,-1
 321 670 l 1,57,-1
 321 614 l 1,58,-1
 265 614 l 1,59,-1
 265 670 l 1,56,-1
331 670 m 1,60,-1
 387 670 l 1,61,-1
 387 614 l 1,62,-1
 331 614 l 1,63,-1
 331 670 l 1,60,-1
0 604 m 1,64,-1
 56 604 l 1,65,-1
 56 548 l 1,66,-1
 0 548 l 1,67,-1
 0 604 l 1,64,-1
66 604 m 1,68,-1
 122 604 l 1,69,-1
 122 548 l 1,70,-1
 66 548 l 1,71,-1
 66 604 l 1,68,-1
331 604 m 1,72,-1
 387 604 l 1,73,-1
 387 548 l 1,74,-1
 331 548 l 1,75,-1
 331 604 l 1,72,-1
397 604 m 1,76,-1
 453 604 l 1,77,-1
 453 548 l 1,78,-1
 397 548 l 1,79,-1
 397 604 l 1,76,-1
0 538 m 1,80,-1
 56 538 l 1,81,-1
 56 482 l 1,82,-1
 0 482 l 1,83,-1
 0 538 l 1,80,-1
66 538 m 1,84,-1
 122 538 l 1,85,-1
 122 482 l 1,86,-1
 66 482 l 1,87,-1
 66 538 l 1,84,-1
0 472 m 1,88,-1
 56 472 l 1,89,-1
 56 416 l 1,90,-1
 0 416 l 1,91,-1
 0 472 l 1,88,-1
66 472 m 1,92,-1
 122 472 l 1,93,-1
 122 416 l 1,94,-1
 66 416 l 1,95,-1
 66 472 l 1,92,-1
EndSplineSet
Validated: 1
EndChar

StartChar: D
Encoding: 68 68 39
Width: 520
Flags: W
LayerCount: 2
Fore
SplineSet
0 405 m 1,0,-1
 56 405 l 1,1,-1
 56 349 l 1,2,-1
 0 349 l 1,3,-1
 0 405 l 1,0,-1
66 405 m 1,4,-1
 122 405 l 1,5,-1
 122 349 l 1,6,-1
 66 349 l 1,7,-1
 66 405 l 1,4,-1
331 405 m 1,8,-1
 387 405 l 1,9,-1
 387 349 l 1,10,-1
 331 349 l 1,11,-1
 331 405 l 1,8,-1
397 405 m 1,12,-1
 453 405 l 1,13,-1
 453 349 l 1,14,-1
 397 349 l 1,15,-1
 397 405 l 1,12,-1
0 339 m 1,16,-1
 56 339 l 1,17,-1
 56 283 l 1,18,-1
 0 283 l 1,19,-1
 0 339 l 1,16,-1
66 339 m 1,20,-1
 122 339 l 1,21,-1
 122 283 l 1,22,-1
 66 283 l 1,23,-1
 66 339 l 1,20,-1
331 339 m 1,24,-1
 387 339 l 1,25,-1
 387 283 l 1,26,-1
 331 283 l 1,27,-1
 331 339 l 1,24,-1
397 339 m 1,28,-1
 453 339 l 1,29,-1
 453 283 l 1,30,-1
 397 283 l 1,31,-1
 397 339 l 1,28,-1
0 273 m 1,32,-1
 56 273 l 1,33,-1
 56 217 l 1,34,-1
 0 217 l 1,35,-1
 0 273 l 1,32,-1
66 273 m 1,36,-1
 122 273 l 1,37,-1
 122 217 l 1,38,-1
 66 217 l 1,39,-1
 66 273 l 1,36,-1
132 273 m 1,40,-1
 188 273 l 1,41,-1
 188 217 l 1,42,-1
 132 217 l 1,43,-1
 132 273 l 1,40,-1
198 273 m 1,44,-1
 254 273 l 1,45,-1
 254 217 l 1,46,-1
 198 217 l 1,47,-1
 198 273 l 1,44,-1
265 273 m 1,48,-1
 321 273 l 1,49,-1
 321 217 l 1,50,-1
 265 217 l 1,51,-1
 265 273 l 1,48,-1
331 273 m 1,52,-1
 387 273 l 1,53,-1
 387 217 l 1,54,-1
 331 217 l 1,55,-1
 331 273 l 1,52,-1
0 670 m 1,56,-1
 56 670 l 1,57,-1
 56 614 l 1,58,-1
 0 614 l 1,59,-1
 0 670 l 1,56,-1
66 670 m 1,60,-1
 122 670 l 1,61,-1
 122 614 l 1,62,-1
 66 614 l 1,63,-1
 66 670 l 1,60,-1
132 670 m 1,64,-1
 188 670 l 1,65,-1
 188 614 l 1,66,-1
 132 614 l 1,67,-1
 132 670 l 1,64,-1
198 670 m 1,68,-1
 254 670 l 1,69,-1
 254 614 l 1,70,-1
 198 614 l 1,71,-1
 198 670 l 1,68,-1
265 670 m 1,72,-1
 321 670 l 1,73,-1
 321 614 l 1,74,-1
 265 614 l 1,75,-1
 265 670 l 1,72,-1
331 670 m 1,76,-1
 387 670 l 1,77,-1
 387 614 l 1,78,-1
 331 614 l 1,79,-1
 331 670 l 1,76,-1
0 604 m 1,80,-1
 56 604 l 1,81,-1
 56 548 l 1,82,-1
 0 548 l 1,83,-1
 0 604 l 1,80,-1
66 604 m 1,84,-1
 122 604 l 1,85,-1
 122 548 l 1,86,-1
 66 548 l 1,87,-1
 66 604 l 1,84,-1
331 604 m 1,88,-1
 387 604 l 1,89,-1
 387 548 l 1,90,-1
 331 548 l 1,91,-1
 331 604 l 1,88,-1
397 604 m 1,92,-1
 453 604 l 1,93,-1
 453 548 l 1,94,-1
 397 548 l 1,95,-1
 397 604 l 1,92,-1
0 538 m 1,96,-1
 56 538 l 1,97,-1
 56 482 l 1,98,-1
 0 482 l 1,99,-1
 0 538 l 1,96,-1
66 538 m 1,100,-1
 122 538 l 1,101,-1
 122 482 l 1,102,-1
 66 482 l 1,103,-1
 66 538 l 1,100,-1
331 538 m 1,104,-1
 387 538 l 1,105,-1
 387 482 l 1,106,-1
 331 482 l 1,107,-1
 331 538 l 1,104,-1
397 538 m 1,108,-1
 453 538 l 1,109,-1
 453 482 l 1,110,-1
 397 482 l 1,111,-1
 397 538 l 1,108,-1
0 472 m 1,112,-1
 56 472 l 1,113,-1
 56 416 l 1,114,-1
 0 416 l 1,115,-1
 0 472 l 1,112,-1
66 472 m 1,116,-1
 122 472 l 1,117,-1
 122 416 l 1,118,-1
 66 416 l 1,119,-1
 66 472 l 1,116,-1
331 472 m 1,120,-1
 387 472 l 1,121,-1
 387 416 l 1,122,-1
 331 416 l 1,123,-1
 331 472 l 1,120,-1
397 472 m 1,124,-1
 453 472 l 1,125,-1
 453 416 l 1,126,-1
 397 416 l 1,127,-1
 397 472 l 1,124,-1
EndSplineSet
Validated: 1
EndChar

StartChar: E
Encoding: 69 69 40
Width: 520
Flags: W
LayerCount: 2
Fore
SplineSet
0 405 m 1,0,-1
 56 405 l 1,1,-1
 56 349 l 1,2,-1
 0 349 l 1,3,-1
 0 405 l 1,0,-1
66 405 m 1,4,-1
 122 405 l 1,5,-1
 122 349 l 1,6,-1
 66 349 l 1,7,-1
 66 405 l 1,4,-1
0 339 m 1,8,-1
 56 339 l 1,9,-1
 56 283 l 1,10,-1
 0 283 l 1,11,-1
 0 339 l 1,8,-1
66 339 m 1,12,-1
 122 339 l 1,13,-1
 122 283 l 1,14,-1
 66 283 l 1,15,-1
 66 339 l 1,12,-1
0 273 m 1,16,-1
 56 273 l 1,17,-1
 56 217 l 1,18,-1
 0 217 l 1,19,-1
 0 273 l 1,16,-1
66 273 m 1,20,-1
 122 273 l 1,21,-1
 122 217 l 1,22,-1
 66 217 l 1,23,-1
 66 273 l 1,20,-1
132 273 m 1,24,-1
 188 273 l 1,25,-1
 188 217 l 1,26,-1
 132 217 l 1,27,-1
 132 273 l 1,24,-1
198 273 m 1,28,-1
 254 273 l 1,29,-1
 254 217 l 1,30,-1
 198 217 l 1,31,-1
 198 273 l 1,28,-1
265 273 m 1,32,-1
 321 273 l 1,33,-1
 321 217 l 1,34,-1
 265 217 l 1,35,-1
 265 273 l 1,32,-1
331 273 m 1,36,-1
 387 273 l 1,37,-1
 387 217 l 1,38,-1
 331 217 l 1,39,-1
 331 273 l 1,36,-1
397 273 m 1,40,-1
 453 273 l 1,41,-1
 453 217 l 1,42,-1
 397 217 l 1,43,-1
 397 273 l 1,40,-1
0 670 m 1,44,-1
 56 670 l 1,45,-1
 56 614 l 1,46,-1
 0 614 l 1,47,-1
 0 670 l 1,44,-1
66 670 m 1,48,-1
 122 670 l 1,49,-1
 122 614 l 1,50,-1
 66 614 l 1,51,-1
 66 670 l 1,48,-1
132 670 m 1,52,-1
 188 670 l 1,53,-1
 188 614 l 1,54,-1
 132 614 l 1,55,-1
 132 670 l 1,52,-1
198 670 m 1,56,-1
 254 670 l 1,57,-1
 254 614 l 1,58,-1
 198 614 l 1,59,-1
 198 670 l 1,56,-1
265 670 m 1,60,-1
 321 670 l 1,61,-1
 321 614 l 1,62,-1
 265 614 l 1,63,-1
 265 670 l 1,60,-1
331 670 m 1,64,-1
 387 670 l 1,65,-1
 387 614 l 1,66,-1
 331 614 l 1,67,-1
 331 670 l 1,64,-1
397 670 m 1,68,-1
 453 670 l 1,69,-1
 453 614 l 1,70,-1
 397 614 l 1,71,-1
 397 670 l 1,68,-1
0 604 m 1,72,-1
 56 604 l 1,73,-1
 56 548 l 1,74,-1
 0 548 l 1,75,-1
 0 604 l 1,72,-1
66 604 m 1,76,-1
 122 604 l 1,77,-1
 122 548 l 1,78,-1
 66 548 l 1,79,-1
 66 604 l 1,76,-1
0 538 m 1,80,-1
 56 538 l 1,81,-1
 56 482 l 1,82,-1
 0 482 l 1,83,-1
 0 538 l 1,80,-1
66 538 m 1,84,-1
 122 538 l 1,85,-1
 122 482 l 1,86,-1
 66 482 l 1,87,-1
 66 538 l 1,84,-1
0 472 m 1,88,-1
 56 472 l 1,89,-1
 56 416 l 1,90,-1
 0 416 l 1,91,-1
 0 472 l 1,88,-1
66 472 m 1,92,-1
 122 472 l 1,93,-1
 122 416 l 1,94,-1
 66 416 l 1,95,-1
 66 472 l 1,92,-1
132 472 m 1,96,-1
 188 472 l 1,97,-1
 188 416 l 1,98,-1
 132 416 l 1,99,-1
 132 472 l 1,96,-1
198 472 m 1,100,-1
 254 472 l 1,101,-1
 254 416 l 1,102,-1
 198 416 l 1,103,-1
 198 472 l 1,100,-1
265 472 m 1,104,-1
 321 472 l 1,105,-1
 321 416 l 1,106,-1
 265 416 l 1,107,-1
 265 472 l 1,104,-1
331 472 m 1,108,-1
 387 472 l 1,109,-1
 387 416 l 1,110,-1
 331 416 l 1,111,-1
 331 472 l 1,108,-1
EndSplineSet
Validated: 1
EndChar

StartChar: F
Encoding: 70 70 41
Width: 520
Flags: W
LayerCount: 2
Fore
SplineSet
0 405 m 1,0,-1
 56 405 l 1,1,-1
 56 349 l 1,2,-1
 0 349 l 1,3,-1
 0 405 l 1,0,-1
66 405 m 1,4,-1
 122 405 l 1,5,-1
 122 349 l 1,6,-1
 66 349 l 1,7,-1
 66 405 l 1,4,-1
0 339 m 1,8,-1
 56 339 l 1,9,-1
 56 283 l 1,10,-1
 0 283 l 1,11,-1
 0 339 l 1,8,-1
66 339 m 1,12,-1
 122 339 l 1,13,-1
 122 283 l 1,14,-1
 66 283 l 1,15,-1
 66 339 l 1,12,-1
0 273 m 1,16,-1
 56 273 l 1,17,-1
 56 217 l 1,18,-1
 0 217 l 1,19,-1
 0 273 l 1,16,-1
66 273 m 1,20,-1
 122 273 l 1,21,-1
 122 217 l 1,22,-1
 66 217 l 1,23,-1
 66 273 l 1,20,-1
0 670 m 1,24,-1
 56 670 l 1,25,-1
 56 614 l 1,26,-1
 0 614 l 1,27,-1
 0 670 l 1,24,-1
66 670 m 1,28,-1
 122 670 l 1,29,-1
 122 614 l 1,30,-1
 66 614 l 1,31,-1
 66 670 l 1,28,-1
132 670 m 1,32,-1
 188 670 l 1,33,-1
 188 614 l 1,34,-1
 132 614 l 1,35,-1
 132 670 l 1,32,-1
198 670 m 1,36,-1
 254 670 l 1,37,-1
 254 614 l 1,38,-1
 198 614 l 1,39,-1
 198 670 l 1,36,-1
265 670 m 1,40,-1
 321 670 l 1,41,-1
 321 614 l 1,42,-1
 265 614 l 1,43,-1
 265 670 l 1,40,-1
331 670 m 1,44,-1
 387 670 l 1,45,-1
 387 614 l 1,46,-1
 331 614 l 1,47,-1
 331 670 l 1,44,-1
397 670 m 1,48,-1
 453 670 l 1,49,-1
 453 614 l 1,50,-1
 397 614 l 1,51,-1
 397 670 l 1,48,-1
0 604 m 1,52,-1
 56 604 l 1,53,-1
 56 548 l 1,54,-1
 0 548 l 1,55,-1
 0 604 l 1,52,-1
66 604 m 1,56,-1
 122 604 l 1,57,-1
 122 548 l 1,58,-1
 66 548 l 1,59,-1
 66 604 l 1,56,-1
0 538 m 1,60,-1
 56 538 l 1,61,-1
 56 482 l 1,62,-1
 0 482 l 1,63,-1
 0 538 l 1,60,-1
66 538 m 1,64,-1
 122 538 l 1,65,-1
 122 482 l 1,66,-1
 66 482 l 1,67,-1
 66 538 l 1,64,-1
0 472 m 1,68,-1
 56 472 l 1,69,-1
 56 416 l 1,70,-1
 0 416 l 1,71,-1
 0 472 l 1,68,-1
66 472 m 1,72,-1
 122 472 l 1,73,-1
 122 416 l 1,74,-1
 66 416 l 1,75,-1
 66 472 l 1,72,-1
132 472 m 1,76,-1
 188 472 l 1,77,-1
 188 416 l 1,78,-1
 132 416 l 1,79,-1
 132 472 l 1,76,-1
198 472 m 1,80,-1
 254 472 l 1,81,-1
 254 416 l 1,82,-1
 198 416 l 1,83,-1
 198 472 l 1,80,-1
265 472 m 1,84,-1
 321 472 l 1,85,-1
 321 416 l 1,86,-1
 265 416 l 1,87,-1
 265 472 l 1,84,-1
331 472 m 1,88,-1
 387 472 l 1,89,-1
 387 416 l 1,90,-1
 331 416 l 1,91,-1
 331 472 l 1,88,-1
EndSplineSet
Validated: 1
EndChar

StartChar: G
Encoding: 71 71 42
Width: 520
Flags: W
LayerCount: 2
Fore
SplineSet
0 405 m 1,0,-1
 56 405 l 1,1,-1
 56 349 l 1,2,-1
 0 349 l 1,3,-1
 0 405 l 1,0,-1
66 405 m 1,4,-1
 122 405 l 1,5,-1
 122 349 l 1,6,-1
 66 349 l 1,7,-1
 66 405 l 1,4,-1
331 405 m 1,8,-1
 387 405 l 1,9,-1
 387 349 l 1,10,-1
 331 349 l 1,11,-1
 331 405 l 1,8,-1
397 405 m 1,12,-1
 453 405 l 1,13,-1
 453 349 l 1,14,-1
 397 349 l 1,15,-1
 397 405 l 1,12,-1
0 339 m 1,16,-1
 56 339 l 1,17,-1
 56 283 l 1,18,-1
 0 283 l 1,19,-1
 0 339 l 1,16,-1
66 339 m 1,20,-1
 122 339 l 1,21,-1
 122 283 l 1,22,-1
 66 283 l 1,23,-1
 66 339 l 1,20,-1
331 339 m 1,24,-1
 387 339 l 1,25,-1
 387 283 l 1,26,-1
 331 283 l 1,27,-1
 331 339 l 1,24,-1
397 339 m 1,28,-1
 453 339 l 1,29,-1
 453 283 l 1,30,-1
 397 283 l 1,31,-1
 397 339 l 1,28,-1
66 273 m 1,32,-1
 122 273 l 1,33,-1
 122 217 l 1,34,-1
 66 217 l 1,35,-1
 66 273 l 1,32,-1
132 273 m 1,36,-1
 188 273 l 1,37,-1
 188 217 l 1,38,-1
 132 217 l 1,39,-1
 132 273 l 1,36,-1
198 273 m 1,40,-1
 254 273 l 1,41,-1
 254 217 l 1,42,-1
 198 217 l 1,43,-1
 198 273 l 1,40,-1
265 273 m 1,44,-1
 321 273 l 1,45,-1
 321 217 l 1,46,-1
 265 217 l 1,47,-1
 265 273 l 1,44,-1
331 273 m 1,48,-1
 387 273 l 1,49,-1
 387 217 l 1,50,-1
 331 217 l 1,51,-1
 331 273 l 1,48,-1
66 670 m 1,52,-1
 122 670 l 1,53,-1
 122 614 l 1,54,-1
 66 614 l 1,55,-1
 66 670 l 1,52,-1
132 670 m 1,56,-1
 188 670 l 1,57,-1
 188 614 l 1,58,-1
 132 614 l 1,59,-1
 132 670 l 1,56,-1
198 670 m 1,60,-1
 254 670 l 1,61,-1
 254 614 l 1,62,-1
 198 614 l 1,63,-1
 198 670 l 1,60,-1
265 670 m 1,64,-1
 321 670 l 1,65,-1
 321 614 l 1,66,-1
 265 614 l 1,67,-1
 265 670 l 1,64,-1
331 670 m 1,68,-1
 387 670 l 1,69,-1
 387 614 l 1,70,-1
 331 614 l 1,71,-1
 331 670 l 1,68,-1
0 604 m 1,72,-1
 56 604 l 1,73,-1
 56 548 l 1,74,-1
 0 548 l 1,75,-1
 0 604 l 1,72,-1
66 604 m 1,76,-1
 122 604 l 1,77,-1
 122 548 l 1,78,-1
 66 548 l 1,79,-1
 66 604 l 1,76,-1
331 604 m 1,80,-1
 387 604 l 1,81,-1
 387 548 l 1,82,-1
 331 548 l 1,83,-1
 331 604 l 1,80,-1
397 604 m 1,84,-1
 453 604 l 1,85,-1
 453 548 l 1,86,-1
 397 548 l 1,87,-1
 397 604 l 1,84,-1
0 538 m 1,88,-1
 56 538 l 1,89,-1
 56 482 l 1,90,-1
 0 482 l 1,91,-1
 0 538 l 1,88,-1
66 538 m 1,92,-1
 122 538 l 1,93,-1
 122 482 l 1,94,-1
 66 482 l 1,95,-1
 66 538 l 1,92,-1
0 472 m 1,96,-1
 56 472 l 1,97,-1
 56 416 l 1,98,-1
 0 416 l 1,99,-1
 0 472 l 1,96,-1
66 472 m 1,100,-1
 122 472 l 1,101,-1
 122 416 l 1,102,-1
 66 416 l 1,103,-1
 66 472 l 1,100,-1
265 472 m 1,104,-1
 321 472 l 1,105,-1
 321 416 l 1,106,-1
 265 416 l 1,107,-1
 265 472 l 1,104,-1
331 472 m 1,108,-1
 387 472 l 1,109,-1
 387 416 l 1,110,-1
 331 416 l 1,111,-1
 331 472 l 1,108,-1
397 472 m 1,112,-1
 453 472 l 1,113,-1
 453 416 l 1,114,-1
 397 416 l 1,115,-1
 397 472 l 1,112,-1
EndSplineSet
Validated: 1
EndChar

StartChar: H
Encoding: 72 72 43
Width: 520
Flags: W
LayerCount: 2
Fore
SplineSet
0 405 m 1,0,-1
 56 405 l 1,1,-1
 56 349 l 1,2,-1
 0 349 l 1,3,-1
 0 405 l 1,0,-1
66 405 m 1,4,-1
 122 405 l 1,5,-1
 122 349 l 1,6,-1
 66 349 l 1,7,-1
 66 405 l 1,4,-1
331 405 m 1,8,-1
 387 405 l 1,9,-1
 387 349 l 1,10,-1
 331 349 l 1,11,-1
 331 405 l 1,8,-1
397 405 m 1,12,-1
 453 405 l 1,13,-1
 453 349 l 1,14,-1
 397 349 l 1,15,-1
 397 405 l 1,12,-1
0 339 m 1,16,-1
 56 339 l 1,17,-1
 56 283 l 1,18,-1
 0 283 l 1,19,-1
 0 339 l 1,16,-1
66 339 m 1,20,-1
 122 339 l 1,21,-1
 122 283 l 1,22,-1
 66 283 l 1,23,-1
 66 339 l 1,20,-1
331 339 m 1,24,-1
 387 339 l 1,25,-1
 387 283 l 1,26,-1
 331 283 l 1,27,-1
 331 339 l 1,24,-1
397 339 m 1,28,-1
 453 339 l 1,29,-1
 453 283 l 1,30,-1
 397 283 l 1,31,-1
 397 339 l 1,28,-1
0 273 m 1,32,-1
 56 273 l 1,33,-1
 56 217 l 1,34,-1
 0 217 l 1,35,-1
 0 273 l 1,32,-1
66 273 m 1,36,-1
 122 273 l 1,37,-1
 122 217 l 1,38,-1
 66 217 l 1,39,-1
 66 273 l 1,36,-1
331 273 m 1,40,-1
 387 273 l 1,41,-1
 387 217 l 1,42,-1
 331 217 l 1,43,-1
 331 273 l 1,40,-1
397 273 m 1,44,-1
 453 273 l 1,45,-1
 453 217 l 1,46,-1
 397 217 l 1,47,-1
 397 273 l 1,44,-1
0 670 m 1,48,-1
 56 670 l 1,49,-1
 56 614 l 1,50,-1
 0 614 l 1,51,-1
 0 670 l 1,48,-1
66 670 m 1,52,-1
 122 670 l 1,53,-1
 122 614 l 1,54,-1
 66 614 l 1,55,-1
 66 670 l 1,52,-1
331 670 m 1,56,-1
 387 670 l 1,57,-1
 387 614 l 1,58,-1
 331 614 l 1,59,-1
 331 670 l 1,56,-1
397 670 m 1,60,-1
 453 670 l 1,61,-1
 453 614 l 1,62,-1
 397 614 l 1,63,-1
 397 670 l 1,60,-1
0 604 m 1,64,-1
 56 604 l 1,65,-1
 56 548 l 1,66,-1
 0 548 l 1,67,-1
 0 604 l 1,64,-1
66 604 m 1,68,-1
 122 604 l 1,69,-1
 122 548 l 1,70,-1
 66 548 l 1,71,-1
 66 604 l 1,68,-1
331 604 m 1,72,-1
 387 604 l 1,73,-1
 387 548 l 1,74,-1
 331 548 l 1,75,-1
 331 604 l 1,72,-1
397 604 m 1,76,-1
 453 604 l 1,77,-1
 453 548 l 1,78,-1
 397 548 l 1,79,-1
 397 604 l 1,76,-1
0 538 m 1,80,-1
 56 538 l 1,81,-1
 56 482 l 1,82,-1
 0 482 l 1,83,-1
 0 538 l 1,80,-1
66 538 m 1,84,-1
 122 538 l 1,85,-1
 122 482 l 1,86,-1
 66 482 l 1,87,-1
 66 538 l 1,84,-1
331 538 m 1,88,-1
 387 538 l 1,89,-1
 387 482 l 1,90,-1
 331 482 l 1,91,-1
 331 538 l 1,88,-1
397 538 m 1,92,-1
 453 538 l 1,93,-1
 453 482 l 1,94,-1
 397 482 l 1,95,-1
 397 538 l 1,92,-1
0 472 m 1,96,-1
 56 472 l 1,97,-1
 56 416 l 1,98,-1
 0 416 l 1,99,-1
 0 472 l 1,96,-1
66 472 m 1,100,-1
 122 472 l 1,101,-1
 122 416 l 1,102,-1
 66 416 l 1,103,-1
 66 472 l 1,100,-1
132 472 m 1,104,-1
 188 472 l 1,105,-1
 188 416 l 1,106,-1
 132 416 l 1,107,-1
 132 472 l 1,104,-1
198 472 m 1,108,-1
 254 472 l 1,109,-1
 254 416 l 1,110,-1
 198 416 l 1,111,-1
 198 472 l 1,108,-1
265 472 m 1,112,-1
 321 472 l 1,113,-1
 321 416 l 1,114,-1
 265 416 l 1,115,-1
 265 472 l 1,112,-1
331 472 m 1,116,-1
 387 472 l 1,117,-1
 387 416 l 1,118,-1
 331 416 l 1,119,-1
 331 472 l 1,116,-1
397 472 m 1,120,-1
 453 472 l 1,121,-1
 453 416 l 1,122,-1
 397 416 l 1,123,-1
 397 472 l 1,120,-1
EndSplineSet
Validated: 1
EndChar

StartChar: I
Encoding: 73 73 44
Width: 520
Flags: W
LayerCount: 2
Fore
SplineSet
132 405 m 1,0,-1
 188 405 l 1,1,-1
 188 349 l 1,2,-1
 132 349 l 1,3,-1
 132 405 l 1,0,-1
198 405 m 1,4,-1
 254 405 l 1,5,-1
 254 349 l 1,6,-1
 198 349 l 1,7,-1
 198 405 l 1,4,-1
132 339 m 1,8,-1
 188 339 l 1,9,-1
 188 283 l 1,10,-1
 132 283 l 1,11,-1
 132 339 l 1,8,-1
198 339 m 1,12,-1
 254 339 l 1,13,-1
 254 283 l 1,14,-1
 198 283 l 1,15,-1
 198 339 l 1,12,-1
0 273 m 1,16,-1
 56 273 l 1,17,-1
 56 217 l 1,18,-1
 0 217 l 1,19,-1
 0 273 l 1,16,-1
66 273 m 1,20,-1
 122 273 l 1,21,-1
 122 217 l 1,22,-1
 66 217 l 1,23,-1
 66 273 l 1,20,-1
132 273 m 1,24,-1
 188 273 l 1,25,-1
 188 217 l 1,26,-1
 132 217 l 1,27,-1
 132 273 l 1,24,-1
198 273 m 1,28,-1
 254 273 l 1,29,-1
 254 217 l 1,30,-1
 198 217 l 1,31,-1
 198 273 l 1,28,-1
265 273 m 1,32,-1
 321 273 l 1,33,-1
 321 217 l 1,34,-1
 265 217 l 1,35,-1
 265 273 l 1,32,-1
331 273 m 1,36,-1
 387 273 l 1,37,-1
 387 217 l 1,38,-1
 331 217 l 1,39,-1
 331 273 l 1,36,-1
0 670 m 1,40,-1
 56 670 l 1,41,-1
 56 614 l 1,42,-1
 0 614 l 1,43,-1
 0 670 l 1,40,-1
66 670 m 1,44,-1
 122 670 l 1,45,-1
 122 614 l 1,46,-1
 66 614 l 1,47,-1
 66 670 l 1,44,-1
132 670 m 1,48,-1
 188 670 l 1,49,-1
 188 614 l 1,50,-1
 132 614 l 1,51,-1
 132 670 l 1,48,-1
198 670 m 1,52,-1
 254 670 l 1,53,-1
 254 614 l 1,54,-1
 198 614 l 1,55,-1
 198 670 l 1,52,-1
265 670 m 1,56,-1
 321 670 l 1,57,-1
 321 614 l 1,58,-1
 265 614 l 1,59,-1
 265 670 l 1,56,-1
331 670 m 1,60,-1
 387 670 l 1,61,-1
 387 614 l 1,62,-1
 331 614 l 1,63,-1
 331 670 l 1,60,-1
132 604 m 1,64,-1
 188 604 l 1,65,-1
 188 548 l 1,66,-1
 132 548 l 1,67,-1
 132 604 l 1,64,-1
198 604 m 1,68,-1
 254 604 l 1,69,-1
 254 548 l 1,70,-1
 198 548 l 1,71,-1
 198 604 l 1,68,-1
132 538 m 1,72,-1
 188 538 l 1,73,-1
 188 482 l 1,74,-1
 132 482 l 1,75,-1
 132 538 l 1,72,-1
198 538 m 1,76,-1
 254 538 l 1,77,-1
 254 482 l 1,78,-1
 198 482 l 1,79,-1
 198 538 l 1,76,-1
132 472 m 1,80,-1
 188 472 l 1,81,-1
 188 416 l 1,82,-1
 132 416 l 1,83,-1
 132 472 l 1,80,-1
198 472 m 1,84,-1
 254 472 l 1,85,-1
 254 416 l 1,86,-1
 198 416 l 1,87,-1
 198 472 l 1,84,-1
EndSplineSet
Validated: 1
EndChar

StartChar: J
Encoding: 74 74 45
Width: 520
Flags: W
LayerCount: 2
Fore
SplineSet
265 405 m 1,0,-1
 321 405 l 1,1,-1
 321 349 l 1,2,-1
 265 349 l 1,3,-1
 265 405 l 1,0,-1
331 405 m 1,4,-1
 387 405 l 1,5,-1
 387 349 l 1,6,-1
 331 349 l 1,7,-1
 331 405 l 1,4,-1
0 339 m 1,8,-1
 56 339 l 1,9,-1
 56 283 l 1,10,-1
 0 283 l 1,11,-1
 0 339 l 1,8,-1
66 339 m 1,12,-1
 122 339 l 1,13,-1
 122 283 l 1,14,-1
 66 283 l 1,15,-1
 66 339 l 1,12,-1
265 339 m 1,16,-1
 321 339 l 1,17,-1
 321 283 l 1,18,-1
 265 283 l 1,19,-1
 265 339 l 1,16,-1
331 339 m 1,20,-1
 387 339 l 1,21,-1
 387 283 l 1,22,-1
 331 283 l 1,23,-1
 331 339 l 1,20,-1
66 273 m 1,24,-1
 122 273 l 1,25,-1
 122 217 l 1,26,-1
 66 217 l 1,27,-1
 66 273 l 1,24,-1
132 273 m 1,28,-1
 188 273 l 1,29,-1
 188 217 l 1,30,-1
 132 217 l 1,31,-1
 132 273 l 1,28,-1
198 273 m 1,32,-1
 254 273 l 1,33,-1
 254 217 l 1,34,-1
 198 217 l 1,35,-1
 198 273 l 1,32,-1
265 273 m 1,36,-1
 321 273 l 1,37,-1
 321 217 l 1,38,-1
 265 217 l 1,39,-1
 265 273 l 1,36,-1
132 670 m 1,40,-1
 188 670 l 1,41,-1
 188 614 l 1,42,-1
 132 614 l 1,43,-1
 132 670 l 1,40,-1
198 670 m 1,44,-1
 254 670 l 1,45,-1
 254 614 l 1,46,-1
 198 614 l 1,47,-1
 198 670 l 1,44,-1
265 670 m 1,48,-1
 321 670 l 1,49,-1
 321 614 l 1,50,-1
 265 614 l 1,51,-1
 265 670 l 1,48,-1
331 670 m 1,52,-1
 387 670 l 1,53,-1
 387 614 l 1,54,-1
 331 614 l 1,55,-1
 331 670 l 1,52,-1
397 670 m 1,56,-1
 453 670 l 1,57,-1
 453 614 l 1,58,-1
 397 614 l 1,59,-1
 397 670 l 1,56,-1
265 604 m 1,60,-1
 321 604 l 1,61,-1
 321 548 l 1,62,-1
 265 548 l 1,63,-1
 265 604 l 1,60,-1
331 604 m 1,64,-1
 387 604 l 1,65,-1
 387 548 l 1,66,-1
 331 548 l 1,67,-1
 331 604 l 1,64,-1
265 538 m 1,68,-1
 321 538 l 1,69,-1
 321 482 l 1,70,-1
 265 482 l 1,71,-1
 265 538 l 1,68,-1
331 538 m 1,72,-1
 387 538 l 1,73,-1
 387 482 l 1,74,-1
 331 482 l 1,75,-1
 331 538 l 1,72,-1
265 472 m 1,76,-1
 321 472 l 1,77,-1
 321 416 l 1,78,-1
 265 416 l 1,79,-1
 265 472 l 1,76,-1
331 472 m 1,80,-1
 387 472 l 1,81,-1
 387 416 l 1,82,-1
 331 416 l 1,83,-1
 331 472 l 1,80,-1
EndSplineSet
Validated: 1
EndChar

StartChar: K
Encoding: 75 75 46
Width: 520
Flags: W
LayerCount: 2
Fore
SplineSet
0 405 m 1,0,-1
 56 405 l 1,1,-1
 56 349 l 1,2,-1
 0 349 l 1,3,-1
 0 405 l 1,0,-1
66 405 m 1,4,-1
 122 405 l 1,5,-1
 122 349 l 1,6,-1
 66 349 l 1,7,-1
 66 405 l 1,4,-1
132 405 m 1,8,-1
 188 405 l 1,9,-1
 188 349 l 1,10,-1
 132 349 l 1,11,-1
 132 405 l 1,8,-1
198 405 m 1,12,-1
 254 405 l 1,13,-1
 254 349 l 1,14,-1
 198 349 l 1,15,-1
 198 405 l 1,12,-1
265 405 m 1,16,-1
 321 405 l 1,17,-1
 321 349 l 1,18,-1
 265 349 l 1,19,-1
 265 405 l 1,16,-1
0 339 m 1,20,-1
 56 339 l 1,21,-1
 56 283 l 1,22,-1
 0 283 l 1,23,-1
 0 339 l 1,20,-1
66 339 m 1,24,-1
 122 339 l 1,25,-1
 122 283 l 1,26,-1
 66 283 l 1,27,-1
 66 339 l 1,24,-1
198 339 m 1,28,-1
 254 339 l 1,29,-1
 254 283 l 1,30,-1
 198 283 l 1,31,-1
 198 339 l 1,28,-1
265 339 m 1,32,-1
 321 339 l 1,33,-1
 321 283 l 1,34,-1
 265 283 l 1,35,-1
 265 339 l 1,32,-1
331 339 m 1,36,-1
 387 339 l 1,37,-1
 387 283 l 1,38,-1
 331 283 l 1,39,-1
 331 339 l 1,36,-1
0 273 m 1,40,-1
 56 273 l 1,41,-1
 56 217 l 1,42,-1
 0 217 l 1,43,-1
 0 273 l 1,40,-1
66 273 m 1,44,-1
 122 273 l 1,45,-1
 122 217 l 1,46,-1
 66 217 l 1,47,-1
 66 273 l 1,44,-1
331 273 m 1,48,-1
 387 273 l 1,49,-1
 387 217 l 1,50,-1
 331 217 l 1,51,-1
 331 273 l 1,48,-1
397 273 m 1,52,-1
 453 273 l 1,53,-1
 453 217 l 1,54,-1
 397 217 l 1,55,-1
 397 273 l 1,52,-1
0 670 m 1,56,-1
 56 670 l 1,57,-1
 56 614 l 1,58,-1
 0 614 l 1,59,-1
 0 670 l 1,56,-1
66 670 m 1,60,-1
 122 670 l 1,61,-1
 122 614 l 1,62,-1
 66 614 l 1,63,-1
 66 670 l 1,60,-1
331 670 m 1,64,-1
 387 670 l 1,65,-1
 387 614 l 1,66,-1
 331 614 l 1,67,-1
 331 670 l 1,64,-1
397 670 m 1,68,-1
 453 670 l 1,69,-1
 453 614 l 1,70,-1
 397 614 l 1,71,-1
 397 670 l 1,68,-1
0 604 m 1,72,-1
 56 604 l 1,73,-1
 56 548 l 1,74,-1
 0 548 l 1,75,-1
 0 604 l 1,72,-1
66 604 m 1,76,-1
 122 604 l 1,77,-1
 122 548 l 1,78,-1
 66 548 l 1,79,-1
 66 604 l 1,76,-1
265 604 m 1,80,-1
 321 604 l 1,81,-1
 321 548 l 1,82,-1
 265 548 l 1,83,-1
 265 604 l 1,80,-1
331 604 m 1,84,-1
 387 604 l 1,85,-1
 387 548 l 1,86,-1
 331 548 l 1,87,-1
 331 604 l 1,84,-1
0 538 m 1,88,-1
 56 538 l 1,89,-1
 56 482 l 1,90,-1
 0 482 l 1,91,-1
 0 538 l 1,88,-1
66 538 m 1,92,-1
 122 538 l 1,93,-1
 122 482 l 1,94,-1
 66 482 l 1,95,-1
 66 538 l 1,92,-1
198 538 m 1,96,-1
 254 538 l 1,97,-1
 254 482 l 1,98,-1
 198 482 l 1,99,-1
 198 538 l 1,96,-1
265 538 m 1,100,-1
 321 538 l 1,101,-1
 321 482 l 1,102,-1
 265 482 l 1,103,-1
 265 538 l 1,100,-1
0 472 m 1,104,-1
 56 472 l 1,105,-1
 56 416 l 1,106,-1
 0 416 l 1,107,-1
 0 472 l 1,104,-1
66 472 m 1,108,-1
 122 472 l 1,109,-1
 122 416 l 1,110,-1
 66 416 l 1,111,-1
 66 472 l 1,108,-1
132 472 m 1,112,-1
 188 472 l 1,113,-1
 188 416 l 1,114,-1
 132 416 l 1,115,-1
 132 472 l 1,112,-1
198 472 m 1,116,-1
 254 472 l 1,117,-1
 254 416 l 1,118,-1
 198 416 l 1,119,-1
 198 472 l 1,116,-1
EndSplineSet
Validated: 1
EndChar

StartChar: L
Encoding: 76 76 47
Width: 520
Flags: W
LayerCount: 2
Fore
SplineSet
0 405 m 1,0,-1
 56 405 l 1,1,-1
 56 349 l 1,2,-1
 0 349 l 1,3,-1
 0 405 l 1,0,-1
66 405 m 1,4,-1
 122 405 l 1,5,-1
 122 349 l 1,6,-1
 66 349 l 1,7,-1
 66 405 l 1,4,-1
0 339 m 1,8,-1
 56 339 l 1,9,-1
 56 283 l 1,10,-1
 0 283 l 1,11,-1
 0 339 l 1,8,-1
66 339 m 1,12,-1
 122 339 l 1,13,-1
 122 283 l 1,14,-1
 66 283 l 1,15,-1
 66 339 l 1,12,-1
0 273 m 1,16,-1
 56 273 l 1,17,-1
 56 217 l 1,18,-1
 0 217 l 1,19,-1
 0 273 l 1,16,-1
66 273 m 1,20,-1
 122 273 l 1,21,-1
 122 217 l 1,22,-1
 66 217 l 1,23,-1
 66 273 l 1,20,-1
132 273 m 1,24,-1
 188 273 l 1,25,-1
 188 217 l 1,26,-1
 132 217 l 1,27,-1
 132 273 l 1,24,-1
198 273 m 1,28,-1
 254 273 l 1,29,-1
 254 217 l 1,30,-1
 198 217 l 1,31,-1
 198 273 l 1,28,-1
265 273 m 1,32,-1
 321 273 l 1,33,-1
 321 217 l 1,34,-1
 265 217 l 1,35,-1
 265 273 l 1,32,-1
331 273 m 1,36,-1
 387 273 l 1,37,-1
 387 217 l 1,38,-1
 331 217 l 1,39,-1
 331 273 l 1,36,-1
397 273 m 1,40,-1
 453 273 l 1,41,-1
 453 217 l 1,42,-1
 397 217 l 1,43,-1
 397 273 l 1,40,-1
0 670 m 1,44,-1
 56 670 l 1,45,-1
 56 614 l 1,46,-1
 0 614 l 1,47,-1
 0 670 l 1,44,-1
66 670 m 1,48,-1
 122 670 l 1,49,-1
 122 614 l 1,50,-1
 66 614 l 1,51,-1
 66 670 l 1,48,-1
0 604 m 1,52,-1
 56 604 l 1,53,-1
 56 548 l 1,54,-1
 0 548 l 1,55,-1
 0 604 l 1,52,-1
66 604 m 1,56,-1
 122 604 l 1,57,-1
 122 548 l 1,58,-1
 66 548 l 1,59,-1
 66 604 l 1,56,-1
0 538 m 1,60,-1
 56 538 l 1,61,-1
 56 482 l 1,62,-1
 0 482 l 1,63,-1
 0 538 l 1,60,-1
66 538 m 1,64,-1
 122 538 l 1,65,-1
 122 482 l 1,66,-1
 66 482 l 1,67,-1
 66 538 l 1,64,-1
0 472 m 1,68,-1
 56 472 l 1,69,-1
 56 416 l 1,70,-1
 0 416 l 1,71,-1
 0 472 l 1,68,-1
66 472 m 1,72,-1
 122 472 l 1,73,-1
 122 416 l 1,74,-1
 66 416 l 1,75,-1
 66 472 l 1,72,-1
EndSplineSet
Validated: 1
EndChar

StartChar: M
Encoding: 77 77 48
Width: 520
Flags: W
LayerCount: 2
Fore
SplineSet
0 405 m 1,0,-1
 56 405 l 1,1,-1
 56 349 l 1,2,-1
 0 349 l 1,3,-1
 0 405 l 1,0,-1
66 405 m 1,4,-1
 122 405 l 1,5,-1
 122 349 l 1,6,-1
 66 349 l 1,7,-1
 66 405 l 1,4,-1
198 405 m 1,8,-1
 254 405 l 1,9,-1
 254 349 l 1,10,-1
 198 349 l 1,11,-1
 198 405 l 1,8,-1
331 405 m 1,12,-1
 387 405 l 1,13,-1
 387 349 l 1,14,-1
 331 349 l 1,15,-1
 331 405 l 1,12,-1
397 405 m 1,16,-1
 453 405 l 1,17,-1
 453 349 l 1,18,-1
 397 349 l 1,19,-1
 397 405 l 1,16,-1
0 339 m 1,20,-1
 56 339 l 1,21,-1
 56 283 l 1,22,-1
 0 283 l 1,23,-1
 0 339 l 1,20,-1
66 339 m 1,24,-1
 122 339 l 1,25,-1
 122 283 l 1,26,-1
 66 283 l 1,27,-1
 66 339 l 1,24,-1
331 339 m 1,28,-1
 387 339 l 1,29,-1
 387 283 l 1,30,-1
 331 283 l 1,31,-1
 331 339 l 1,28,-1
397 339 m 1,32,-1
 453 339 l 1,33,-1
 453 283 l 1,34,-1
 397 283 l 1,35,-1
 397 339 l 1,32,-1
0 273 m 1,36,-1
 56 273 l 1,37,-1
 56 217 l 1,38,-1
 0 217 l 1,39,-1
 0 273 l 1,36,-1
66 273 m 1,40,-1
 122 273 l 1,41,-1
 122 217 l 1,42,-1
 66 217 l 1,43,-1
 66 273 l 1,40,-1
331 273 m 1,44,-1
 387 273 l 1,45,-1
 387 217 l 1,46,-1
 331 217 l 1,47,-1
 331 273 l 1,44,-1
397 273 m 1,48,-1
 453 273 l 1,49,-1
 453 217 l 1,50,-1
 397 217 l 1,51,-1
 397 273 l 1,48,-1
0 670 m 1,52,-1
 56 670 l 1,53,-1
 56 614 l 1,54,-1
 0 614 l 1,55,-1
 0 670 l 1,52,-1
397 670 m 1,56,-1
 453 670 l 1,57,-1
 453 614 l 1,58,-1
 397 614 l 1,59,-1
 397 670 l 1,56,-1
0 604 m 1,60,-1
 56 604 l 1,61,-1
 56 548 l 1,62,-1
 0 548 l 1,63,-1
 0 604 l 1,60,-1
66 604 m 1,64,-1
 122 604 l 1,65,-1
 122 548 l 1,66,-1
 66 548 l 1,67,-1
 66 604 l 1,64,-1
331 604 m 1,68,-1
 387 604 l 1,69,-1
 387 548 l 1,70,-1
 331 548 l 1,71,-1
 331 604 l 1,68,-1
397 604 m 1,72,-1
 453 604 l 1,73,-1
 453 548 l 1,74,-1
 397 548 l 1,75,-1
 397 604 l 1,72,-1
0 538 m 1,76,-1
 56 538 l 1,77,-1
 56 482 l 1,78,-1
 0 482 l 1,79,-1
 0 538 l 1,76,-1
66 538 m 1,80,-1
 122 538 l 1,81,-1
 122 482 l 1,82,-1
 66 482 l 1,83,-1
 66 538 l 1,80,-1
132 538 m 1,84,-1
 188 538 l 1,85,-1
 188 482 l 1,86,-1
 132 482 l 1,87,-1
 132 538 l 1,84,-1
265 538 m 1,88,-1
 321 538 l 1,89,-1
 321 482 l 1,90,-1
 265 482 l 1,91,-1
 265 538 l 1,88,-1
331 538 m 1,92,-1
 387 538 l 1,93,-1
 387 482 l 1,94,-1
 331 482 l 1,95,-1
 331 538 l 1,92,-1
397 538 m 1,96,-1
 453 538 l 1,97,-1
 453 482 l 1,98,-1
 397 482 l 1,99,-1
 397 538 l 1,96,-1
0 472 m 1,100,-1
 56 472 l 1,101,-1
 56 416 l 1,102,-1
 0 416 l 1,103,-1
 0 472 l 1,100,-1
66 472 m 1,104,-1
 122 472 l 1,105,-1
 122 416 l 1,106,-1
 66 416 l 1,107,-1
 66 472 l 1,104,-1
132 472 m 1,108,-1
 188 472 l 1,109,-1
 188 416 l 1,110,-1
 132 416 l 1,111,-1
 132 472 l 1,108,-1
198 472 m 1,112,-1
 254 472 l 1,113,-1
 254 416 l 1,114,-1
 198 416 l 1,115,-1
 198 472 l 1,112,-1
265 472 m 1,116,-1
 321 472 l 1,117,-1
 321 416 l 1,118,-1
 265 416 l 1,119,-1
 265 472 l 1,116,-1
331 472 m 1,120,-1
 387 472 l 1,121,-1
 387 416 l 1,122,-1
 331 416 l 1,123,-1
 331 472 l 1,120,-1
397 472 m 1,124,-1
 453 472 l 1,125,-1
 453 416 l 1,126,-1
 397 416 l 1,127,-1
 397 472 l 1,124,-1
EndSplineSet
Validated: 1
EndChar

StartChar: N
Encoding: 78 78 49
Width: 520
Flags: W
LayerCount: 2
Fore
SplineSet
0 405 m 1,0,-1
 56 405 l 1,1,-1
 56 349 l 1,2,-1
 0 349 l 1,3,-1
 0 405 l 1,0,-1
66 405 m 1,4,-1
 122 405 l 1,5,-1
 122 349 l 1,6,-1
 66 349 l 1,7,-1
 66 405 l 1,4,-1
265 405 m 1,8,-1
 321 405 l 1,9,-1
 321 349 l 1,10,-1
 265 349 l 1,11,-1
 265 405 l 1,8,-1
331 405 m 1,12,-1
 387 405 l 1,13,-1
 387 349 l 1,14,-1
 331 349 l 1,15,-1
 331 405 l 1,12,-1
397 405 m 1,16,-1
 453 405 l 1,17,-1
 453 349 l 1,18,-1
 397 349 l 1,19,-1
 397 405 l 1,16,-1
0 339 m 1,20,-1
 56 339 l 1,21,-1
 56 283 l 1,22,-1
 0 283 l 1,23,-1
 0 339 l 1,20,-1
66 339 m 1,24,-1
 122 339 l 1,25,-1
 122 283 l 1,26,-1
 66 283 l 1,27,-1
 66 339 l 1,24,-1
331 339 m 1,28,-1
 387 339 l 1,29,-1
 387 283 l 1,30,-1
 331 283 l 1,31,-1
 331 339 l 1,28,-1
397 339 m 1,32,-1
 453 339 l 1,33,-1
 453 283 l 1,34,-1
 397 283 l 1,35,-1
 397 339 l 1,32,-1
0 273 m 1,36,-1
 56 273 l 1,37,-1
 56 217 l 1,38,-1
 0 217 l 1,39,-1
 0 273 l 1,36,-1
66 273 m 1,40,-1
 122 273 l 1,41,-1
 122 217 l 1,42,-1
 66 217 l 1,43,-1
 66 273 l 1,40,-1
331 273 m 1,44,-1
 387 273 l 1,45,-1
 387 217 l 1,46,-1
 331 217 l 1,47,-1
 331 273 l 1,44,-1
397 273 m 1,48,-1
 453 273 l 1,49,-1
 453 217 l 1,50,-1
 397 217 l 1,51,-1
 397 273 l 1,48,-1
0 670 m 1,52,-1
 56 670 l 1,53,-1
 56 614 l 1,54,-1
 0 614 l 1,55,-1
 0 670 l 1,52,-1
66 670 m 1,56,-1
 122 670 l 1,57,-1
 122 614 l 1,58,-1
 66 614 l 1,59,-1
 66 670 l 1,56,-1
331 670 m 1,60,-1
 387 670 l 1,61,-1
 387 614 l 1,62,-1
 331 614 l 1,63,-1
 331 670 l 1,60,-1
397 670 m 1,64,-1
 453 670 l 1,65,-1
 453 614 l 1,66,-1
 397 614 l 1,67,-1
 397 670 l 1,64,-1
0 604 m 1,68,-1
 56 604 l 1,69,-1
 56 548 l 1,70,-1
 0 548 l 1,71,-1
 0 604 l 1,68,-1
66 604 m 1,72,-1
 122 604 l 1,73,-1
 122 548 l 1,74,-1
 66 548 l 1,75,-1
 66 604 l 1,72,-1
132 604 m 1,76,-1
 188 604 l 1,77,-1
 188 548 l 1,78,-1
 132 548 l 1,79,-1
 132 604 l 1,76,-1
331 604 m 1,80,-1
 387 604 l 1,81,-1
 387 548 l 1,82,-1
 331 548 l 1,83,-1
 331 604 l 1,80,-1
397 604 m 1,84,-1
 453 604 l 1,85,-1
 453 548 l 1,86,-1
 397 548 l 1,87,-1
 397 604 l 1,84,-1
0 538 m 1,88,-1
 56 538 l 1,89,-1
 56 482 l 1,90,-1
 0 482 l 1,91,-1
 0 538 l 1,88,-1
66 538 m 1,92,-1
 122 538 l 1,93,-1
 122 482 l 1,94,-1
 66 482 l 1,95,-1
 66 538 l 1,92,-1
132 538 m 1,96,-1
 188 538 l 1,97,-1
 188 482 l 1,98,-1
 132 482 l 1,99,-1
 132 538 l 1,96,-1
198 538 m 1,100,-1
 254 538 l 1,101,-1
 254 482 l 1,102,-1
 198 482 l 1,103,-1
 198 538 l 1,100,-1
331 538 m 1,104,-1
 387 538 l 1,105,-1
 387 482 l 1,106,-1
 331 482 l 1,107,-1
 331 538 l 1,104,-1
397 538 m 1,108,-1
 453 538 l 1,109,-1
 453 482 l 1,110,-1
 397 482 l 1,111,-1
 397 538 l 1,108,-1
0 472 m 1,112,-1
 56 472 l 1,113,-1
 56 416 l 1,114,-1
 0 416 l 1,115,-1
 0 472 l 1,112,-1
66 472 m 1,116,-1
 122 472 l 1,117,-1
 122 416 l 1,118,-1
 66 416 l 1,119,-1
 66 472 l 1,116,-1
198 472 m 1,120,-1
 254 472 l 1,121,-1
 254 416 l 1,122,-1
 198 416 l 1,123,-1
 198 472 l 1,120,-1
265 472 m 1,124,-1
 321 472 l 1,125,-1
 321 416 l 1,126,-1
 265 416 l 1,127,-1
 265 472 l 1,124,-1
331 472 m 1,128,-1
 387 472 l 1,129,-1
 387 416 l 1,130,-1
 331 416 l 1,131,-1
 331 472 l 1,128,-1
397 472 m 1,132,-1
 453 472 l 1,133,-1
 453 416 l 1,134,-1
 397 416 l 1,135,-1
 397 472 l 1,132,-1
EndSplineSet
Validated: 1
EndChar

StartChar: O
Encoding: 79 79 50
Width: 520
Flags: W
LayerCount: 2
Fore
SplineSet
0 405 m 1,0,-1
 56 405 l 1,1,-1
 56 349 l 1,2,-1
 0 349 l 1,3,-1
 0 405 l 1,0,-1
66 405 m 1,4,-1
 122 405 l 1,5,-1
 122 349 l 1,6,-1
 66 349 l 1,7,-1
 66 405 l 1,4,-1
331 405 m 1,8,-1
 387 405 l 1,9,-1
 387 349 l 1,10,-1
 331 349 l 1,11,-1
 331 405 l 1,8,-1
397 405 m 1,12,-1
 453 405 l 1,13,-1
 453 349 l 1,14,-1
 397 349 l 1,15,-1
 397 405 l 1,12,-1
0 339 m 1,16,-1
 56 339 l 1,17,-1
 56 283 l 1,18,-1
 0 283 l 1,19,-1
 0 339 l 1,16,-1
66 339 m 1,20,-1
 122 339 l 1,21,-1
 122 283 l 1,22,-1
 66 283 l 1,23,-1
 66 339 l 1,20,-1
331 339 m 1,24,-1
 387 339 l 1,25,-1
 387 283 l 1,26,-1
 331 283 l 1,27,-1
 331 339 l 1,24,-1
397 339 m 1,28,-1
 453 339 l 1,29,-1
 453 283 l 1,30,-1
 397 283 l 1,31,-1
 397 339 l 1,28,-1
66 273 m 1,32,-1
 122 273 l 1,33,-1
 122 217 l 1,34,-1
 66 217 l 1,35,-1
 66 273 l 1,32,-1
132 273 m 1,36,-1
 188 273 l 1,37,-1
 188 217 l 1,38,-1
 132 217 l 1,39,-1
 132 273 l 1,36,-1
198 273 m 1,40,-1
 254 273 l 1,41,-1
 254 217 l 1,42,-1
 198 217 l 1,43,-1
 198 273 l 1,40,-1
265 273 m 1,44,-1
 321 273 l 1,45,-1
 321 217 l 1,46,-1
 265 217 l 1,47,-1
 265 273 l 1,44,-1
331 273 m 1,48,-1
 387 273 l 1,49,-1
 387 217 l 1,50,-1
 331 217 l 1,51,-1
 331 273 l 1,48,-1
66 670 m 1,52,-1
 122 670 l 1,53,-1
 122 614 l 1,54,-1
 66 614 l 1,55,-1
 66 670 l 1,52,-1
132 670 m 1,56,-1
 188 670 l 1,57,-1
 188 614 l 1,58,-1
 132 614 l 1,59,-1
 132 670 l 1,56,-1
198 670 m 1,60,-1
 254 670 l 1,61,-1
 254 614 l 1,62,-1
 198 614 l 1,63,-1
 198 670 l 1,60,-1
265 670 m 1,64,-1
 321 670 l 1,65,-1
 321 614 l 1,66,-1
 265 614 l 1,67,-1
 265 670 l 1,64,-1
331 670 m 1,68,-1
 387 670 l 1,69,-1
 387 614 l 1,70,-1
 331 614 l 1,71,-1
 331 670 l 1,68,-1
0 604 m 1,72,-1
 56 604 l 1,73,-1
 56 548 l 1,74,-1
 0 548 l 1,75,-1
 0 604 l 1,72,-1
66 604 m 1,76,-1
 122 604 l 1,77,-1
 122 548 l 1,78,-1
 66 548 l 1,79,-1
 66 604 l 1,76,-1
331 604 m 1,80,-1
 387 604 l 1,81,-1
 387 548 l 1,82,-1
 331 548 l 1,83,-1
 331 604 l 1,80,-1
397 604 m 1,84,-1
 453 604 l 1,85,-1
 453 548 l 1,86,-1
 397 548 l 1,87,-1
 397 604 l 1,84,-1
0 538 m 1,88,-1
 56 538 l 1,89,-1
 56 482 l 1,90,-1
 0 482 l 1,91,-1
 0 538 l 1,88,-1
66 538 m 1,92,-1
 122 538 l 1,93,-1
 122 482 l 1,94,-1
 66 482 l 1,95,-1
 66 538 l 1,92,-1
331 538 m 1,96,-1
 387 538 l 1,97,-1
 387 482 l 1,98,-1
 331 482 l 1,99,-1
 331 538 l 1,96,-1
397 538 m 1,100,-1
 453 538 l 1,101,-1
 453 482 l 1,102,-1
 397 482 l 1,103,-1
 397 538 l 1,100,-1
0 472 m 1,104,-1
 56 472 l 1,105,-1
 56 416 l 1,106,-1
 0 416 l 1,107,-1
 0 472 l 1,104,-1
66 472 m 1,108,-1
 122 472 l 1,109,-1
 122 416 l 1,110,-1
 66 416 l 1,111,-1
 66 472 l 1,108,-1
331 472 m 1,112,-1
 387 472 l 1,113,-1
 387 416 l 1,114,-1
 331 416 l 1,115,-1
 331 472 l 1,112,-1
397 472 m 1,116,-1
 453 472 l 1,117,-1
 453 416 l 1,118,-1
 397 416 l 1,119,-1
 397 472 l 1,116,-1
EndSplineSet
Validated: 1
EndChar

StartChar: P
Encoding: 80 80 51
Width: 520
Flags: W
LayerCount: 2
Fore
SplineSet
0 405 m 1,0,-1
 56 405 l 1,1,-1
 56 349 l 1,2,-1
 0 349 l 1,3,-1
 0 405 l 1,0,-1
66 405 m 1,4,-1
 122 405 l 1,5,-1
 122 349 l 1,6,-1
 66 349 l 1,7,-1
 66 405 l 1,4,-1
0 339 m 1,8,-1
 56 339 l 1,9,-1
 56 283 l 1,10,-1
 0 283 l 1,11,-1
 0 339 l 1,8,-1
66 339 m 1,12,-1
 122 339 l 1,13,-1
 122 283 l 1,14,-1
 66 283 l 1,15,-1
 66 339 l 1,12,-1
0 273 m 1,16,-1
 56 273 l 1,17,-1
 56 217 l 1,18,-1
 0 217 l 1,19,-1
 0 273 l 1,16,-1
66 273 m 1,20,-1
 122 273 l 1,21,-1
 122 217 l 1,22,-1
 66 217 l 1,23,-1
 66 273 l 1,20,-1
0 670 m 1,24,-1
 56 670 l 1,25,-1
 56 614 l 1,26,-1
 0 614 l 1,27,-1
 0 670 l 1,24,-1
66 670 m 1,28,-1
 122 670 l 1,29,-1
 122 614 l 1,30,-1
 66 614 l 1,31,-1
 66 670 l 1,28,-1
132 670 m 1,32,-1
 188 670 l 1,33,-1
 188 614 l 1,34,-1
 132 614 l 1,35,-1
 132 670 l 1,32,-1
198 670 m 1,36,-1
 254 670 l 1,37,-1
 254 614 l 1,38,-1
 198 614 l 1,39,-1
 198 670 l 1,36,-1
265 670 m 1,40,-1
 321 670 l 1,41,-1
 321 614 l 1,42,-1
 265 614 l 1,43,-1
 265 670 l 1,40,-1
331 670 m 1,44,-1
 387 670 l 1,45,-1
 387 614 l 1,46,-1
 331 614 l 1,47,-1
 331 670 l 1,44,-1
0 604 m 1,48,-1
 56 604 l 1,49,-1
 56 548 l 1,50,-1
 0 548 l 1,51,-1
 0 604 l 1,48,-1
66 604 m 1,52,-1
 122 604 l 1,53,-1
 122 548 l 1,54,-1
 66 548 l 1,55,-1
 66 604 l 1,52,-1
331 604 m 1,56,-1
 387 604 l 1,57,-1
 387 548 l 1,58,-1
 331 548 l 1,59,-1
 331 604 l 1,56,-1
397 604 m 1,60,-1
 453 604 l 1,61,-1
 453 548 l 1,62,-1
 397 548 l 1,63,-1
 397 604 l 1,60,-1
0 538 m 1,64,-1
 56 538 l 1,65,-1
 56 482 l 1,66,-1
 0 482 l 1,67,-1
 0 538 l 1,64,-1
66 538 m 1,68,-1
 122 538 l 1,69,-1
 122 482 l 1,70,-1
 66 482 l 1,71,-1
 66 538 l 1,68,-1
331 538 m 1,72,-1
 387 538 l 1,73,-1
 387 482 l 1,74,-1
 331 482 l 1,75,-1
 331 538 l 1,72,-1
397 538 m 1,76,-1
 453 538 l 1,77,-1
 453 482 l 1,78,-1
 397 482 l 1,79,-1
 397 538 l 1,76,-1
0 472 m 1,80,-1
 56 472 l 1,81,-1
 56 416 l 1,82,-1
 0 416 l 1,83,-1
 0 472 l 1,80,-1
66 472 m 1,84,-1
 122 472 l 1,85,-1
 122 416 l 1,86,-1
 66 416 l 1,87,-1
 66 472 l 1,84,-1
132 472 m 1,88,-1
 188 472 l 1,89,-1
 188 416 l 1,90,-1
 132 416 l 1,91,-1
 132 472 l 1,88,-1
198 472 m 1,92,-1
 254 472 l 1,93,-1
 254 416 l 1,94,-1
 198 416 l 1,95,-1
 198 472 l 1,92,-1
265 472 m 1,96,-1
 321 472 l 1,97,-1
 321 416 l 1,98,-1
 265 416 l 1,99,-1
 265 472 l 1,96,-1
331 472 m 1,100,-1
 387 472 l 1,101,-1
 387 416 l 1,102,-1
 331 416 l 1,103,-1
 331 472 l 1,100,-1
EndSplineSet
Validated: 1
EndChar

StartChar: Q
Encoding: 81 81 52
Width: 520
Flags: W
LayerCount: 2
Fore
SplineSet
0 405 m 1,0,-1
 56 405 l 1,1,-1
 56 349 l 1,2,-1
 0 349 l 1,3,-1
 0 405 l 1,0,-1
66 405 m 1,4,-1
 122 405 l 1,5,-1
 122 349 l 1,6,-1
 66 349 l 1,7,-1
 66 405 l 1,4,-1
198 405 m 1,8,-1
 254 405 l 1,9,-1
 254 349 l 1,10,-1
 198 349 l 1,11,-1
 198 405 l 1,8,-1
265 405 m 1,12,-1
 321 405 l 1,13,-1
 321 349 l 1,14,-1
 265 349 l 1,15,-1
 265 405 l 1,12,-1
331 405 m 1,16,-1
 387 405 l 1,17,-1
 387 349 l 1,18,-1
 331 349 l 1,19,-1
 331 405 l 1,16,-1
397 405 m 1,20,-1
 453 405 l 1,21,-1
 453 349 l 1,22,-1
 397 349 l 1,23,-1
 397 405 l 1,20,-1
0 339 m 1,24,-1
 56 339 l 1,25,-1
 56 283 l 1,26,-1
 0 283 l 1,27,-1
 0 339 l 1,24,-1
66 339 m 1,28,-1
 122 339 l 1,29,-1
 122 283 l 1,30,-1
 66 283 l 1,31,-1
 66 339 l 1,28,-1
265 339 m 1,32,-1
 321 339 l 1,33,-1
 321 283 l 1,34,-1
 265 283 l 1,35,-1
 265 339 l 1,32,-1
331 339 m 1,36,-1
 387 339 l 1,37,-1
 387 283 l 1,38,-1
 331 283 l 1,39,-1
 331 339 l 1,36,-1
66 273 m 1,40,-1
 122 273 l 1,41,-1
 122 217 l 1,42,-1
 66 217 l 1,43,-1
 66 273 l 1,40,-1
132 273 m 1,44,-1
 188 273 l 1,45,-1
 188 217 l 1,46,-1
 132 217 l 1,47,-1
 132 273 l 1,44,-1
198 273 m 1,48,-1
 254 273 l 1,49,-1
 254 217 l 1,50,-1
 198 217 l 1,51,-1
 198 273 l 1,48,-1
331 273 m 1,52,-1
 387 273 l 1,53,-1
 387 217 l 1,54,-1
 331 217 l 1,55,-1
 331 273 l 1,52,-1
397 273 m 1,56,-1
 453 273 l 1,57,-1
 453 217 l 1,58,-1
 397 217 l 1,59,-1
 397 273 l 1,56,-1
66 670 m 1,60,-1
 122 670 l 1,61,-1
 122 614 l 1,62,-1
 66 614 l 1,63,-1
 66 670 l 1,60,-1
132 670 m 1,64,-1
 188 670 l 1,65,-1
 188 614 l 1,66,-1
 132 614 l 1,67,-1
 132 670 l 1,64,-1
198 670 m 1,68,-1
 254 670 l 1,69,-1
 254 614 l 1,70,-1
 198 614 l 1,71,-1
 198 670 l 1,68,-1
265 670 m 1,72,-1
 321 670 l 1,73,-1
 321 614 l 1,74,-1
 265 614 l 1,75,-1
 265 670 l 1,72,-1
331 670 m 1,76,-1
 387 670 l 1,77,-1
 387 614 l 1,78,-1
 331 614 l 1,79,-1
 331 670 l 1,76,-1
0 604 m 1,80,-1
 56 604 l 1,81,-1
 56 548 l 1,82,-1
 0 548 l 1,83,-1
 0 604 l 1,80,-1
66 604 m 1,84,-1
 122 604 l 1,85,-1
 122 548 l 1,86,-1
 66 548 l 1,87,-1
 66 604 l 1,84,-1
331 604 m 1,88,-1
 387 604 l 1,89,-1
 387 548 l 1,90,-1
 331 548 l 1,91,-1
 331 604 l 1,88,-1
397 604 m 1,92,-1
 453 604 l 1,93,-1
 453 548 l 1,94,-1
 397 548 l 1,95,-1
 397 604 l 1,92,-1
0 538 m 1,96,-1
 56 538 l 1,97,-1
 56 482 l 1,98,-1
 0 482 l 1,99,-1
 0 538 l 1,96,-1
66 538 m 1,100,-1
 122 538 l 1,101,-1
 122 482 l 1,102,-1
 66 482 l 1,103,-1
 66 538 l 1,100,-1
321 482 m 1024,104,-1
331 538 m 1,105,-1
 387 538 l 1,106,-1
 387 482 l 1,107,-1
 331 482 l 1,108,-1
 331 538 l 1,105,-1
397 538 m 1,109,-1
 453 538 l 1,110,-1
 453 482 l 1,111,-1
 397 482 l 1,112,-1
 397 538 l 1,109,-1
0 472 m 1,113,-1
 56 472 l 1,114,-1
 56 416 l 1,115,-1
 0 416 l 1,116,-1
 0 472 l 1,113,-1
66 472 m 1,117,-1
 122 472 l 1,118,-1
 122 416 l 1,119,-1
 66 416 l 1,120,-1
 66 472 l 1,117,-1
321 472 m 1024,121,-1
331 472 m 1,122,-1
 387 472 l 1,123,-1
 387 416 l 1,124,-1
 331 416 l 1,125,-1
 331 472 l 1,122,-1
397 472 m 1,126,-1
 453 472 l 1,127,-1
 453 416 l 1,128,-1
 397 416 l 1,129,-1
 397 472 l 1,126,-1
EndSplineSet
Validated: 1
EndChar

StartChar: R
Encoding: 82 82 53
Width: 520
Flags: W
LayerCount: 2
Fore
SplineSet
0 405 m 1,0,-1
 56 405 l 1,1,-1
 56 349 l 1,2,-1
 0 349 l 1,3,-1
 0 405 l 1,0,-1
66 405 m 1,4,-1
 122 405 l 1,5,-1
 122 349 l 1,6,-1
 66 349 l 1,7,-1
 66 405 l 1,4,-1
198 405 m 1,8,-1
 254 405 l 1,9,-1
 254 349 l 1,10,-1
 198 349 l 1,11,-1
 198 405 l 1,8,-1
265 405 m 1,12,-1
 321 405 l 1,13,-1
 321 349 l 1,14,-1
 265 349 l 1,15,-1
 265 405 l 1,12,-1
0 339 m 1,16,-1
 56 339 l 1,17,-1
 56 283 l 1,18,-1
 0 283 l 1,19,-1
 0 339 l 1,16,-1
66 339 m 1,20,-1
 122 339 l 1,21,-1
 122 283 l 1,22,-1
 66 283 l 1,23,-1
 66 339 l 1,20,-1
265 339 m 1,24,-1
 321 339 l 1,25,-1
 321 283 l 1,26,-1
 265 283 l 1,27,-1
 265 339 l 1,24,-1
331 339 m 1,28,-1
 387 339 l 1,29,-1
 387 283 l 1,30,-1
 331 283 l 1,31,-1
 331 339 l 1,28,-1
0 273 m 1,32,-1
 56 273 l 1,33,-1
 56 217 l 1,34,-1
 0 217 l 1,35,-1
 0 273 l 1,32,-1
66 273 m 1,36,-1
 122 273 l 1,37,-1
 122 217 l 1,38,-1
 66 217 l 1,39,-1
 66 273 l 1,36,-1
331 273 m 1,40,-1
 387 273 l 1,41,-1
 387 217 l 1,42,-1
 331 217 l 1,43,-1
 331 273 l 1,40,-1
397 273 m 1,44,-1
 453 273 l 1,45,-1
 453 217 l 1,46,-1
 397 217 l 1,47,-1
 397 273 l 1,44,-1
0 670 m 1,48,-1
 56 670 l 1,49,-1
 56 614 l 1,50,-1
 0 614 l 1,51,-1
 0 670 l 1,48,-1
66 670 m 1,52,-1
 122 670 l 1,53,-1
 122 614 l 1,54,-1
 66 614 l 1,55,-1
 66 670 l 1,52,-1
132 670 m 1,56,-1
 188 670 l 1,57,-1
 188 614 l 1,58,-1
 132 614 l 1,59,-1
 132 670 l 1,56,-1
198 670 m 1,60,-1
 254 670 l 1,61,-1
 254 614 l 1,62,-1
 198 614 l 1,63,-1
 198 670 l 1,60,-1
265 670 m 1,64,-1
 321 670 l 1,65,-1
 321 614 l 1,66,-1
 265 614 l 1,67,-1
 265 670 l 1,64,-1
331 670 m 1,68,-1
 387 670 l 1,69,-1
 387 614 l 1,70,-1
 331 614 l 1,71,-1
 331 670 l 1,68,-1
0 604 m 1,72,-1
 56 604 l 1,73,-1
 56 548 l 1,74,-1
 0 548 l 1,75,-1
 0 604 l 1,72,-1
66 604 m 1,76,-1
 122 604 l 1,77,-1
 122 548 l 1,78,-1
 66 548 l 1,79,-1
 66 604 l 1,76,-1
331 604 m 1,80,-1
 387 604 l 1,81,-1
 387 548 l 1,82,-1
 331 548 l 1,83,-1
 331 604 l 1,80,-1
397 604 m 1,84,-1
 453 604 l 1,85,-1
 453 548 l 1,86,-1
 397 548 l 1,87,-1
 397 604 l 1,84,-1
0 538 m 1,88,-1
 56 538 l 1,89,-1
 56 482 l 1,90,-1
 0 482 l 1,91,-1
 0 538 l 1,88,-1
66 538 m 1,92,-1
 122 538 l 1,93,-1
 122 482 l 1,94,-1
 66 482 l 1,95,-1
 66 538 l 1,92,-1
331 538 m 1,96,-1
 387 538 l 1,97,-1
 387 482 l 1,98,-1
 331 482 l 1,99,-1
 331 538 l 1,96,-1
397 538 m 1,100,-1
 453 538 l 1,101,-1
 453 482 l 1,102,-1
 397 482 l 1,103,-1
 397 538 l 1,100,-1
0 472 m 1,104,-1
 56 472 l 1,105,-1
 56 416 l 1,106,-1
 0 416 l 1,107,-1
 0 472 l 1,104,-1
66 472 m 1,108,-1
 122 472 l 1,109,-1
 122 416 l 1,110,-1
 66 416 l 1,111,-1
 66 472 l 1,108,-1
132 472 m 1,112,-1
 188 472 l 1,113,-1
 188 416 l 1,114,-1
 132 416 l 1,115,-1
 132 472 l 1,112,-1
198 472 m 1,116,-1
 254 472 l 1,117,-1
 254 416 l 1,118,-1
 198 416 l 1,119,-1
 198 472 l 1,116,-1
265 472 m 1,120,-1
 321 472 l 1,121,-1
 321 416 l 1,122,-1
 265 416 l 1,123,-1
 265 472 l 1,120,-1
331 472 m 1,124,-1
 387 472 l 1,125,-1
 387 416 l 1,126,-1
 331 416 l 1,127,-1
 331 472 l 1,124,-1
EndSplineSet
Validated: 1
EndChar

StartChar: S
Encoding: 83 83 54
Width: 520
Flags: W
LayerCount: 2
Fore
SplineSet
331 405 m 1,0,-1
 387 405 l 1,1,-1
 387 349 l 1,2,-1
 331 349 l 1,3,-1
 331 405 l 1,0,-1
397 405 m 1,4,-1
 453 405 l 1,5,-1
 453 349 l 1,6,-1
 397 349 l 1,7,-1
 397 405 l 1,4,-1
0 339 m 1,8,-1
 56 339 l 1,9,-1
 56 283 l 1,10,-1
 0 283 l 1,11,-1
 0 339 l 1,8,-1
66 339 m 1,12,-1
 122 339 l 1,13,-1
 122 283 l 1,14,-1
 66 283 l 1,15,-1
 66 339 l 1,12,-1
331 339 m 1,16,-1
 387 339 l 1,17,-1
 387 283 l 1,18,-1
 331 283 l 1,19,-1
 331 339 l 1,16,-1
397 339 m 1,20,-1
 453 339 l 1,21,-1
 453 283 l 1,22,-1
 397 283 l 1,23,-1
 397 339 l 1,20,-1
66 273 m 1,24,-1
 122 273 l 1,25,-1
 122 217 l 1,26,-1
 66 217 l 1,27,-1
 66 273 l 1,24,-1
132 273 m 1,28,-1
 188 273 l 1,29,-1
 188 217 l 1,30,-1
 132 217 l 1,31,-1
 132 273 l 1,28,-1
198 273 m 1,32,-1
 254 273 l 1,33,-1
 254 217 l 1,34,-1
 198 217 l 1,35,-1
 198 273 l 1,32,-1
265 273 m 1,36,-1
 321 273 l 1,37,-1
 321 217 l 1,38,-1
 265 217 l 1,39,-1
 265 273 l 1,36,-1
331 273 m 1,40,-1
 387 273 l 1,41,-1
 387 217 l 1,42,-1
 331 217 l 1,43,-1
 331 273 l 1,40,-1
66 670 m 1,44,-1
 122 670 l 1,45,-1
 122 614 l 1,46,-1
 66 614 l 1,47,-1
 66 670 l 1,44,-1
132 670 m 1,48,-1
 188 670 l 1,49,-1
 188 614 l 1,50,-1
 132 614 l 1,51,-1
 132 670 l 1,48,-1
198 670 m 1,52,-1
 254 670 l 1,53,-1
 254 614 l 1,54,-1
 198 614 l 1,55,-1
 198 670 l 1,52,-1
265 670 m 1,56,-1
 321 670 l 1,57,-1
 321 614 l 1,58,-1
 265 614 l 1,59,-1
 265 670 l 1,56,-1
331 670 m 1,60,-1
 387 670 l 1,61,-1
 387 614 l 1,62,-1
 331 614 l 1,63,-1
 331 670 l 1,60,-1
0 604 m 1,64,-1
 56 604 l 1,65,-1
 56 548 l 1,66,-1
 0 548 l 1,67,-1
 0 604 l 1,64,-1
66 604 m 1,68,-1
 122 604 l 1,69,-1
 122 548 l 1,70,-1
 66 548 l 1,71,-1
 66 604 l 1,68,-1
331 604 m 1,72,-1
 387 604 l 1,73,-1
 387 548 l 1,74,-1
 331 548 l 1,75,-1
 331 604 l 1,72,-1
397 604 m 1,76,-1
 453 604 l 1,77,-1
 453 548 l 1,78,-1
 397 548 l 1,79,-1
 397 604 l 1,76,-1
0 538 m 1,80,-1
 56 538 l 1,81,-1
 56 482 l 1,82,-1
 0 482 l 1,83,-1
 0 538 l 1,80,-1
66 538 m 1,84,-1
 122 538 l 1,85,-1
 122 482 l 1,86,-1
 66 482 l 1,87,-1
 66 538 l 1,84,-1
66 472 m 1,88,-1
 122 472 l 1,89,-1
 122 416 l 1,90,-1
 66 416 l 1,91,-1
 66 472 l 1,88,-1
132 472 m 1,92,-1
 188 472 l 1,93,-1
 188 416 l 1,94,-1
 132 416 l 1,95,-1
 132 472 l 1,92,-1
198 472 m 1,96,-1
 254 472 l 1,97,-1
 254 416 l 1,98,-1
 198 416 l 1,99,-1
 198 472 l 1,96,-1
265 472 m 1,100,-1
 321 472 l 1,101,-1
 321 416 l 1,102,-1
 265 416 l 1,103,-1
 265 472 l 1,100,-1
331 472 m 1,104,-1
 387 472 l 1,105,-1
 387 416 l 1,106,-1
 331 416 l 1,107,-1
 331 472 l 1,104,-1
EndSplineSet
Validated: 1
EndChar

StartChar: T
Encoding: 84 84 55
Width: 520
Flags: W
LayerCount: 2
Fore
SplineSet
132 405 m 1,0,-1
 188 405 l 1,1,-1
 188 349 l 1,2,-1
 132 349 l 1,3,-1
 132 405 l 1,0,-1
198 405 m 1,4,-1
 254 405 l 1,5,-1
 254 349 l 1,6,-1
 198 349 l 1,7,-1
 198 405 l 1,4,-1
132 339 m 1,8,-1
 188 339 l 1,9,-1
 188 283 l 1,10,-1
 132 283 l 1,11,-1
 132 339 l 1,8,-1
198 339 m 1,12,-1
 254 339 l 1,13,-1
 254 283 l 1,14,-1
 198 283 l 1,15,-1
 198 339 l 1,12,-1
132 273 m 1,16,-1
 188 273 l 1,17,-1
 188 217 l 1,18,-1
 132 217 l 1,19,-1
 132 273 l 1,16,-1
198 273 m 1,20,-1
 254 273 l 1,21,-1
 254 217 l 1,22,-1
 198 217 l 1,23,-1
 198 273 l 1,20,-1
0 670 m 1,24,-1
 56 670 l 1,25,-1
 56 614 l 1,26,-1
 0 614 l 1,27,-1
 0 670 l 1,24,-1
66 670 m 1,28,-1
 122 670 l 1,29,-1
 122 614 l 1,30,-1
 66 614 l 1,31,-1
 66 670 l 1,28,-1
132 670 m 1,32,-1
 188 670 l 1,33,-1
 188 614 l 1,34,-1
 132 614 l 1,35,-1
 132 670 l 1,32,-1
198 670 m 1,36,-1
 254 670 l 1,37,-1
 254 614 l 1,38,-1
 198 614 l 1,39,-1
 198 670 l 1,36,-1
265 670 m 1,40,-1
 321 670 l 1,41,-1
 321 614 l 1,42,-1
 265 614 l 1,43,-1
 265 670 l 1,40,-1
331 670 m 1,44,-1
 387 670 l 1,45,-1
 387 614 l 1,46,-1
 331 614 l 1,47,-1
 331 670 l 1,44,-1
132 604 m 1,48,-1
 188 604 l 1,49,-1
 188 548 l 1,50,-1
 132 548 l 1,51,-1
 132 604 l 1,48,-1
198 604 m 1,52,-1
 254 604 l 1,53,-1
 254 548 l 1,54,-1
 198 548 l 1,55,-1
 198 604 l 1,52,-1
132 538 m 1,56,-1
 188 538 l 1,57,-1
 188 482 l 1,58,-1
 132 482 l 1,59,-1
 132 538 l 1,56,-1
198 538 m 1,60,-1
 254 538 l 1,61,-1
 254 482 l 1,62,-1
 198 482 l 1,63,-1
 198 538 l 1,60,-1
132 472 m 1,64,-1
 188 472 l 1,65,-1
 188 416 l 1,66,-1
 132 416 l 1,67,-1
 132 472 l 1,64,-1
198 472 m 1,68,-1
 254 472 l 1,69,-1
 254 416 l 1,70,-1
 198 416 l 1,71,-1
 198 472 l 1,68,-1
EndSplineSet
Validated: 1
EndChar

StartChar: U
Encoding: 85 85 56
Width: 520
Flags: W
LayerCount: 2
Fore
SplineSet
0 405 m 1,0,-1
 56 405 l 1,1,-1
 56 349 l 1,2,-1
 0 349 l 1,3,-1
 0 405 l 1,0,-1
66 405 m 1,4,-1
 122 405 l 1,5,-1
 122 349 l 1,6,-1
 66 349 l 1,7,-1
 66 405 l 1,4,-1
331 405 m 1,8,-1
 387 405 l 1,9,-1
 387 349 l 1,10,-1
 331 349 l 1,11,-1
 331 405 l 1,8,-1
397 405 m 1,12,-1
 453 405 l 1,13,-1
 453 349 l 1,14,-1
 397 349 l 1,15,-1
 397 405 l 1,12,-1
0 339 m 1,16,-1
 56 339 l 1,17,-1
 56 283 l 1,18,-1
 0 283 l 1,19,-1
 0 339 l 1,16,-1
66 339 m 1,20,-1
 122 339 l 1,21,-1
 122 283 l 1,22,-1
 66 283 l 1,23,-1
 66 339 l 1,20,-1
331 339 m 1,24,-1
 387 339 l 1,25,-1
 387 283 l 1,26,-1
 331 283 l 1,27,-1
 331 339 l 1,24,-1
397 339 m 1,28,-1
 453 339 l 1,29,-1
 453 283 l 1,30,-1
 397 283 l 1,31,-1
 397 339 l 1,28,-1
66 273 m 1,32,-1
 122 273 l 1,33,-1
 122 217 l 1,34,-1
 66 217 l 1,35,-1
 66 273 l 1,32,-1
132 273 m 1,36,-1
 188 273 l 1,37,-1
 188 217 l 1,38,-1
 132 217 l 1,39,-1
 132 273 l 1,36,-1
198 273 m 1,40,-1
 254 273 l 1,41,-1
 254 217 l 1,42,-1
 198 217 l 1,43,-1
 198 273 l 1,40,-1
265 273 m 1,44,-1
 321 273 l 1,45,-1
 321 217 l 1,46,-1
 265 217 l 1,47,-1
 265 273 l 1,44,-1
331 273 m 1,48,-1
 387 273 l 1,49,-1
 387 217 l 1,50,-1
 331 217 l 1,51,-1
 331 273 l 1,48,-1
0 670 m 1,52,-1
 56 670 l 1,53,-1
 56 614 l 1,54,-1
 0 614 l 1,55,-1
 0 670 l 1,52,-1
66 670 m 1,56,-1
 122 670 l 1,57,-1
 122 614 l 1,58,-1
 66 614 l 1,59,-1
 66 670 l 1,56,-1
331 670 m 1,60,-1
 387 670 l 1,61,-1
 387 614 l 1,62,-1
 331 614 l 1,63,-1
 331 670 l 1,60,-1
397 670 m 1,64,-1
 453 670 l 1,65,-1
 453 614 l 1,66,-1
 397 614 l 1,67,-1
 397 670 l 1,64,-1
0 604 m 1,68,-1
 56 604 l 1,69,-1
 56 548 l 1,70,-1
 0 548 l 1,71,-1
 0 604 l 1,68,-1
66 604 m 1,72,-1
 122 604 l 1,73,-1
 122 548 l 1,74,-1
 66 548 l 1,75,-1
 66 604 l 1,72,-1
331 604 m 1,76,-1
 387 604 l 1,77,-1
 387 548 l 1,78,-1
 331 548 l 1,79,-1
 331 604 l 1,76,-1
397 604 m 1,80,-1
 453 604 l 1,81,-1
 453 548 l 1,82,-1
 397 548 l 1,83,-1
 397 604 l 1,80,-1
0 538 m 1,84,-1
 56 538 l 1,85,-1
 56 482 l 1,86,-1
 0 482 l 1,87,-1
 0 538 l 1,84,-1
66 538 m 1,88,-1
 122 538 l 1,89,-1
 122 482 l 1,90,-1
 66 482 l 1,91,-1
 66 538 l 1,88,-1
331 538 m 1,92,-1
 387 538 l 1,93,-1
 387 482 l 1,94,-1
 331 482 l 1,95,-1
 331 538 l 1,92,-1
397 538 m 1,96,-1
 453 538 l 1,97,-1
 453 482 l 1,98,-1
 397 482 l 1,99,-1
 397 538 l 1,96,-1
0 472 m 1,100,-1
 56 472 l 1,101,-1
 56 416 l 1,102,-1
 0 416 l 1,103,-1
 0 472 l 1,100,-1
66 472 m 1,104,-1
 122 472 l 1,105,-1
 122 416 l 1,106,-1
 66 416 l 1,107,-1
 66 472 l 1,104,-1
331 472 m 1,108,-1
 387 472 l 1,109,-1
 387 416 l 1,110,-1
 331 416 l 1,111,-1
 331 472 l 1,108,-1
397 472 m 1,112,-1
 453 472 l 1,113,-1
 453 416 l 1,114,-1
 397 416 l 1,115,-1
 397 472 l 1,112,-1
EndSplineSet
Validated: 1
EndChar

StartChar: V
Encoding: 86 86 57
Width: 520
Flags: W
LayerCount: 2
Fore
SplineSet
0 405 m 1,0,-1
 56 405 l 1,1,-1
 56 349 l 1,2,-1
 0 349 l 1,3,-1
 0 405 l 1,0,-1
66 405 m 1,4,-1
 122 405 l 1,5,-1
 122 349 l 1,6,-1
 66 349 l 1,7,-1
 66 405 l 1,4,-1
331 405 m 1,8,-1
 387 405 l 1,9,-1
 387 349 l 1,10,-1
 331 349 l 1,11,-1
 331 405 l 1,8,-1
397 405 m 1,12,-1
 453 405 l 1,13,-1
 453 349 l 1,14,-1
 397 349 l 1,15,-1
 397 405 l 1,12,-1
66 339 m 1,16,-1
 122 339 l 1,17,-1
 122 283 l 1,18,-1
 66 283 l 1,19,-1
 66 339 l 1,16,-1
132 339 m 1,20,-1
 188 339 l 1,21,-1
 188 283 l 1,22,-1
 132 283 l 1,23,-1
 132 339 l 1,20,-1
265 339 m 1,24,-1
 321 339 l 1,25,-1
 321 283 l 1,26,-1
 265 283 l 1,27,-1
 265 339 l 1,24,-1
331 339 m 1,28,-1
 387 339 l 1,29,-1
 387 283 l 1,30,-1
 331 283 l 1,31,-1
 331 339 l 1,28,-1
132 273 m 1,32,-1
 188 273 l 1,33,-1
 188 217 l 1,34,-1
 132 217 l 1,35,-1
 132 273 l 1,32,-1
198 273 m 1,36,-1
 254 273 l 1,37,-1
 254 217 l 1,38,-1
 198 217 l 1,39,-1
 198 273 l 1,36,-1
265 273 m 1,40,-1
 321 273 l 1,41,-1
 321 217 l 1,42,-1
 265 217 l 1,43,-1
 265 273 l 1,40,-1
0 670 m 1,44,-1
 56 670 l 1,45,-1
 56 614 l 1,46,-1
 0 614 l 1,47,-1
 0 670 l 1,44,-1
66 670 m 1,48,-1
 122 670 l 1,49,-1
 122 614 l 1,50,-1
 66 614 l 1,51,-1
 66 670 l 1,48,-1
331 670 m 1,52,-1
 387 670 l 1,53,-1
 387 614 l 1,54,-1
 331 614 l 1,55,-1
 331 670 l 1,52,-1
397 670 m 1,56,-1
 453 670 l 1,57,-1
 453 614 l 1,58,-1
 397 614 l 1,59,-1
 397 670 l 1,56,-1
0 604 m 1,60,-1
 56 604 l 1,61,-1
 56 548 l 1,62,-1
 0 548 l 1,63,-1
 0 604 l 1,60,-1
66 604 m 1,64,-1
 122 604 l 1,65,-1
 122 548 l 1,66,-1
 66 548 l 1,67,-1
 66 604 l 1,64,-1
331 604 m 1,68,-1
 387 604 l 1,69,-1
 387 548 l 1,70,-1
 331 548 l 1,71,-1
 331 604 l 1,68,-1
397 604 m 1,72,-1
 453 604 l 1,73,-1
 453 548 l 1,74,-1
 397 548 l 1,75,-1
 397 604 l 1,72,-1
0 538 m 1,76,-1
 56 538 l 1,77,-1
 56 482 l 1,78,-1
 0 482 l 1,79,-1
 0 538 l 1,76,-1
66 538 m 1,80,-1
 122 538 l 1,81,-1
 122 482 l 1,82,-1
 66 482 l 1,83,-1
 66 538 l 1,80,-1
331 538 m 1,84,-1
 387 538 l 1,85,-1
 387 482 l 1,86,-1
 331 482 l 1,87,-1
 331 538 l 1,84,-1
397 538 m 1,88,-1
 453 538 l 1,89,-1
 453 482 l 1,90,-1
 397 482 l 1,91,-1
 397 538 l 1,88,-1
0 472 m 1,92,-1
 56 472 l 1,93,-1
 56 416 l 1,94,-1
 0 416 l 1,95,-1
 0 472 l 1,92,-1
66 472 m 1,96,-1
 122 472 l 1,97,-1
 122 416 l 1,98,-1
 66 416 l 1,99,-1
 66 472 l 1,96,-1
331 472 m 1,100,-1
 387 472 l 1,101,-1
 387 416 l 1,102,-1
 331 416 l 1,103,-1
 331 472 l 1,100,-1
397 472 m 1,104,-1
 453 472 l 1,105,-1
 453 416 l 1,106,-1
 397 416 l 1,107,-1
 397 472 l 1,104,-1
EndSplineSet
Validated: 1
EndChar

StartChar: W
Encoding: 87 87 58
Width: 520
Flags: W
LayerCount: 2
Fore
SplineSet
0 405 m 1,0,-1
 56 405 l 1,1,-1
 56 349 l 1,2,-1
 0 349 l 1,3,-1
 0 405 l 1,0,-1
66 405 m 1,4,-1
 122 405 l 1,5,-1
 122 349 l 1,6,-1
 66 349 l 1,7,-1
 66 405 l 1,4,-1
198 405 m 1,8,-1
 254 405 l 1,9,-1
 254 349 l 1,10,-1
 198 349 l 1,11,-1
 198 405 l 1,8,-1
331 405 m 1,12,-1
 387 405 l 1,13,-1
 387 349 l 1,14,-1
 331 349 l 1,15,-1
 331 405 l 1,12,-1
397 405 m 1,16,-1
 453 405 l 1,17,-1
 453 349 l 1,18,-1
 397 349 l 1,19,-1
 397 405 l 1,16,-1
0 339 m 1,20,-1
 56 339 l 1,21,-1
 56 283 l 1,22,-1
 0 283 l 1,23,-1
 0 339 l 1,20,-1
66 339 m 1,24,-1
 122 339 l 1,25,-1
 122 283 l 1,26,-1
 66 283 l 1,27,-1
 66 339 l 1,24,-1
132 339 m 1,28,-1
 188 339 l 1,29,-1
 188 283 l 1,30,-1
 132 283 l 1,31,-1
 132 339 l 1,28,-1
198 339 m 1,32,-1
 254 339 l 1,33,-1
 254 283 l 1,34,-1
 198 283 l 1,35,-1
 198 339 l 1,32,-1
265 339 m 1,36,-1
 321 339 l 1,37,-1
 321 283 l 1,38,-1
 265 283 l 1,39,-1
 265 339 l 1,36,-1
331 339 m 1,40,-1
 387 339 l 1,41,-1
 387 283 l 1,42,-1
 331 283 l 1,43,-1
 331 339 l 1,40,-1
397 339 m 1,44,-1
 453 339 l 1,45,-1
 453 283 l 1,46,-1
 397 283 l 1,47,-1
 397 339 l 1,44,-1
66 273 m 1,48,-1
 122 273 l 1,49,-1
 122 217 l 1,50,-1
 66 217 l 1,51,-1
 66 273 l 1,48,-1
132 273 m 1,52,-1
 188 273 l 1,53,-1
 188 217 l 1,54,-1
 132 217 l 1,55,-1
 132 273 l 1,52,-1
265 273 m 1,56,-1
 321 273 l 1,57,-1
 321 217 l 1,58,-1
 265 217 l 1,59,-1
 265 273 l 1,56,-1
331 273 m 1,60,-1
 387 273 l 1,61,-1
 387 217 l 1,62,-1
 331 217 l 1,63,-1
 331 273 l 1,60,-1
0 670 m 1,64,-1
 56 670 l 1,65,-1
 56 614 l 1,66,-1
 0 614 l 1,67,-1
 0 670 l 1,64,-1
66 670 m 1,68,-1
 122 670 l 1,69,-1
 122 614 l 1,70,-1
 66 614 l 1,71,-1
 66 670 l 1,68,-1
331 670 m 1,72,-1
 387 670 l 1,73,-1
 387 614 l 1,74,-1
 331 614 l 1,75,-1
 331 670 l 1,72,-1
397 670 m 1,76,-1
 453 670 l 1,77,-1
 453 614 l 1,78,-1
 397 614 l 1,79,-1
 397 670 l 1,76,-1
0 604 m 1,80,-1
 56 604 l 1,81,-1
 56 548 l 1,82,-1
 0 548 l 1,83,-1
 0 604 l 1,80,-1
66 604 m 1,84,-1
 122 604 l 1,85,-1
 122 548 l 1,86,-1
 66 548 l 1,87,-1
 66 604 l 1,84,-1
331 604 m 1,88,-1
 387 604 l 1,89,-1
 387 548 l 1,90,-1
 331 548 l 1,91,-1
 331 604 l 1,88,-1
397 604 m 1,92,-1
 453 604 l 1,93,-1
 453 548 l 1,94,-1
 397 548 l 1,95,-1
 397 604 l 1,92,-1
0 538 m 1,96,-1
 56 538 l 1,97,-1
 56 482 l 1,98,-1
 0 482 l 1,99,-1
 0 538 l 1,96,-1
66 538 m 1,100,-1
 122 538 l 1,101,-1
 122 482 l 1,102,-1
 66 482 l 1,103,-1
 66 538 l 1,100,-1
331 538 m 1,104,-1
 387 538 l 1,105,-1
 387 482 l 1,106,-1
 331 482 l 1,107,-1
 331 538 l 1,104,-1
397 538 m 1,108,-1
 453 538 l 1,109,-1
 453 482 l 1,110,-1
 397 482 l 1,111,-1
 397 538 l 1,108,-1
0 472 m 1,112,-1
 56 472 l 1,113,-1
 56 416 l 1,114,-1
 0 416 l 1,115,-1
 0 472 l 1,112,-1
66 472 m 1,116,-1
 122 472 l 1,117,-1
 122 416 l 1,118,-1
 66 416 l 1,119,-1
 66 472 l 1,116,-1
331 472 m 1,120,-1
 387 472 l 1,121,-1
 387 416 l 1,122,-1
 331 416 l 1,123,-1
 331 472 l 1,120,-1
397 472 m 1,124,-1
 453 472 l 1,125,-1
 453 416 l 1,126,-1
 397 416 l 1,127,-1
 397 472 l 1,124,-1
EndSplineSet
Validated: 1
EndChar

StartChar: X
Encoding: 88 88 59
Width: 520
Flags: W
LayerCount: 2
Fore
SplineSet
66 405 m 1,0,-1
 122 405 l 1,1,-1
 122 349 l 1,2,-1
 66 349 l 1,3,-1
 66 405 l 1,0,-1
132 405 m 1,4,-1
 188 405 l 1,5,-1
 188 349 l 1,6,-1
 132 349 l 1,7,-1
 132 405 l 1,4,-1
265 405 m 1,8,-1
 321 405 l 1,9,-1
 321 349 l 1,10,-1
 265 349 l 1,11,-1
 265 405 l 1,8,-1
331 405 m 1,12,-1
 387 405 l 1,13,-1
 387 349 l 1,14,-1
 331 349 l 1,15,-1
 331 405 l 1,12,-1
0 339 m 1,16,-1
 56 339 l 1,17,-1
 56 283 l 1,18,-1
 0 283 l 1,19,-1
 0 339 l 1,16,-1
66 339 m 1,20,-1
 122 339 l 1,21,-1
 122 283 l 1,22,-1
 66 283 l 1,23,-1
 66 339 l 1,20,-1
331 339 m 1,24,-1
 387 339 l 1,25,-1
 387 283 l 1,26,-1
 331 283 l 1,27,-1
 331 339 l 1,24,-1
397 339 m 1,28,-1
 453 339 l 1,29,-1
 453 283 l 1,30,-1
 397 283 l 1,31,-1
 397 339 l 1,28,-1
0 273 m 1,32,-1
 56 273 l 1,33,-1
 56 217 l 1,34,-1
 0 217 l 1,35,-1
 0 273 l 1,32,-1
397 273 m 1,36,-1
 453 273 l 1,37,-1
 453 217 l 1,38,-1
 397 217 l 1,39,-1
 397 273 l 1,36,-1
0 670 m 1,40,-1
 56 670 l 1,41,-1
 56 614 l 1,42,-1
 0 614 l 1,43,-1
 0 670 l 1,40,-1
66 670 m 1,44,-1
 122 670 l 1,45,-1
 122 614 l 1,46,-1
 66 614 l 1,47,-1
 66 670 l 1,44,-1
387 614 m 1024,48,-1
397 670 m 1,49,-1
 453 670 l 1,50,-1
 453 614 l 1,51,-1
 397 614 l 1,52,-1
 397 670 l 1,49,-1
66 604 m 1,53,-1
 122 604 l 1,54,-1
 122 548 l 1,55,-1
 66 548 l 1,56,-1
 66 604 l 1,53,-1
132 604 m 1,57,-1
 188 604 l 1,58,-1
 188 548 l 1,59,-1
 132 548 l 1,60,-1
 132 604 l 1,57,-1
265 604 m 1,61,-1
 321 604 l 1,62,-1
 321 548 l 1,63,-1
 265 548 l 1,64,-1
 265 604 l 1,61,-1
331 604 m 1,65,-1
 387 604 l 1,66,-1
 387 548 l 1,67,-1
 331 548 l 1,68,-1
 331 604 l 1,65,-1
132 538 m 1,69,-1
 188 538 l 1,70,-1
 188 482 l 1,71,-1
 132 482 l 1,72,-1
 132 538 l 1,69,-1
198 538 m 1,73,-1
 254 538 l 1,74,-1
 254 482 l 1,75,-1
 198 482 l 1,76,-1
 198 538 l 1,73,-1
265 538 m 1,77,-1
 321 538 l 1,78,-1
 321 482 l 1,79,-1
 265 482 l 1,80,-1
 265 538 l 1,77,-1
132 472 m 1,81,-1
 188 472 l 1,82,-1
 188 416 l 1,83,-1
 132 416 l 1,84,-1
 132 472 l 1,81,-1
198 472 m 1,85,-1
 254 472 l 1,86,-1
 254 416 l 1,87,-1
 198 416 l 1,88,-1
 198 472 l 1,85,-1
265 472 m 1,89,-1
 321 472 l 1,90,-1
 321 416 l 1,91,-1
 265 416 l 1,92,-1
 265 472 l 1,89,-1
331 670 m 1,93,-1
 387 670 l 1,94,-1
 387 614 l 1,95,-1
 331 614 l 1,96,-1
 331 670 l 1,93,-1
EndSplineSet
Validated: 1
EndChar

StartChar: Y
Encoding: 89 89 60
Width: 520
Flags: W
LayerCount: 2
Fore
SplineSet
132 405 m 1,0,-1
 188 405 l 1,1,-1
 188 349 l 1,2,-1
 132 349 l 1,3,-1
 132 405 l 1,0,-1
198 405 m 1,4,-1
 254 405 l 1,5,-1
 254 349 l 1,6,-1
 198 349 l 1,7,-1
 198 405 l 1,4,-1
132 339 m 1,8,-1
 188 339 l 1,9,-1
 188 283 l 1,10,-1
 132 283 l 1,11,-1
 132 339 l 1,8,-1
198 339 m 1,12,-1
 254 339 l 1,13,-1
 254 283 l 1,14,-1
 198 283 l 1,15,-1
 198 339 l 1,12,-1
132 273 m 1,16,-1
 188 273 l 1,17,-1
 188 217 l 1,18,-1
 132 217 l 1,19,-1
 132 273 l 1,16,-1
198 273 m 1,20,-1
 254 273 l 1,21,-1
 254 217 l 1,22,-1
 198 217 l 1,23,-1
 198 273 l 1,20,-1
0 670 m 1,24,-1
 56 670 l 1,25,-1
 56 614 l 1,26,-1
 0 614 l 1,27,-1
 0 670 l 1,24,-1
66 670 m 1,28,-1
 122 670 l 1,29,-1
 122 614 l 1,30,-1
 66 614 l 1,31,-1
 66 670 l 1,28,-1
265 670 m 1,32,-1
 321 670 l 1,33,-1
 321 614 l 1,34,-1
 265 614 l 1,35,-1
 265 670 l 1,32,-1
331 670 m 1,36,-1
 387 670 l 1,37,-1
 387 614 l 1,38,-1
 331 614 l 1,39,-1
 331 670 l 1,36,-1
0 604 m 1,40,-1
 56 604 l 1,41,-1
 56 548 l 1,42,-1
 0 548 l 1,43,-1
 0 604 l 1,40,-1
66 604 m 1,44,-1
 122 604 l 1,45,-1
 122 548 l 1,46,-1
 66 548 l 1,47,-1
 66 604 l 1,44,-1
265 604 m 1,48,-1
 321 604 l 1,49,-1
 321 548 l 1,50,-1
 265 548 l 1,51,-1
 265 604 l 1,48,-1
331 604 m 1,52,-1
 387 604 l 1,53,-1
 387 548 l 1,54,-1
 331 548 l 1,55,-1
 331 604 l 1,52,-1
0 538 m 1,56,-1
 56 538 l 1,57,-1
 56 482 l 1,58,-1
 0 482 l 1,59,-1
 0 538 l 1,56,-1
66 538 m 1,60,-1
 122 538 l 1,61,-1
 122 482 l 1,62,-1
 66 482 l 1,63,-1
 66 538 l 1,60,-1
265 538 m 1,64,-1
 321 538 l 1,65,-1
 321 482 l 1,66,-1
 265 482 l 1,67,-1
 265 538 l 1,64,-1
331 538 m 1,68,-1
 387 538 l 1,69,-1
 387 482 l 1,70,-1
 331 482 l 1,71,-1
 331 538 l 1,68,-1
66 472 m 1,72,-1
 122 472 l 1,73,-1
 122 416 l 1,74,-1
 66 416 l 1,75,-1
 66 472 l 1,72,-1
132 472 m 1,76,-1
 188 472 l 1,77,-1
 188 416 l 1,78,-1
 132 416 l 1,79,-1
 132 472 l 1,76,-1
198 472 m 1,80,-1
 254 472 l 1,81,-1
 254 416 l 1,82,-1
 198 416 l 1,83,-1
 198 472 l 1,80,-1
265 472 m 1,84,-1
 321 472 l 1,85,-1
 321 416 l 1,86,-1
 265 416 l 1,87,-1
 265 472 l 1,84,-1
EndSplineSet
Validated: 1
EndChar

StartChar: Z
Encoding: 90 90 61
Width: 520
Flags: W
LayerCount: 2
Fore
SplineSet
66 405 m 1,0,-1
 122 405 l 1,1,-1
 122 349 l 1,2,-1
 66 349 l 1,3,-1
 66 405 l 1,0,-1
132 405 m 1,4,-1
 188 405 l 1,5,-1
 188 349 l 1,6,-1
 132 349 l 1,7,-1
 132 405 l 1,4,-1
0 339 m 1,8,-1
 56 339 l 1,9,-1
 56 283 l 1,10,-1
 0 283 l 1,11,-1
 0 339 l 1,8,-1
66 339 m 1,12,-1
 122 339 l 1,13,-1
 122 283 l 1,14,-1
 66 283 l 1,15,-1
 66 339 l 1,12,-1
0 273 m 1,16,-1
 56 273 l 1,17,-1
 56 217 l 1,18,-1
 0 217 l 1,19,-1
 0 273 l 1,16,-1
66 273 m 1,20,-1
 122 273 l 1,21,-1
 122 217 l 1,22,-1
 66 217 l 1,23,-1
 66 273 l 1,20,-1
132 273 m 1,24,-1
 188 273 l 1,25,-1
 188 217 l 1,26,-1
 132 217 l 1,27,-1
 132 273 l 1,24,-1
198 273 m 1,28,-1
 254 273 l 1,29,-1
 254 217 l 1,30,-1
 198 217 l 1,31,-1
 198 273 l 1,28,-1
265 273 m 1,32,-1
 321 273 l 1,33,-1
 321 217 l 1,34,-1
 265 217 l 1,35,-1
 265 273 l 1,32,-1
331 273 m 1,36,-1
 387 273 l 1,37,-1
 387 217 l 1,38,-1
 331 217 l 1,39,-1
 331 273 l 1,36,-1
397 273 m 1,40,-1
 453 273 l 1,41,-1
 453 217 l 1,42,-1
 397 217 l 1,43,-1
 397 273 l 1,40,-1
0 670 m 1,44,-1
 56 670 l 1,45,-1
 56 614 l 1,46,-1
 0 614 l 1,47,-1
 0 670 l 1,44,-1
66 670 m 1,48,-1
 122 670 l 1,49,-1
 122 614 l 1,50,-1
 66 614 l 1,51,-1
 66 670 l 1,48,-1
132 670 m 1,52,-1
 188 670 l 1,53,-1
 188 614 l 1,54,-1
 132 614 l 1,55,-1
 132 670 l 1,52,-1
198 670 m 1,56,-1
 254 670 l 1,57,-1
 254 614 l 1,58,-1
 198 614 l 1,59,-1
 198 670 l 1,56,-1
265 670 m 1,60,-1
 321 670 l 1,61,-1
 321 614 l 1,62,-1
 265 614 l 1,63,-1
 265 670 l 1,60,-1
331 670 m 1,64,-1
 387 670 l 1,65,-1
 387 614 l 1,66,-1
 331 614 l 1,67,-1
 331 670 l 1,64,-1
397 670 m 1,68,-1
 453 670 l 1,69,-1
 453 614 l 1,70,-1
 397 614 l 1,71,-1
 397 670 l 1,68,-1
265 604 m 1,72,-1
 321 604 l 1,73,-1
 321 548 l 1,74,-1
 265 548 l 1,75,-1
 265 604 l 1,72,-1
331 604 m 1,76,-1
 387 604 l 1,77,-1
 387 548 l 1,78,-1
 331 548 l 1,79,-1
 331 604 l 1,76,-1
198 538 m 1,80,-1
 254 538 l 1,81,-1
 254 482 l 1,82,-1
 198 482 l 1,83,-1
 198 538 l 1,80,-1
265 538 m 1,84,-1
 321 538 l 1,85,-1
 321 482 l 1,86,-1
 265 482 l 1,87,-1
 265 538 l 1,84,-1
132 472 m 1,88,-1
 188 472 l 1,89,-1
 188 416 l 1,90,-1
 132 416 l 1,91,-1
 132 472 l 1,88,-1
198 472 m 1,92,-1
 254 472 l 1,93,-1
 254 416 l 1,94,-1
 198 416 l 1,95,-1
 198 472 l 1,92,-1
EndSplineSet
Validated: 1
EndChar

StartChar: bracketleft
Encoding: 91 91 62
Width: 304
Flags: W
LayerCount: 2
Fore
SplineSet
0 405 m 1,0,-1
 56 405 l 1,1,-1
 56 349 l 1,2,-1
 0 349 l 1,3,-1
 0 405 l 1,0,-1
66 405 m 1,4,-1
 122 405 l 1,5,-1
 122 349 l 1,6,-1
 66 349 l 1,7,-1
 66 405 l 1,4,-1
0 339 m 1,8,-1
 56 339 l 1,9,-1
 56 283 l 1,10,-1
 0 283 l 1,11,-1
 0 339 l 1,8,-1
66 339 m 1,12,-1
 122 339 l 1,13,-1
 122 283 l 1,14,-1
 66 283 l 1,15,-1
 66 339 l 1,12,-1
0 273 m 1,16,-1
 56 273 l 1,17,-1
 56 217 l 1,18,-1
 0 217 l 1,19,-1
 0 273 l 1,16,-1
66 273 m 1,20,-1
 122 273 l 1,21,-1
 122 217 l 1,22,-1
 66 217 l 1,23,-1
 66 273 l 1,20,-1
132 273 m 1,24,-1
 188 273 l 1,25,-1
 188 217 l 1,26,-1
 132 217 l 1,27,-1
 132 273 l 1,24,-1
0 670 m 1,28,-1
 56 670 l 1,29,-1
 56 614 l 1,30,-1
 0 614 l 1,31,-1
 0 670 l 1,28,-1
66 670 m 1,32,-1
 122 670 l 1,33,-1
 122 614 l 1,34,-1
 66 614 l 1,35,-1
 66 670 l 1,32,-1
132 670 m 1,36,-1
 188 670 l 1,37,-1
 188 614 l 1,38,-1
 132 614 l 1,39,-1
 132 670 l 1,36,-1
0 604 m 1,40,-1
 56 604 l 1,41,-1
 56 548 l 1,42,-1
 0 548 l 1,43,-1
 0 604 l 1,40,-1
66 604 m 1,44,-1
 122 604 l 1,45,-1
 122 548 l 1,46,-1
 66 548 l 1,47,-1
 66 604 l 1,44,-1
0 538 m 1,48,-1
 56 538 l 1,49,-1
 56 482 l 1,50,-1
 0 482 l 1,51,-1
 0 538 l 1,48,-1
66 538 m 1,52,-1
 122 538 l 1,53,-1
 122 482 l 1,54,-1
 66 482 l 1,55,-1
 66 538 l 1,52,-1
0 472 m 1,56,-1
 56 472 l 1,57,-1
 56 416 l 1,58,-1
 0 416 l 1,59,-1
 0 472 l 1,56,-1
66 472 m 1,60,-1
 122 472 l 1,61,-1
 122 416 l 1,62,-1
 66 416 l 1,63,-1
 66 472 l 1,60,-1
EndSplineSet
Validated: 1
EndChar

StartChar: backslash
Encoding: 92 92 63
Width: 520
Flags: W
LayerCount: 2
Fore
SplineSet
265 405 m 1,0,-1
 321 405 l 1,1,-1
 321 349 l 1,2,-1
 265 349 l 1,3,-1
 265 405 l 1,0,-1
331 405 m 1,4,-1
 387 405 l 1,5,-1
 387 349 l 1,6,-1
 331 349 l 1,7,-1
 331 405 l 1,4,-1
331 339 m 1,8,-1
 387 339 l 1,9,-1
 387 283 l 1,10,-1
 331 283 l 1,11,-1
 331 339 l 1,8,-1
397 339 m 1,12,-1
 453 339 l 1,13,-1
 453 283 l 1,14,-1
 397 283 l 1,15,-1
 397 339 l 1,12,-1
397 273 m 1,16,-1
 453 273 l 1,17,-1
 453 217 l 1,18,-1
 397 217 l 1,19,-1
 397 273 l 1,16,-1
0 670 m 1,20,-1
 56 670 l 1,21,-1
 56 614 l 1,22,-1
 0 614 l 1,23,-1
 0 670 l 1,20,-1
66 670 m 1,24,-1
 122 670 l 1,25,-1
 122 614 l 1,26,-1
 66 614 l 1,27,-1
 66 670 l 1,24,-1
66 604 m 1,28,-1
 122 604 l 1,29,-1
 122 548 l 1,30,-1
 66 548 l 1,31,-1
 66 604 l 1,28,-1
132 604 m 1,32,-1
 188 604 l 1,33,-1
 188 548 l 1,34,-1
 132 548 l 1,35,-1
 132 604 l 1,32,-1
132 538 m 1,36,-1
 188 538 l 1,37,-1
 188 482 l 1,38,-1
 132 482 l 1,39,-1
 132 538 l 1,36,-1
198 538 m 1,40,-1
 254 538 l 1,41,-1
 254 482 l 1,42,-1
 198 482 l 1,43,-1
 198 538 l 1,40,-1
198 472 m 1,44,-1
 254 472 l 1,45,-1
 254 416 l 1,46,-1
 198 416 l 1,47,-1
 198 472 l 1,44,-1
265 472 m 1,48,-1
 321 472 l 1,49,-1
 321 416 l 1,50,-1
 265 416 l 1,51,-1
 265 472 l 1,48,-1
EndSplineSet
Validated: 1
EndChar

StartChar: bracketright
Encoding: 93 93 64
Width: 320
Flags: W
LayerCount: 2
Fore
SplineSet
66 405 m 1,0,-1
 122 405 l 1,1,-1
 122 349 l 1,2,-1
 66 349 l 1,3,-1
 66 405 l 1,0,-1
132 405 m 1,4,-1
 188 405 l 1,5,-1
 188 349 l 1,6,-1
 132 349 l 1,7,-1
 132 405 l 1,4,-1
66 339 m 1,8,-1
 122 339 l 1,9,-1
 122 283 l 1,10,-1
 66 283 l 1,11,-1
 66 339 l 1,8,-1
132 339 m 1,12,-1
 188 339 l 1,13,-1
 188 283 l 1,14,-1
 132 283 l 1,15,-1
 132 339 l 1,12,-1
0 273 m 1,16,-1
 56 273 l 1,17,-1
 56 217 l 1,18,-1
 0 217 l 1,19,-1
 0 273 l 1,16,-1
66 273 m 1,20,-1
 122 273 l 1,21,-1
 122 217 l 1,22,-1
 66 217 l 1,23,-1
 66 273 l 1,20,-1
132 273 m 1,24,-1
 188 273 l 1,25,-1
 188 217 l 1,26,-1
 132 217 l 1,27,-1
 132 273 l 1,24,-1
0 670 m 1,28,-1
 56 670 l 1,29,-1
 56 614 l 1,30,-1
 0 614 l 1,31,-1
 0 670 l 1,28,-1
66 670 m 1,32,-1
 122 670 l 1,33,-1
 122 614 l 1,34,-1
 66 614 l 1,35,-1
 66 670 l 1,32,-1
132 670 m 1,36,-1
 188 670 l 1,37,-1
 188 614 l 1,38,-1
 132 614 l 1,39,-1
 132 670 l 1,36,-1
56 604 m 1024,40,-1
66 604 m 1,41,-1
 122 604 l 1,42,-1
 122 548 l 1,43,-1
 66 548 l 1,44,-1
 66 604 l 1,41,-1
132 604 m 1,45,-1
 188 604 l 1,46,-1
 188 548 l 1,47,-1
 132 548 l 1,48,-1
 132 604 l 1,45,-1
66 538 m 1,49,-1
 122 538 l 1,50,-1
 122 482 l 1,51,-1
 66 482 l 1,52,-1
 66 538 l 1,49,-1
132 538 m 1,53,-1
 188 538 l 1,54,-1
 188 482 l 1,55,-1
 132 482 l 1,56,-1
 132 538 l 1,53,-1
66 472 m 1,57,-1
 122 472 l 1,58,-1
 122 416 l 1,59,-1
 66 416 l 1,60,-1
 66 472 l 1,57,-1
132 472 m 1,61,-1
 188 472 l 1,62,-1
 188 416 l 1,63,-1
 132 416 l 1,64,-1
 132 472 l 1,61,-1
EndSplineSet
Validated: 1
EndChar

StartChar: a
Encoding: 97 97 65
Width: 520
Flags: W
LayerCount: 2
Fore
SplineSet
66 405 m 1,0,-1
 122 405 l 1,1,-1
 122 349 l 1,2,-1
 66 349 l 1,3,-1
 66 405 l 1,0,-1
132 405 m 1,4,-1
 188 405 l 1,5,-1
 188 349 l 1,6,-1
 132 349 l 1,7,-1
 132 405 l 1,4,-1
198 405 m 1,8,-1
 254 405 l 1,9,-1
 254 349 l 1,10,-1
 198 349 l 1,11,-1
 198 405 l 1,8,-1
265 405 m 1,12,-1
 321 405 l 1,13,-1
 321 349 l 1,14,-1
 265 349 l 1,15,-1
 265 405 l 1,12,-1
331 405 m 1,16,-1
 387 405 l 1,17,-1
 387 349 l 1,18,-1
 331 349 l 1,19,-1
 331 405 l 1,16,-1
397 405 m 1,20,-1
 453 405 l 1,21,-1
 453 349 l 1,22,-1
 397 349 l 1,23,-1
 397 405 l 1,20,-1
0 339 m 1,24,-1
 56 339 l 1,25,-1
 56 283 l 1,26,-1
 0 283 l 1,27,-1
 0 339 l 1,24,-1
66 339 m 1,28,-1
 122 339 l 1,29,-1
 122 283 l 1,30,-1
 66 283 l 1,31,-1
 66 339 l 1,28,-1
331 339 m 1,32,-1
 387 339 l 1,33,-1
 387 283 l 1,34,-1
 331 283 l 1,35,-1
 331 339 l 1,32,-1
397 339 m 1,36,-1
 453 339 l 1,37,-1
 453 283 l 1,38,-1
 397 283 l 1,39,-1
 397 339 l 1,36,-1
66 273 m 1,40,-1
 122 273 l 1,41,-1
 122 217 l 1,42,-1
 66 217 l 1,43,-1
 66 273 l 1,40,-1
132 273 m 1,44,-1
 188 273 l 1,45,-1
 188 217 l 1,46,-1
 132 217 l 1,47,-1
 132 273 l 1,44,-1
198 273 m 1,48,-1
 254 273 l 1,49,-1
 254 217 l 1,50,-1
 198 217 l 1,51,-1
 198 273 l 1,48,-1
265 273 m 1,52,-1
 321 273 l 1,53,-1
 321 217 l 1,54,-1
 265 217 l 1,55,-1
 265 273 l 1,52,-1
331 273 m 1,56,-1
 387 273 l 1,57,-1
 387 217 l 1,58,-1
 331 217 l 1,59,-1
 331 273 l 1,56,-1
397 273 m 1,60,-1
 453 273 l 1,61,-1
 453 217 l 1,62,-1
 397 217 l 1,63,-1
 397 273 l 1,60,-1
66 538 m 1,64,-1
 122 538 l 1,65,-1
 122 482 l 1,66,-1
 66 482 l 1,67,-1
 66 538 l 1,64,-1
132 538 m 1,68,-1
 188 538 l 1,69,-1
 188 482 l 1,70,-1
 132 482 l 1,71,-1
 132 538 l 1,68,-1
198 538 m 1,72,-1
 254 538 l 1,73,-1
 254 482 l 1,74,-1
 198 482 l 1,75,-1
 198 538 l 1,72,-1
265 538 m 1,76,-1
 321 538 l 1,77,-1
 321 482 l 1,78,-1
 265 482 l 1,79,-1
 265 538 l 1,76,-1
331 538 m 1,80,-1
 387 538 l 1,81,-1
 387 482 l 1,82,-1
 331 482 l 1,83,-1
 331 538 l 1,80,-1
331 472 m 1,84,-1
 387 472 l 1,85,-1
 387 416 l 1,86,-1
 331 416 l 1,87,-1
 331 472 l 1,84,-1
397 472 m 1,88,-1
 453 472 l 1,89,-1
 453 416 l 1,90,-1
 397 416 l 1,91,-1
 397 472 l 1,88,-1
EndSplineSet
Validated: 1
EndChar

StartChar: b
Encoding: 98 98 66
Width: 520
Flags: W
LayerCount: 2
Fore
SplineSet
0 405 m 1,0,-1
 56 405 l 1,1,-1
 56 349 l 1,2,-1
 0 349 l 1,3,-1
 0 405 l 1,0,-1
66 405 m 1,4,-1
 122 405 l 1,5,-1
 122 349 l 1,6,-1
 66 349 l 1,7,-1
 66 405 l 1,4,-1
331 405 m 1,8,-1
 387 405 l 1,9,-1
 387 349 l 1,10,-1
 331 349 l 1,11,-1
 331 405 l 1,8,-1
397 405 m 1,12,-1
 453 405 l 1,13,-1
 453 349 l 1,14,-1
 397 349 l 1,15,-1
 397 405 l 1,12,-1
0 339 m 1,16,-1
 56 339 l 1,17,-1
 56 283 l 1,18,-1
 0 283 l 1,19,-1
 0 339 l 1,16,-1
66 339 m 1,20,-1
 122 339 l 1,21,-1
 122 283 l 1,22,-1
 66 283 l 1,23,-1
 66 339 l 1,20,-1
331 339 m 1,24,-1
 387 339 l 1,25,-1
 387 283 l 1,26,-1
 331 283 l 1,27,-1
 331 339 l 1,24,-1
397 339 m 1,28,-1
 453 339 l 1,29,-1
 453 283 l 1,30,-1
 397 283 l 1,31,-1
 397 339 l 1,28,-1
0 273 m 1,32,-1
 56 273 l 1,33,-1
 56 217 l 1,34,-1
 0 217 l 1,35,-1
 0 273 l 1,32,-1
66 273 m 1,36,-1
 122 273 l 1,37,-1
 122 217 l 1,38,-1
 66 217 l 1,39,-1
 66 273 l 1,36,-1
132 273 m 1,40,-1
 188 273 l 1,41,-1
 188 217 l 1,42,-1
 132 217 l 1,43,-1
 132 273 l 1,40,-1
198 273 m 1,44,-1
 254 273 l 1,45,-1
 254 217 l 1,46,-1
 198 217 l 1,47,-1
 198 273 l 1,44,-1
265 273 m 1,48,-1
 321 273 l 1,49,-1
 321 217 l 1,50,-1
 265 217 l 1,51,-1
 265 273 l 1,48,-1
331 273 m 1,52,-1
 387 273 l 1,53,-1
 387 217 l 1,54,-1
 331 217 l 1,55,-1
 331 273 l 1,52,-1
0 670 m 1,56,-1
 56 670 l 1,57,-1
 56 614 l 1,58,-1
 0 614 l 1,59,-1
 0 670 l 1,56,-1
66 670 m 1,60,-1
 122 670 l 1,61,-1
 122 614 l 1,62,-1
 66 614 l 1,63,-1
 66 670 l 1,60,-1
0 604 m 1,64,-1
 56 604 l 1,65,-1
 56 548 l 1,66,-1
 0 548 l 1,67,-1
 0 604 l 1,64,-1
66 604 m 1,68,-1
 122 604 l 1,69,-1
 122 548 l 1,70,-1
 66 548 l 1,71,-1
 66 604 l 1,68,-1
0 538 m 1,72,-1
 56 538 l 1,73,-1
 56 482 l 1,74,-1
 0 482 l 1,75,-1
 0 538 l 1,72,-1
66 538 m 1,76,-1
 122 538 l 1,77,-1
 122 482 l 1,78,-1
 66 482 l 1,79,-1
 66 538 l 1,76,-1
132 538 m 1,80,-1
 188 538 l 1,81,-1
 188 482 l 1,82,-1
 132 482 l 1,83,-1
 132 538 l 1,80,-1
198 538 m 1,84,-1
 254 538 l 1,85,-1
 254 482 l 1,86,-1
 198 482 l 1,87,-1
 198 538 l 1,84,-1
265 538 m 1,88,-1
 321 538 l 1,89,-1
 321 482 l 1,90,-1
 265 482 l 1,91,-1
 265 538 l 1,88,-1
331 538 m 1,92,-1
 387 538 l 1,93,-1
 387 482 l 1,94,-1
 331 482 l 1,95,-1
 331 538 l 1,92,-1
0 472 m 1,96,-1
 56 472 l 1,97,-1
 56 416 l 1,98,-1
 0 416 l 1,99,-1
 0 472 l 1,96,-1
66 472 m 1,100,-1
 122 472 l 1,101,-1
 122 416 l 1,102,-1
 66 416 l 1,103,-1
 66 472 l 1,100,-1
331 472 m 1,104,-1
 387 472 l 1,105,-1
 387 416 l 1,106,-1
 331 416 l 1,107,-1
 331 472 l 1,104,-1
397 472 m 1,108,-1
 453 472 l 1,109,-1
 453 416 l 1,110,-1
 397 416 l 1,111,-1
 397 472 l 1,108,-1
EndSplineSet
Validated: 1
EndChar

StartChar: c
Encoding: 99 99 67
Width: 520
Flags: W
LayerCount: 2
Fore
SplineSet
0 405 m 1,0,-1
 56 405 l 1,1,-1
 56 349 l 1,2,-1
 0 349 l 1,3,-1
 0 405 l 1,0,-1
66 405 m 1,4,-1
 122 405 l 1,5,-1
 122 349 l 1,6,-1
 66 349 l 1,7,-1
 66 405 l 1,4,-1
0 339 m 1,8,-1
 56 339 l 1,9,-1
 56 283 l 1,10,-1
 0 283 l 1,11,-1
 0 339 l 1,8,-1
66 339 m 1,12,-1
 122 339 l 1,13,-1
 122 283 l 1,14,-1
 66 283 l 1,15,-1
 66 339 l 1,12,-1
331 339 m 1,16,-1
 387 339 l 1,17,-1
 387 283 l 1,18,-1
 331 283 l 1,19,-1
 331 339 l 1,16,-1
397 339 m 1,20,-1
 453 339 l 1,21,-1
 453 283 l 1,22,-1
 397 283 l 1,23,-1
 397 339 l 1,20,-1
66 273 m 1,24,-1
 122 273 l 1,25,-1
 122 217 l 1,26,-1
 66 217 l 1,27,-1
 66 273 l 1,24,-1
132 273 m 1,28,-1
 188 273 l 1,29,-1
 188 217 l 1,30,-1
 132 217 l 1,31,-1
 132 273 l 1,28,-1
198 273 m 1,32,-1
 254 273 l 1,33,-1
 254 217 l 1,34,-1
 198 217 l 1,35,-1
 198 273 l 1,32,-1
265 273 m 1,36,-1
 321 273 l 1,37,-1
 321 217 l 1,38,-1
 265 217 l 1,39,-1
 265 273 l 1,36,-1
331 273 m 1,40,-1
 387 273 l 1,41,-1
 387 217 l 1,42,-1
 331 217 l 1,43,-1
 331 273 l 1,40,-1
66 538 m 1,44,-1
 122 538 l 1,45,-1
 122 482 l 1,46,-1
 66 482 l 1,47,-1
 66 538 l 1,44,-1
132 538 m 1,48,-1
 188 538 l 1,49,-1
 188 482 l 1,50,-1
 132 482 l 1,51,-1
 132 538 l 1,48,-1
198 538 m 1,52,-1
 254 538 l 1,53,-1
 254 482 l 1,54,-1
 198 482 l 1,55,-1
 198 538 l 1,52,-1
265 538 m 1,56,-1
 321 538 l 1,57,-1
 321 482 l 1,58,-1
 265 482 l 1,59,-1
 265 538 l 1,56,-1
331 538 m 1,60,-1
 387 538 l 1,61,-1
 387 482 l 1,62,-1
 331 482 l 1,63,-1
 331 538 l 1,60,-1
0 472 m 1,64,-1
 56 472 l 1,65,-1
 56 416 l 1,66,-1
 0 416 l 1,67,-1
 0 472 l 1,64,-1
66 472 m 1,68,-1
 122 472 l 1,69,-1
 122 416 l 1,70,-1
 66 416 l 1,71,-1
 66 472 l 1,68,-1
331 472 m 1,72,-1
 387 472 l 1,73,-1
 387 416 l 1,74,-1
 331 416 l 1,75,-1
 331 472 l 1,72,-1
397 472 m 1,76,-1
 453 472 l 1,77,-1
 453 416 l 1,78,-1
 397 416 l 1,79,-1
 397 472 l 1,76,-1
EndSplineSet
Validated: 1
EndChar

StartChar: d
Encoding: 100 100 68
Width: 520
Flags: W
LayerCount: 2
Fore
SplineSet
0 405 m 1,0,-1
 56 405 l 1,1,-1
 56 349 l 1,2,-1
 0 349 l 1,3,-1
 0 405 l 1,0,-1
66 405 m 1,4,-1
 122 405 l 1,5,-1
 122 349 l 1,6,-1
 66 349 l 1,7,-1
 66 405 l 1,4,-1
331 405 m 1,8,-1
 387 405 l 1,9,-1
 387 349 l 1,10,-1
 331 349 l 1,11,-1
 331 405 l 1,8,-1
397 405 m 1,12,-1
 453 405 l 1,13,-1
 453 349 l 1,14,-1
 397 349 l 1,15,-1
 397 405 l 1,12,-1
0 339 m 1,16,-1
 56 339 l 1,17,-1
 56 283 l 1,18,-1
 0 283 l 1,19,-1
 0 339 l 1,16,-1
66 339 m 1,20,-1
 122 339 l 1,21,-1
 122 283 l 1,22,-1
 66 283 l 1,23,-1
 66 339 l 1,20,-1
331 339 m 1,24,-1
 387 339 l 1,25,-1
 387 283 l 1,26,-1
 331 283 l 1,27,-1
 331 339 l 1,24,-1
397 339 m 1,28,-1
 453 339 l 1,29,-1
 453 283 l 1,30,-1
 397 283 l 1,31,-1
 397 339 l 1,28,-1
66 273 m 1,32,-1
 122 273 l 1,33,-1
 122 217 l 1,34,-1
 66 217 l 1,35,-1
 66 273 l 1,32,-1
132 273 m 1,36,-1
 188 273 l 1,37,-1
 188 217 l 1,38,-1
 132 217 l 1,39,-1
 132 273 l 1,36,-1
198 273 m 1,40,-1
 254 273 l 1,41,-1
 254 217 l 1,42,-1
 198 217 l 1,43,-1
 198 273 l 1,40,-1
265 273 m 1,44,-1
 321 273 l 1,45,-1
 321 217 l 1,46,-1
 265 217 l 1,47,-1
 265 273 l 1,44,-1
331 273 m 1,48,-1
 387 273 l 1,49,-1
 387 217 l 1,50,-1
 331 217 l 1,51,-1
 331 273 l 1,48,-1
397 273 m 1,52,-1
 453 273 l 1,53,-1
 453 217 l 1,54,-1
 397 217 l 1,55,-1
 397 273 l 1,52,-1
331 670 m 1,56,-1
 387 670 l 1,57,-1
 387 614 l 1,58,-1
 331 614 l 1,59,-1
 331 670 l 1,56,-1
397 670 m 1,60,-1
 453 670 l 1,61,-1
 453 614 l 1,62,-1
 397 614 l 1,63,-1
 397 670 l 1,60,-1
331 604 m 1,64,-1
 387 604 l 1,65,-1
 387 548 l 1,66,-1
 331 548 l 1,67,-1
 331 604 l 1,64,-1
397 604 m 1,68,-1
 453 604 l 1,69,-1
 453 548 l 1,70,-1
 397 548 l 1,71,-1
 397 604 l 1,68,-1
66 538 m 1,72,-1
 122 538 l 1,73,-1
 122 482 l 1,74,-1
 66 482 l 1,75,-1
 66 538 l 1,72,-1
132 538 m 1,76,-1
 188 538 l 1,77,-1
 188 482 l 1,78,-1
 132 482 l 1,79,-1
 132 538 l 1,76,-1
198 538 m 1,80,-1
 254 538 l 1,81,-1
 254 482 l 1,82,-1
 198 482 l 1,83,-1
 198 538 l 1,80,-1
265 538 m 1,84,-1
 321 538 l 1,85,-1
 321 482 l 1,86,-1
 265 482 l 1,87,-1
 265 538 l 1,84,-1
331 538 m 1,88,-1
 387 538 l 1,89,-1
 387 482 l 1,90,-1
 331 482 l 1,91,-1
 331 538 l 1,88,-1
397 538 m 1,92,-1
 453 538 l 1,93,-1
 453 482 l 1,94,-1
 397 482 l 1,95,-1
 397 538 l 1,92,-1
0 472 m 1,96,-1
 56 472 l 1,97,-1
 56 416 l 1,98,-1
 0 416 l 1,99,-1
 0 472 l 1,96,-1
66 472 m 1,100,-1
 122 472 l 1,101,-1
 122 416 l 1,102,-1
 66 416 l 1,103,-1
 66 472 l 1,100,-1
331 472 m 1,104,-1
 387 472 l 1,105,-1
 387 416 l 1,106,-1
 331 416 l 1,107,-1
 331 472 l 1,104,-1
397 472 m 1,108,-1
 453 472 l 1,109,-1
 453 416 l 1,110,-1
 397 416 l 1,111,-1
 397 472 l 1,108,-1
EndSplineSet
Validated: 1
EndChar

StartChar: e
Encoding: 101 101 69
Width: 520
Flags: W
LayerCount: 2
Fore
SplineSet
0 405 m 1,0,-1
 56 405 l 1,1,-1
 56 349 l 1,2,-1
 0 349 l 1,3,-1
 0 405 l 1,0,-1
66 405 m 1,4,-1
 122 405 l 1,5,-1
 122 349 l 1,6,-1
 66 349 l 1,7,-1
 66 405 l 1,4,-1
132 405 m 1,8,-1
 188 405 l 1,9,-1
 188 349 l 1,10,-1
 132 349 l 1,11,-1
 132 405 l 1,8,-1
198 405 m 1,12,-1
 254 405 l 1,13,-1
 254 349 l 1,14,-1
 198 349 l 1,15,-1
 198 405 l 1,12,-1
265 405 m 1,16,-1
 321 405 l 1,17,-1
 321 349 l 1,18,-1
 265 349 l 1,19,-1
 265 405 l 1,16,-1
331 405 m 1,20,-1
 387 405 l 1,21,-1
 387 349 l 1,22,-1
 331 349 l 1,23,-1
 331 405 l 1,20,-1
397 405 m 1,24,-1
 453 405 l 1,25,-1
 453 349 l 1,26,-1
 397 349 l 1,27,-1
 397 405 l 1,24,-1
0 339 m 1,28,-1
 56 339 l 1,29,-1
 56 283 l 1,30,-1
 0 283 l 1,31,-1
 0 339 l 1,28,-1
66 339 m 1,32,-1
 122 339 l 1,33,-1
 122 283 l 1,34,-1
 66 283 l 1,35,-1
 66 339 l 1,32,-1
66 273 m 1,36,-1
 122 273 l 1,37,-1
 122 217 l 1,38,-1
 66 217 l 1,39,-1
 66 273 l 1,36,-1
132 273 m 1,40,-1
 188 273 l 1,41,-1
 188 217 l 1,42,-1
 132 217 l 1,43,-1
 132 273 l 1,40,-1
198 273 m 1,44,-1
 254 273 l 1,45,-1
 254 217 l 1,46,-1
 198 217 l 1,47,-1
 198 273 l 1,44,-1
265 273 m 1,48,-1
 321 273 l 1,49,-1
 321 217 l 1,50,-1
 265 217 l 1,51,-1
 265 273 l 1,48,-1
331 273 m 1,52,-1
 387 273 l 1,53,-1
 387 217 l 1,54,-1
 331 217 l 1,55,-1
 331 273 l 1,52,-1
66 538 m 1,56,-1
 122 538 l 1,57,-1
 122 482 l 1,58,-1
 66 482 l 1,59,-1
 66 538 l 1,56,-1
132 538 m 1,60,-1
 188 538 l 1,61,-1
 188 482 l 1,62,-1
 132 482 l 1,63,-1
 132 538 l 1,60,-1
198 538 m 1,64,-1
 254 538 l 1,65,-1
 254 482 l 1,66,-1
 198 482 l 1,67,-1
 198 538 l 1,64,-1
265 538 m 1,68,-1
 321 538 l 1,69,-1
 321 482 l 1,70,-1
 265 482 l 1,71,-1
 265 538 l 1,68,-1
331 538 m 1,72,-1
 387 538 l 1,73,-1
 387 482 l 1,74,-1
 331 482 l 1,75,-1
 331 538 l 1,72,-1
0 472 m 1,76,-1
 56 472 l 1,77,-1
 56 416 l 1,78,-1
 0 416 l 1,79,-1
 0 472 l 1,76,-1
66 472 m 1,80,-1
 122 472 l 1,81,-1
 122 416 l 1,82,-1
 66 416 l 1,83,-1
 66 472 l 1,80,-1
331 472 m 1,84,-1
 387 472 l 1,85,-1
 387 416 l 1,86,-1
 331 416 l 1,87,-1
 331 472 l 1,84,-1
397 472 m 1,88,-1
 453 472 l 1,89,-1
 453 416 l 1,90,-1
 397 416 l 1,91,-1
 397 472 l 1,88,-1
EndSplineSet
Validated: 1
EndChar

StartChar: f
Encoding: 102 102 70
Width: 392
Flags: W
LayerCount: 2
Fore
SplineSet
66 405 m 1,0,-1
 122 405 l 1,1,-1
 122 349 l 1,2,-1
 66 349 l 1,3,-1
 66 405 l 1,0,-1
132 405 m 1,4,-1
 188 405 l 1,5,-1
 188 349 l 1,6,-1
 132 349 l 1,7,-1
 132 405 l 1,4,-1
66 339 m 1,8,-1
 122 339 l 1,9,-1
 122 283 l 1,10,-1
 66 283 l 1,11,-1
 66 339 l 1,8,-1
132 339 m 1,12,-1
 188 339 l 1,13,-1
 188 283 l 1,14,-1
 132 283 l 1,15,-1
 132 339 l 1,12,-1
66 273 m 1,16,-1
 122 273 l 1,17,-1
 122 217 l 1,18,-1
 66 217 l 1,19,-1
 66 273 l 1,16,-1
132 273 m 1,20,-1
 188 273 l 1,21,-1
 188 217 l 1,22,-1
 132 217 l 1,23,-1
 132 273 l 1,20,-1
132 670 m 1,24,-1
 188 670 l 1,25,-1
 188 614 l 1,26,-1
 132 614 l 1,27,-1
 132 670 l 1,24,-1
198 670 m 1,28,-1
 254 670 l 1,29,-1
 254 614 l 1,30,-1
 198 614 l 1,31,-1
 198 670 l 1,28,-1
265 670 m 1,32,-1
 321 670 l 1,33,-1
 321 614 l 1,34,-1
 265 614 l 1,35,-1
 265 670 l 1,32,-1
66 604 m 1,36,-1
 122 604 l 1,37,-1
 122 548 l 1,38,-1
 66 548 l 1,39,-1
 66 604 l 1,36,-1
132 604 m 1,40,-1
 188 604 l 1,41,-1
 188 548 l 1,42,-1
 132 548 l 1,43,-1
 132 604 l 1,40,-1
0 538 m 1,44,-1
 56 538 l 1,45,-1
 56 482 l 1,46,-1
 0 482 l 1,47,-1
 0 538 l 1,44,-1
66 538 m 1,48,-1
 122 538 l 1,49,-1
 122 482 l 1,50,-1
 66 482 l 1,51,-1
 66 538 l 1,48,-1
132 538 m 1,52,-1
 188 538 l 1,53,-1
 188 482 l 1,54,-1
 132 482 l 1,55,-1
 132 538 l 1,52,-1
198 538 m 1,56,-1
 254 538 l 1,57,-1
 254 482 l 1,58,-1
 198 482 l 1,59,-1
 198 538 l 1,56,-1
66 472 m 1,60,-1
 122 472 l 1,61,-1
 122 416 l 1,62,-1
 66 416 l 1,63,-1
 66 472 l 1,60,-1
132 472 m 1,64,-1
 188 472 l 1,65,-1
 188 416 l 1,66,-1
 132 416 l 1,67,-1
 132 472 l 1,64,-1
EndSplineSet
Validated: 1
EndChar

StartChar: g
Encoding: 103 103 71
Width: 520
Flags: W
LayerCount: 2
Fore
SplineSet
0 405 m 1,0,-1
 56 405 l 1,1,-1
 56 349 l 1,2,-1
 0 349 l 1,3,-1
 0 405 l 1,0,-1
66 405 m 1,4,-1
 122 405 l 1,5,-1
 122 349 l 1,6,-1
 66 349 l 1,7,-1
 66 405 l 1,4,-1
331 405 m 1,8,-1
 387 405 l 1,9,-1
 387 349 l 1,10,-1
 331 349 l 1,11,-1
 331 405 l 1,8,-1
397 405 m 1,12,-1
 453 405 l 1,13,-1
 453 349 l 1,14,-1
 397 349 l 1,15,-1
 397 405 l 1,12,-1
0 339 m 1,16,-1
 56 339 l 1,17,-1
 56 283 l 1,18,-1
 0 283 l 1,19,-1
 0 339 l 1,16,-1
66 339 m 1,20,-1
 122 339 l 1,21,-1
 122 283 l 1,22,-1
 66 283 l 1,23,-1
 66 339 l 1,20,-1
331 339 m 1,24,-1
 387 339 l 1,25,-1
 387 283 l 1,26,-1
 331 283 l 1,27,-1
 331 339 l 1,24,-1
397 339 m 1,28,-1
 453 339 l 1,29,-1
 453 283 l 1,30,-1
 397 283 l 1,31,-1
 397 339 l 1,28,-1
66 273 m 1,32,-1
 122 273 l 1,33,-1
 122 217 l 1,34,-1
 66 217 l 1,35,-1
 66 273 l 1,32,-1
132 273 m 1,36,-1
 188 273 l 1,37,-1
 188 217 l 1,38,-1
 132 217 l 1,39,-1
 132 273 l 1,36,-1
198 273 m 1,40,-1
 254 273 l 1,41,-1
 254 217 l 1,42,-1
 198 217 l 1,43,-1
 198 273 l 1,40,-1
265 273 m 1,44,-1
 321 273 l 1,45,-1
 321 217 l 1,46,-1
 265 217 l 1,47,-1
 265 273 l 1,44,-1
331 273 m 1,48,-1
 387 273 l 1,49,-1
 387 217 l 1,50,-1
 331 217 l 1,51,-1
 331 273 l 1,48,-1
397 273 m 1,52,-1
 453 273 l 1,53,-1
 453 217 l 1,54,-1
 397 217 l 1,55,-1
 397 273 l 1,52,-1
331 207 m 1,56,-1
 387 207 l 1,57,-1
 387 151 l 1,58,-1
 331 151 l 1,59,-1
 331 207 l 1,56,-1
397 207 m 1,60,-1
 453 207 l 1,61,-1
 453 151 l 1,62,-1
 397 151 l 1,63,-1
 397 207 l 1,60,-1
66 538 m 1,64,-1
 122 538 l 1,65,-1
 122 482 l 1,66,-1
 66 482 l 1,67,-1
 66 538 l 1,64,-1
132 538 m 1,68,-1
 188 538 l 1,69,-1
 188 482 l 1,70,-1
 132 482 l 1,71,-1
 132 538 l 1,68,-1
198 538 m 1,72,-1
 254 538 l 1,73,-1
 254 482 l 1,74,-1
 198 482 l 1,75,-1
 198 538 l 1,72,-1
265 538 m 1,76,-1
 321 538 l 1,77,-1
 321 482 l 1,78,-1
 265 482 l 1,79,-1
 265 538 l 1,76,-1
331 538 m 1,80,-1
 387 538 l 1,81,-1
 387 482 l 1,82,-1
 331 482 l 1,83,-1
 331 538 l 1,80,-1
0 472 m 1,84,-1
 56 472 l 1,85,-1
 56 416 l 1,86,-1
 0 416 l 1,87,-1
 0 472 l 1,84,-1
66 472 m 1,88,-1
 122 472 l 1,89,-1
 122 416 l 1,90,-1
 66 416 l 1,91,-1
 66 472 l 1,88,-1
331 472 m 1,92,-1
 387 472 l 1,93,-1
 387 416 l 1,94,-1
 331 416 l 1,95,-1
 331 472 l 1,92,-1
397 472 m 1,96,-1
 453 472 l 1,97,-1
 453 416 l 1,98,-1
 397 416 l 1,99,-1
 397 472 l 1,96,-1
66 140 m 1,100,-1
 122 140 l 1,101,-1
 122 84 l 1,102,-1
 66 84 l 1,103,-1
 66 140 l 1,100,-1
132 140 m 1,104,-1
 188 140 l 1,105,-1
 188 84 l 1,106,-1
 132 84 l 1,107,-1
 132 140 l 1,104,-1
198 140 m 1,108,-1
 254 140 l 1,109,-1
 254 84 l 1,110,-1
 198 84 l 1,111,-1
 198 140 l 1,108,-1
265 140 m 1,112,-1
 321 140 l 1,113,-1
 321 84 l 1,114,-1
 265 84 l 1,115,-1
 265 140 l 1,112,-1
331 140 m 1,116,-1
 387 140 l 1,117,-1
 387 84 l 1,118,-1
 331 84 l 1,119,-1
 331 140 l 1,116,-1
EndSplineSet
Validated: 1
EndChar

StartChar: h
Encoding: 104 104 72
Width: 520
Flags: W
LayerCount: 2
Fore
SplineSet
0 405 m 1,0,-1
 56 405 l 1,1,-1
 56 349 l 1,2,-1
 0 349 l 1,3,-1
 0 405 l 1,0,-1
66 405 m 1,4,-1
 122 405 l 1,5,-1
 122 349 l 1,6,-1
 66 349 l 1,7,-1
 66 405 l 1,4,-1
331 405 m 1,8,-1
 387 405 l 1,9,-1
 387 349 l 1,10,-1
 331 349 l 1,11,-1
 331 405 l 1,8,-1
397 405 m 1,12,-1
 453 405 l 1,13,-1
 453 349 l 1,14,-1
 397 349 l 1,15,-1
 397 405 l 1,12,-1
0 339 m 1,16,-1
 56 339 l 1,17,-1
 56 283 l 1,18,-1
 0 283 l 1,19,-1
 0 339 l 1,16,-1
66 339 m 1,20,-1
 122 339 l 1,21,-1
 122 283 l 1,22,-1
 66 283 l 1,23,-1
 66 339 l 1,20,-1
331 339 m 1,24,-1
 387 339 l 1,25,-1
 387 283 l 1,26,-1
 331 283 l 1,27,-1
 331 339 l 1,24,-1
397 339 m 1,28,-1
 453 339 l 1,29,-1
 453 283 l 1,30,-1
 397 283 l 1,31,-1
 397 339 l 1,28,-1
0 273 m 1,32,-1
 56 273 l 1,33,-1
 56 217 l 1,34,-1
 0 217 l 1,35,-1
 0 273 l 1,32,-1
66 273 m 1,36,-1
 122 273 l 1,37,-1
 122 217 l 1,38,-1
 66 217 l 1,39,-1
 66 273 l 1,36,-1
331 273 m 1,40,-1
 387 273 l 1,41,-1
 387 217 l 1,42,-1
 331 217 l 1,43,-1
 331 273 l 1,40,-1
397 273 m 1,44,-1
 453 273 l 1,45,-1
 453 217 l 1,46,-1
 397 217 l 1,47,-1
 397 273 l 1,44,-1
0 670 m 1,48,-1
 56 670 l 1,49,-1
 56 614 l 1,50,-1
 0 614 l 1,51,-1
 0 670 l 1,48,-1
66 670 m 1,52,-1
 122 670 l 1,53,-1
 122 614 l 1,54,-1
 66 614 l 1,55,-1
 66 670 l 1,52,-1
0 604 m 1,56,-1
 56 604 l 1,57,-1
 56 548 l 1,58,-1
 0 548 l 1,59,-1
 0 604 l 1,56,-1
66 604 m 1,60,-1
 122 604 l 1,61,-1
 122 548 l 1,62,-1
 66 548 l 1,63,-1
 66 604 l 1,60,-1
0 538 m 1,64,-1
 56 538 l 1,65,-1
 56 482 l 1,66,-1
 0 482 l 1,67,-1
 0 538 l 1,64,-1
66 538 m 1,68,-1
 122 538 l 1,69,-1
 122 482 l 1,70,-1
 66 482 l 1,71,-1
 66 538 l 1,68,-1
132 538 m 1,72,-1
 188 538 l 1,73,-1
 188 482 l 1,74,-1
 132 482 l 1,75,-1
 132 538 l 1,72,-1
198 538 m 1,76,-1
 254 538 l 1,77,-1
 254 482 l 1,78,-1
 198 482 l 1,79,-1
 198 538 l 1,76,-1
265 538 m 1,80,-1
 321 538 l 1,81,-1
 321 482 l 1,82,-1
 265 482 l 1,83,-1
 265 538 l 1,80,-1
331 538 m 1,84,-1
 387 538 l 1,85,-1
 387 482 l 1,86,-1
 331 482 l 1,87,-1
 331 538 l 1,84,-1
0 472 m 1,88,-1
 56 472 l 1,89,-1
 56 416 l 1,90,-1
 0 416 l 1,91,-1
 0 472 l 1,88,-1
66 472 m 1,92,-1
 122 472 l 1,93,-1
 122 416 l 1,94,-1
 66 416 l 1,95,-1
 66 472 l 1,92,-1
331 472 m 1,96,-1
 387 472 l 1,97,-1
 387 416 l 1,98,-1
 331 416 l 1,99,-1
 331 472 l 1,96,-1
397 472 m 1,100,-1
 453 472 l 1,101,-1
 453 416 l 1,102,-1
 397 416 l 1,103,-1
 397 472 l 1,100,-1
EndSplineSet
Validated: 1
EndChar

StartChar: i
Encoding: 105 105 73
Width: 188
Flags: W
LayerCount: 2
Fore
SplineSet
0 405 m 1,0,-1
 56 405 l 1,1,-1
 56 349 l 1,2,-1
 0 349 l 1,3,-1
 0 405 l 1,0,-1
66 405 m 1,4,-1
 122 405 l 1,5,-1
 122 349 l 1,6,-1
 66 349 l 1,7,-1
 66 405 l 1,4,-1
0 339 m 1,8,-1
 56 339 l 1,9,-1
 56 283 l 1,10,-1
 0 283 l 1,11,-1
 0 339 l 1,8,-1
66 339 m 1,12,-1
 122 339 l 1,13,-1
 122 283 l 1,14,-1
 66 283 l 1,15,-1
 66 339 l 1,12,-1
0 273 m 1,16,-1
 56 273 l 1,17,-1
 56 217 l 1,18,-1
 0 217 l 1,19,-1
 0 273 l 1,16,-1
66 273 m 1,20,-1
 122 273 l 1,21,-1
 122 217 l 1,22,-1
 66 217 l 1,23,-1
 66 273 l 1,20,-1
0 670 m 1,24,-1
 56 670 l 1,25,-1
 56 614 l 1,26,-1
 0 614 l 1,27,-1
 0 670 l 1,24,-1
66 670 m 1,28,-1
 122 670 l 1,29,-1
 122 614 l 1,30,-1
 66 614 l 1,31,-1
 66 670 l 1,28,-1
0 538 m 1,32,-1
 56 538 l 1,33,-1
 56 482 l 1,34,-1
 0 482 l 1,35,-1
 0 538 l 1,32,-1
66 538 m 1,36,-1
 122 538 l 1,37,-1
 122 482 l 1,38,-1
 66 482 l 1,39,-1
 66 538 l 1,36,-1
0 472 m 1,40,-1
 56 472 l 1,41,-1
 56 416 l 1,42,-1
 0 416 l 1,43,-1
 0 472 l 1,40,-1
66 472 m 1,44,-1
 122 472 l 1,45,-1
 122 416 l 1,46,-1
 66 416 l 1,47,-1
 66 472 l 1,44,-1
EndSplineSet
Validated: 1
EndChar

StartChar: j
Encoding: 106 106 74
Width: 322
Flags: W
LayerCount: 2
Fore
SplineSet
132 405 m 1,0,-1
 188 405 l 1,1,-1
 188 349 l 1,2,-1
 132 349 l 1,3,-1
 132 405 l 1,0,-1
198 405 m 1,4,-1
 254 405 l 1,5,-1
 254 349 l 1,6,-1
 198 349 l 1,7,-1
 198 405 l 1,4,-1
132 339 m 1,8,-1
 188 339 l 1,9,-1
 188 283 l 1,10,-1
 132 283 l 1,11,-1
 132 339 l 1,8,-1
198 339 m 1,12,-1
 254 339 l 1,13,-1
 254 283 l 1,14,-1
 198 283 l 1,15,-1
 198 339 l 1,12,-1
132 273 m 1,16,-1
 188 273 l 1,17,-1
 188 217 l 1,18,-1
 132 217 l 1,19,-1
 132 273 l 1,16,-1
198 273 m 1,20,-1
 254 273 l 1,21,-1
 254 217 l 1,22,-1
 198 217 l 1,23,-1
 198 273 l 1,20,-1
132 207 m 1,24,-1
 188 207 l 1,25,-1
 188 151 l 1,26,-1
 132 151 l 1,27,-1
 132 207 l 1,24,-1
198 207 m 1,28,-1
 254 207 l 1,29,-1
 254 151 l 1,30,-1
 198 151 l 1,31,-1
 198 207 l 1,28,-1
132 670 m 1,32,-1
 188 670 l 1,33,-1
 188 614 l 1,34,-1
 132 614 l 1,35,-1
 132 670 l 1,32,-1
198 670 m 1,36,-1
 254 670 l 1,37,-1
 254 614 l 1,38,-1
 198 614 l 1,39,-1
 198 670 l 1,36,-1
66 538 m 1,40,-1
 122 538 l 1,41,-1
 122 482 l 1,42,-1
 66 482 l 1,43,-1
 66 538 l 1,40,-1
132 538 m 1,44,-1
 188 538 l 1,45,-1
 188 482 l 1,46,-1
 132 482 l 1,47,-1
 132 538 l 1,44,-1
198 538 m 1,48,-1
 254 538 l 1,49,-1
 254 482 l 1,50,-1
 198 482 l 1,51,-1
 198 538 l 1,48,-1
132 472 m 1,52,-1
 188 472 l 1,53,-1
 188 416 l 1,54,-1
 132 416 l 1,55,-1
 132 472 l 1,52,-1
198 472 m 1,56,-1
 254 472 l 1,57,-1
 254 416 l 1,58,-1
 198 416 l 1,59,-1
 198 472 l 1,56,-1
0 140 m 1,60,-1
 56 140 l 1,61,-1
 56 84 l 1,62,-1
 0 84 l 1,63,-1
 0 140 l 1,60,-1
66 140 m 1,64,-1
 122 140 l 1,65,-1
 122 84 l 1,66,-1
 66 84 l 1,67,-1
 66 140 l 1,64,-1
132 140 m 1,68,-1
 188 140 l 1,69,-1
 188 84 l 1,70,-1
 132 84 l 1,71,-1
 132 140 l 1,68,-1
EndSplineSet
Validated: 1
EndChar

StartChar: k
Encoding: 107 107 75
Width: 520
Flags: W
LayerCount: 2
Fore
SplineSet
0 405 m 1,0,-1
 56 405 l 1,1,-1
 56 349 l 1,2,-1
 0 349 l 1,3,-1
 0 405 l 1,0,-1
66 405 m 1,4,-1
 122 405 l 1,5,-1
 122 349 l 1,6,-1
 66 349 l 1,7,-1
 66 405 l 1,4,-1
132 405 m 1,8,-1
 188 405 l 1,9,-1
 188 349 l 1,10,-1
 132 349 l 1,11,-1
 132 405 l 1,8,-1
198 405 m 1,12,-1
 254 405 l 1,13,-1
 254 349 l 1,14,-1
 198 349 l 1,15,-1
 198 405 l 1,12,-1
0 339 m 1,16,-1
 56 339 l 1,17,-1
 56 283 l 1,18,-1
 0 283 l 1,19,-1
 0 339 l 1,16,-1
66 339 m 1,20,-1
 122 339 l 1,21,-1
 122 283 l 1,22,-1
 66 283 l 1,23,-1
 66 339 l 1,20,-1
198 339 m 1,24,-1
 254 339 l 1,25,-1
 254 283 l 1,26,-1
 198 283 l 1,27,-1
 198 339 l 1,24,-1
265 339 m 1,28,-1
 321 339 l 1,29,-1
 321 283 l 1,30,-1
 265 283 l 1,31,-1
 265 339 l 1,28,-1
0 273 m 1,32,-1
 56 273 l 1,33,-1
 56 217 l 1,34,-1
 0 217 l 1,35,-1
 0 273 l 1,32,-1
66 273 m 1,36,-1
 122 273 l 1,37,-1
 122 217 l 1,38,-1
 66 217 l 1,39,-1
 66 273 l 1,36,-1
265 273 m 1,40,-1
 321 273 l 1,41,-1
 321 217 l 1,42,-1
 265 217 l 1,43,-1
 265 273 l 1,40,-1
331 273 m 1,44,-1
 387 273 l 1,45,-1
 387 217 l 1,46,-1
 331 217 l 1,47,-1
 331 273 l 1,44,-1
0 670 m 1,48,-1
 56 670 l 1,49,-1
 56 614 l 1,50,-1
 0 614 l 1,51,-1
 0 670 l 1,48,-1
66 670 m 1,52,-1
 122 670 l 1,53,-1
 122 614 l 1,54,-1
 66 614 l 1,55,-1
 66 670 l 1,52,-1
0 604 m 1,56,-1
 56 604 l 1,57,-1
 56 548 l 1,58,-1
 0 548 l 1,59,-1
 0 604 l 1,56,-1
66 604 m 1,60,-1
 122 604 l 1,61,-1
 122 548 l 1,62,-1
 66 548 l 1,63,-1
 66 604 l 1,60,-1
0 538 m 1,64,-1
 56 538 l 1,65,-1
 56 482 l 1,66,-1
 0 482 l 1,67,-1
 0 538 l 1,64,-1
66 538 m 1,68,-1
 122 538 l 1,69,-1
 122 482 l 1,70,-1
 66 482 l 1,71,-1
 66 538 l 1,68,-1
265 538 m 1,72,-1
 321 538 l 1,73,-1
 321 482 l 1,74,-1
 265 482 l 1,75,-1
 265 538 l 1,72,-1
331 538 m 1,76,-1
 387 538 l 1,77,-1
 387 482 l 1,78,-1
 331 482 l 1,79,-1
 331 538 l 1,76,-1
0 472 m 1,80,-1
 56 472 l 1,81,-1
 56 416 l 1,82,-1
 0 416 l 1,83,-1
 0 472 l 1,80,-1
66 472 m 1,84,-1
 122 472 l 1,85,-1
 122 416 l 1,86,-1
 66 416 l 1,87,-1
 66 472 l 1,84,-1
198 472 m 1,88,-1
 254 472 l 1,89,-1
 254 416 l 1,90,-1
 198 416 l 1,91,-1
 198 472 l 1,88,-1
265 472 m 1,92,-1
 321 472 l 1,93,-1
 321 416 l 1,94,-1
 265 416 l 1,95,-1
 265 472 l 1,92,-1
331 472 m 1024,96,-1
EndSplineSet
Validated: 1
EndChar

StartChar: l
Encoding: 108 108 76
Width: 188
Flags: W
LayerCount: 2
Fore
SplineSet
0 405 m 1,0,-1
 56 405 l 1,1,-1
 56 349 l 1,2,-1
 0 349 l 1,3,-1
 0 405 l 1,0,-1
66 405 m 1,4,-1
 122 405 l 1,5,-1
 122 349 l 1,6,-1
 66 349 l 1,7,-1
 66 405 l 1,4,-1
0 339 m 1,8,-1
 56 339 l 1,9,-1
 56 283 l 1,10,-1
 0 283 l 1,11,-1
 0 339 l 1,8,-1
66 339 m 1,12,-1
 122 339 l 1,13,-1
 122 283 l 1,14,-1
 66 283 l 1,15,-1
 66 339 l 1,12,-1
0 273 m 1,16,-1
 56 273 l 1,17,-1
 56 217 l 1,18,-1
 0 217 l 1,19,-1
 0 273 l 1,16,-1
66 273 m 1,20,-1
 122 273 l 1,21,-1
 122 217 l 1,22,-1
 66 217 l 1,23,-1
 66 273 l 1,20,-1
0 670 m 1,24,-1
 56 670 l 1,25,-1
 56 614 l 1,26,-1
 0 614 l 1,27,-1
 0 670 l 1,24,-1
66 670 m 1,28,-1
 122 670 l 1,29,-1
 122 614 l 1,30,-1
 66 614 l 1,31,-1
 66 670 l 1,28,-1
0 604 m 1,32,-1
 56 604 l 1,33,-1
 56 548 l 1,34,-1
 0 548 l 1,35,-1
 0 604 l 1,32,-1
66 604 m 1,36,-1
 122 604 l 1,37,-1
 122 548 l 1,38,-1
 66 548 l 1,39,-1
 66 604 l 1,36,-1
0 538 m 1,40,-1
 56 538 l 1,41,-1
 56 482 l 1,42,-1
 0 482 l 1,43,-1
 0 538 l 1,40,-1
66 538 m 1,44,-1
 122 538 l 1,45,-1
 122 482 l 1,46,-1
 66 482 l 1,47,-1
 66 538 l 1,44,-1
0 472 m 1,48,-1
 56 472 l 1,49,-1
 56 416 l 1,50,-1
 0 416 l 1,51,-1
 0 472 l 1,48,-1
66 472 m 1,52,-1
 122 472 l 1,53,-1
 122 416 l 1,54,-1
 66 416 l 1,55,-1
 66 472 l 1,52,-1
EndSplineSet
Validated: 1
EndChar

StartChar: m
Encoding: 109 109 77
Width: 520
Flags: W
LayerCount: 2
Fore
SplineSet
0 405 m 1,0,-1
 56 405 l 1,1,-1
 56 349 l 1,2,-1
 0 349 l 1,3,-1
 0 405 l 1,0,-1
66 405 m 1,4,-1
 122 405 l 1,5,-1
 122 349 l 1,6,-1
 66 349 l 1,7,-1
 66 405 l 1,4,-1
198 405 m 1,8,-1
 254 405 l 1,9,-1
 254 349 l 1,10,-1
 198 349 l 1,11,-1
 198 405 l 1,8,-1
331 405 m 1,12,-1
 387 405 l 1,13,-1
 387 349 l 1,14,-1
 331 349 l 1,15,-1
 331 405 l 1,12,-1
397 405 m 1,16,-1
 453 405 l 1,17,-1
 453 349 l 1,18,-1
 397 349 l 1,19,-1
 397 405 l 1,16,-1
0 339 m 1,20,-1
 56 339 l 1,21,-1
 56 283 l 1,22,-1
 0 283 l 1,23,-1
 0 339 l 1,20,-1
66 339 m 1,24,-1
 122 339 l 1,25,-1
 122 283 l 1,26,-1
 66 283 l 1,27,-1
 66 339 l 1,24,-1
198 339 m 1,28,-1
 254 339 l 1,29,-1
 254 283 l 1,30,-1
 198 283 l 1,31,-1
 198 339 l 1,28,-1
331 339 m 1,32,-1
 387 339 l 1,33,-1
 387 283 l 1,34,-1
 331 283 l 1,35,-1
 331 339 l 1,32,-1
397 339 m 1,36,-1
 453 339 l 1,37,-1
 453 283 l 1,38,-1
 397 283 l 1,39,-1
 397 339 l 1,36,-1
0 273 m 1,40,-1
 56 273 l 1,41,-1
 56 217 l 1,42,-1
 0 217 l 1,43,-1
 0 273 l 1,40,-1
66 273 m 1,44,-1
 122 273 l 1,45,-1
 122 217 l 1,46,-1
 66 217 l 1,47,-1
 66 273 l 1,44,-1
198 273 m 1,48,-1
 254 273 l 1,49,-1
 254 217 l 1,50,-1
 198 217 l 1,51,-1
 198 273 l 1,48,-1
331 273 m 1,52,-1
 387 273 l 1,53,-1
 387 217 l 1,54,-1
 331 217 l 1,55,-1
 331 273 l 1,52,-1
397 273 m 1,56,-1
 453 273 l 1,57,-1
 453 217 l 1,58,-1
 397 217 l 1,59,-1
 397 273 l 1,56,-1
0 538 m 1,60,-1
 56 538 l 1,61,-1
 56 482 l 1,62,-1
 0 482 l 1,63,-1
 0 538 l 1,60,-1
66 538 m 1,64,-1
 122 538 l 1,65,-1
 122 482 l 1,66,-1
 66 482 l 1,67,-1
 66 538 l 1,64,-1
132 538 m 1,68,-1
 188 538 l 1,69,-1
 188 482 l 1,70,-1
 132 482 l 1,71,-1
 132 538 l 1,68,-1
265 538 m 1,72,-1
 321 538 l 1,73,-1
 321 482 l 1,74,-1
 265 482 l 1,75,-1
 265 538 l 1,72,-1
331 538 m 1,76,-1
 387 538 l 1,77,-1
 387 482 l 1,78,-1
 331 482 l 1,79,-1
 331 538 l 1,76,-1
0 472 m 1,80,-1
 56 472 l 1,81,-1
 56 416 l 1,82,-1
 0 416 l 1,83,-1
 0 472 l 1,80,-1
66 472 m 1,84,-1
 122 472 l 1,85,-1
 122 416 l 1,86,-1
 66 416 l 1,87,-1
 66 472 l 1,84,-1
198 472 m 1,88,-1
 254 472 l 1,89,-1
 254 416 l 1,90,-1
 198 416 l 1,91,-1
 198 472 l 1,88,-1
331 472 m 1,92,-1
 387 472 l 1,93,-1
 387 416 l 1,94,-1
 331 416 l 1,95,-1
 331 472 l 1,92,-1
397 472 m 1,96,-1
 453 472 l 1,97,-1
 453 416 l 1,98,-1
 397 416 l 1,99,-1
 397 472 l 1,96,-1
EndSplineSet
Validated: 1
EndChar

StartChar: n
Encoding: 110 110 78
Width: 452
Flags: W
LayerCount: 2
Fore
SplineSet
0 405 m 1,0,-1
 56 405 l 1,1,-1
 56 349 l 1,2,-1
 0 349 l 1,3,-1
 0 405 l 1,0,-1
66 405 m 1,4,-1
 122 405 l 1,5,-1
 122 349 l 1,6,-1
 66 349 l 1,7,-1
 66 405 l 1,4,-1
265 405 m 1,8,-1
 321 405 l 1,9,-1
 321 349 l 1,10,-1
 265 349 l 1,11,-1
 265 405 l 1,8,-1
331 405 m 1,12,-1
 387 405 l 1,13,-1
 387 349 l 1,14,-1
 331 349 l 1,15,-1
 331 405 l 1,12,-1
0 339 m 1,16,-1
 56 339 l 1,17,-1
 56 283 l 1,18,-1
 0 283 l 1,19,-1
 0 339 l 1,16,-1
66 339 m 1,20,-1
 122 339 l 1,21,-1
 122 283 l 1,22,-1
 66 283 l 1,23,-1
 66 339 l 1,20,-1
265 339 m 1,24,-1
 321 339 l 1,25,-1
 321 283 l 1,26,-1
 265 283 l 1,27,-1
 265 339 l 1,24,-1
331 339 m 1,28,-1
 387 339 l 1,29,-1
 387 283 l 1,30,-1
 331 283 l 1,31,-1
 331 339 l 1,28,-1
0 273 m 1,32,-1
 56 273 l 1,33,-1
 56 217 l 1,34,-1
 0 217 l 1,35,-1
 0 273 l 1,32,-1
66 273 m 1,36,-1
 122 273 l 1,37,-1
 122 217 l 1,38,-1
 66 217 l 1,39,-1
 66 273 l 1,36,-1
265 273 m 1,40,-1
 321 273 l 1,41,-1
 321 217 l 1,42,-1
 265 217 l 1,43,-1
 265 273 l 1,40,-1
331 273 m 1,44,-1
 387 273 l 1,45,-1
 387 217 l 1,46,-1
 331 217 l 1,47,-1
 331 273 l 1,44,-1
0 538 m 1,48,-1
 56 538 l 1,49,-1
 56 482 l 1,50,-1
 0 482 l 1,51,-1
 0 538 l 1,48,-1
66 538 m 1,52,-1
 122 538 l 1,53,-1
 122 482 l 1,54,-1
 66 482 l 1,55,-1
 66 538 l 1,52,-1
132 538 m 1,56,-1
 188 538 l 1,57,-1
 188 482 l 1,58,-1
 132 482 l 1,59,-1
 132 538 l 1,56,-1
198 538 m 1,60,-1
 254 538 l 1,61,-1
 254 482 l 1,62,-1
 198 482 l 1,63,-1
 198 538 l 1,60,-1
265 538 m 1,64,-1
 321 538 l 1,65,-1
 321 482 l 1,66,-1
 265 482 l 1,67,-1
 265 538 l 1,64,-1
0 472 m 1,68,-1
 56 472 l 1,69,-1
 56 416 l 1,70,-1
 0 416 l 1,71,-1
 0 472 l 1,68,-1
66 472 m 1,72,-1
 122 472 l 1,73,-1
 122 416 l 1,74,-1
 66 416 l 1,75,-1
 66 472 l 1,72,-1
265 472 m 1,76,-1
 321 472 l 1,77,-1
 321 416 l 1,78,-1
 265 416 l 1,79,-1
 265 472 l 1,76,-1
331 472 m 1,80,-1
 387 472 l 1,81,-1
 387 416 l 1,82,-1
 331 416 l 1,83,-1
 331 472 l 1,80,-1
EndSplineSet
Validated: 1
EndChar

StartChar: o
Encoding: 111 111 79
Width: 520
Flags: W
LayerCount: 2
Fore
SplineSet
0 405 m 1,0,-1
 56 405 l 1,1,-1
 56 349 l 1,2,-1
 0 349 l 1,3,-1
 0 405 l 1,0,-1
66 405 m 1,4,-1
 122 405 l 1,5,-1
 122 349 l 1,6,-1
 66 349 l 1,7,-1
 66 405 l 1,4,-1
331 405 m 1,8,-1
 387 405 l 1,9,-1
 387 349 l 1,10,-1
 331 349 l 1,11,-1
 331 405 l 1,8,-1
397 405 m 1,12,-1
 453 405 l 1,13,-1
 453 349 l 1,14,-1
 397 349 l 1,15,-1
 397 405 l 1,12,-1
0 339 m 1,16,-1
 56 339 l 1,17,-1
 56 283 l 1,18,-1
 0 283 l 1,19,-1
 0 339 l 1,16,-1
66 339 m 1,20,-1
 122 339 l 1,21,-1
 122 283 l 1,22,-1
 66 283 l 1,23,-1
 66 339 l 1,20,-1
331 339 m 1,24,-1
 387 339 l 1,25,-1
 387 283 l 1,26,-1
 331 283 l 1,27,-1
 331 339 l 1,24,-1
397 339 m 1,28,-1
 453 339 l 1,29,-1
 453 283 l 1,30,-1
 397 283 l 1,31,-1
 397 339 l 1,28,-1
66 273 m 1,32,-1
 122 273 l 1,33,-1
 122 217 l 1,34,-1
 66 217 l 1,35,-1
 66 273 l 1,32,-1
132 273 m 1,36,-1
 188 273 l 1,37,-1
 188 217 l 1,38,-1
 132 217 l 1,39,-1
 132 273 l 1,36,-1
198 273 m 1,40,-1
 254 273 l 1,41,-1
 254 217 l 1,42,-1
 198 217 l 1,43,-1
 198 273 l 1,40,-1
265 273 m 1,44,-1
 321 273 l 1,45,-1
 321 217 l 1,46,-1
 265 217 l 1,47,-1
 265 273 l 1,44,-1
331 273 m 1,48,-1
 387 273 l 1,49,-1
 387 217 l 1,50,-1
 331 217 l 1,51,-1
 331 273 l 1,48,-1
66 538 m 1,52,-1
 122 538 l 1,53,-1
 122 482 l 1,54,-1
 66 482 l 1,55,-1
 66 538 l 1,52,-1
132 538 m 1,56,-1
 188 538 l 1,57,-1
 188 482 l 1,58,-1
 132 482 l 1,59,-1
 132 538 l 1,56,-1
198 538 m 1,60,-1
 254 538 l 1,61,-1
 254 482 l 1,62,-1
 198 482 l 1,63,-1
 198 538 l 1,60,-1
265 538 m 1,64,-1
 321 538 l 1,65,-1
 321 482 l 1,66,-1
 265 482 l 1,67,-1
 265 538 l 1,64,-1
331 538 m 1,68,-1
 387 538 l 1,69,-1
 387 482 l 1,70,-1
 331 482 l 1,71,-1
 331 538 l 1,68,-1
0 472 m 1,72,-1
 56 472 l 1,73,-1
 56 416 l 1,74,-1
 0 416 l 1,75,-1
 0 472 l 1,72,-1
66 472 m 1,76,-1
 122 472 l 1,77,-1
 122 416 l 1,78,-1
 66 416 l 1,79,-1
 66 472 l 1,76,-1
331 472 m 1,80,-1
 387 472 l 1,81,-1
 387 416 l 1,82,-1
 331 416 l 1,83,-1
 331 472 l 1,80,-1
397 472 m 1,84,-1
 453 472 l 1,85,-1
 453 416 l 1,86,-1
 397 416 l 1,87,-1
 397 472 l 1,84,-1
EndSplineSet
Validated: 1
EndChar

StartChar: p
Encoding: 112 112 80
Width: 520
Flags: W
LayerCount: 2
Fore
SplineSet
0 405 m 1,0,-1
 56 405 l 1,1,-1
 56 349 l 1,2,-1
 0 349 l 1,3,-1
 0 405 l 1,0,-1
66 405 m 1,4,-1
 122 405 l 1,5,-1
 122 349 l 1,6,-1
 66 349 l 1,7,-1
 66 405 l 1,4,-1
331 405 m 1,8,-1
 387 405 l 1,9,-1
 387 349 l 1,10,-1
 331 349 l 1,11,-1
 331 405 l 1,8,-1
397 405 m 1,12,-1
 453 405 l 1,13,-1
 453 349 l 1,14,-1
 397 349 l 1,15,-1
 397 405 l 1,12,-1
0 339 m 1,16,-1
 56 339 l 1,17,-1
 56 283 l 1,18,-1
 0 283 l 1,19,-1
 0 339 l 1,16,-1
66 339 m 1,20,-1
 122 339 l 1,21,-1
 122 283 l 1,22,-1
 66 283 l 1,23,-1
 66 339 l 1,20,-1
331 339 m 1,24,-1
 387 339 l 1,25,-1
 387 283 l 1,26,-1
 331 283 l 1,27,-1
 331 339 l 1,24,-1
397 339 m 1,28,-1
 453 339 l 1,29,-1
 453 283 l 1,30,-1
 397 283 l 1,31,-1
 397 339 l 1,28,-1
0 273 m 1,32,-1
 56 273 l 1,33,-1
 56 217 l 1,34,-1
 0 217 l 1,35,-1
 0 273 l 1,32,-1
66 273 m 1,36,-1
 122 273 l 1,37,-1
 122 217 l 1,38,-1
 66 217 l 1,39,-1
 66 273 l 1,36,-1
132 273 m 1,40,-1
 188 273 l 1,41,-1
 188 217 l 1,42,-1
 132 217 l 1,43,-1
 132 273 l 1,40,-1
198 273 m 1,44,-1
 254 273 l 1,45,-1
 254 217 l 1,46,-1
 198 217 l 1,47,-1
 198 273 l 1,44,-1
265 273 m 1,48,-1
 321 273 l 1,49,-1
 321 217 l 1,50,-1
 265 217 l 1,51,-1
 265 273 l 1,48,-1
331 273 m 1,52,-1
 387 273 l 1,53,-1
 387 217 l 1,54,-1
 331 217 l 1,55,-1
 331 273 l 1,52,-1
0 207 m 1,56,-1
 56 207 l 1,57,-1
 56 151 l 1,58,-1
 0 151 l 1,59,-1
 0 207 l 1,56,-1
66 207 m 1,60,-1
 122 207 l 1,61,-1
 122 151 l 1,62,-1
 66 151 l 1,63,-1
 66 207 l 1,60,-1
0 538 m 1,64,-1
 56 538 l 1,65,-1
 56 482 l 1,66,-1
 0 482 l 1,67,-1
 0 538 l 1,64,-1
66 538 m 1,68,-1
 122 538 l 1,69,-1
 122 482 l 1,70,-1
 66 482 l 1,71,-1
 66 538 l 1,68,-1
132 538 m 1,72,-1
 188 538 l 1,73,-1
 188 482 l 1,74,-1
 132 482 l 1,75,-1
 132 538 l 1,72,-1
198 538 m 1,76,-1
 254 538 l 1,77,-1
 254 482 l 1,78,-1
 198 482 l 1,79,-1
 198 538 l 1,76,-1
265 538 m 1,80,-1
 321 538 l 1,81,-1
 321 482 l 1,82,-1
 265 482 l 1,83,-1
 265 538 l 1,80,-1
331 538 m 1,84,-1
 387 538 l 1,85,-1
 387 482 l 1,86,-1
 331 482 l 1,87,-1
 331 538 l 1,84,-1
0 472 m 1,88,-1
 56 472 l 1,89,-1
 56 416 l 1,90,-1
 0 416 l 1,91,-1
 0 472 l 1,88,-1
66 472 m 1,92,-1
 122 472 l 1,93,-1
 122 416 l 1,94,-1
 66 416 l 1,95,-1
 66 472 l 1,92,-1
331 472 m 1,96,-1
 387 472 l 1,97,-1
 387 416 l 1,98,-1
 331 416 l 1,99,-1
 331 472 l 1,96,-1
397 472 m 1,100,-1
 453 472 l 1,101,-1
 453 416 l 1,102,-1
 397 416 l 1,103,-1
 397 472 l 1,100,-1
0 140 m 1,104,-1
 56 140 l 1,105,-1
 56 84 l 1,106,-1
 0 84 l 1,107,-1
 0 140 l 1,104,-1
66 140 m 1,108,-1
 122 140 l 1,109,-1
 122 84 l 1,110,-1
 66 84 l 1,111,-1
 66 140 l 1,108,-1
EndSplineSet
Validated: 1
EndChar

StartChar: q
Encoding: 113 113 81
Width: 520
Flags: W
LayerCount: 2
Fore
SplineSet
0 405 m 1,0,-1
 56 405 l 1,1,-1
 56 349 l 1,2,-1
 0 349 l 1,3,-1
 0 405 l 1,0,-1
66 405 m 1,4,-1
 122 405 l 1,5,-1
 122 349 l 1,6,-1
 66 349 l 1,7,-1
 66 405 l 1,4,-1
331 405 m 1,8,-1
 387 405 l 1,9,-1
 387 349 l 1,10,-1
 331 349 l 1,11,-1
 331 405 l 1,8,-1
397 405 m 1,12,-1
 453 405 l 1,13,-1
 453 349 l 1,14,-1
 397 349 l 1,15,-1
 397 405 l 1,12,-1
0 339 m 1,16,-1
 56 339 l 1,17,-1
 56 283 l 1,18,-1
 0 283 l 1,19,-1
 0 339 l 1,16,-1
66 339 m 1,20,-1
 122 339 l 1,21,-1
 122 283 l 1,22,-1
 66 283 l 1,23,-1
 66 339 l 1,20,-1
331 339 m 1,24,-1
 387 339 l 1,25,-1
 387 283 l 1,26,-1
 331 283 l 1,27,-1
 331 339 l 1,24,-1
397 339 m 1,28,-1
 453 339 l 1,29,-1
 453 283 l 1,30,-1
 397 283 l 1,31,-1
 397 339 l 1,28,-1
66 273 m 1,32,-1
 122 273 l 1,33,-1
 122 217 l 1,34,-1
 66 217 l 1,35,-1
 66 273 l 1,32,-1
132 273 m 1,36,-1
 188 273 l 1,37,-1
 188 217 l 1,38,-1
 132 217 l 1,39,-1
 132 273 l 1,36,-1
198 273 m 1,40,-1
 254 273 l 1,41,-1
 254 217 l 1,42,-1
 198 217 l 1,43,-1
 198 273 l 1,40,-1
265 273 m 1,44,-1
 321 273 l 1,45,-1
 321 217 l 1,46,-1
 265 217 l 1,47,-1
 265 273 l 1,44,-1
331 273 m 1,48,-1
 387 273 l 1,49,-1
 387 217 l 1,50,-1
 331 217 l 1,51,-1
 331 273 l 1,48,-1
397 273 m 1,52,-1
 453 273 l 1,53,-1
 453 217 l 1,54,-1
 397 217 l 1,55,-1
 397 273 l 1,52,-1
331 207 m 1,56,-1
 387 207 l 1,57,-1
 387 151 l 1,58,-1
 331 151 l 1,59,-1
 331 207 l 1,56,-1
397 207 m 1,60,-1
 453 207 l 1,61,-1
 453 151 l 1,62,-1
 397 151 l 1,63,-1
 397 207 l 1,60,-1
66 538 m 1,64,-1
 122 538 l 1,65,-1
 122 482 l 1,66,-1
 66 482 l 1,67,-1
 66 538 l 1,64,-1
132 538 m 1,68,-1
 188 538 l 1,69,-1
 188 482 l 1,70,-1
 132 482 l 1,71,-1
 132 538 l 1,68,-1
198 538 m 1,72,-1
 254 538 l 1,73,-1
 254 482 l 1,74,-1
 198 482 l 1,75,-1
 198 538 l 1,72,-1
265 538 m 1,76,-1
 321 538 l 1,77,-1
 321 482 l 1,78,-1
 265 482 l 1,79,-1
 265 538 l 1,76,-1
331 538 m 1,80,-1
 387 538 l 1,81,-1
 387 482 l 1,82,-1
 331 482 l 1,83,-1
 331 538 l 1,80,-1
397 538 m 1,84,-1
 453 538 l 1,85,-1
 453 482 l 1,86,-1
 397 482 l 1,87,-1
 397 538 l 1,84,-1
0 472 m 1,88,-1
 56 472 l 1,89,-1
 56 416 l 1,90,-1
 0 416 l 1,91,-1
 0 472 l 1,88,-1
66 472 m 1,92,-1
 122 472 l 1,93,-1
 122 416 l 1,94,-1
 66 416 l 1,95,-1
 66 472 l 1,92,-1
331 472 m 1,96,-1
 387 472 l 1,97,-1
 387 416 l 1,98,-1
 331 416 l 1,99,-1
 331 472 l 1,96,-1
397 472 m 1,100,-1
 453 472 l 1,101,-1
 453 416 l 1,102,-1
 397 416 l 1,103,-1
 397 472 l 1,100,-1
331 140 m 1,104,-1
 387 140 l 1,105,-1
 387 84 l 1,106,-1
 331 84 l 1,107,-1
 331 140 l 1,104,-1
397 140 m 1,108,-1
 453 140 l 1,109,-1
 453 84 l 1,110,-1
 397 84 l 1,111,-1
 397 140 l 1,108,-1
EndSplineSet
Validated: 1
EndChar

StartChar: r
Encoding: 114 114 82
Width: 388
Flags: W
LayerCount: 2
Fore
SplineSet
0 405 m 1,0,-1
 56 405 l 1,1,-1
 56 349 l 1,2,-1
 0 349 l 1,3,-1
 0 405 l 1,0,-1
66 405 m 1,4,-1
 122 405 l 1,5,-1
 122 349 l 1,6,-1
 66 349 l 1,7,-1
 66 405 l 1,4,-1
0 339 m 1,8,-1
 56 339 l 1,9,-1
 56 283 l 1,10,-1
 0 283 l 1,11,-1
 0 339 l 1,8,-1
66 339 m 1,12,-1
 122 339 l 1,13,-1
 122 283 l 1,14,-1
 66 283 l 1,15,-1
 66 339 l 1,12,-1
0 273 m 1,16,-1
 56 273 l 1,17,-1
 56 217 l 1,18,-1
 0 217 l 1,19,-1
 0 273 l 1,16,-1
66 273 m 1,20,-1
 122 273 l 1,21,-1
 122 217 l 1,22,-1
 66 217 l 1,23,-1
 66 273 l 1,20,-1
0 538 m 1,24,-1
 56 538 l 1,25,-1
 56 482 l 1,26,-1
 0 482 l 1,27,-1
 0 538 l 1,24,-1
66 538 m 1,28,-1
 122 538 l 1,29,-1
 122 482 l 1,30,-1
 66 482 l 1,31,-1
 66 538 l 1,28,-1
198 538 m 1,32,-1
 254 538 l 1,33,-1
 254 482 l 1,34,-1
 198 482 l 1,35,-1
 198 538 l 1,32,-1
265 538 m 1,36,-1
 321 538 l 1,37,-1
 321 482 l 1,38,-1
 265 482 l 1,39,-1
 265 538 l 1,36,-1
0 472 m 1,40,-1
 56 472 l 1,41,-1
 56 416 l 1,42,-1
 0 416 l 1,43,-1
 0 472 l 1,40,-1
66 472 m 1,44,-1
 122 472 l 1,45,-1
 122 416 l 1,46,-1
 66 416 l 1,47,-1
 66 472 l 1,44,-1
132 472 m 1,48,-1
 188 472 l 1,49,-1
 188 416 l 1,50,-1
 132 416 l 1,51,-1
 132 472 l 1,48,-1
EndSplineSet
Validated: 1
EndChar

StartChar: s
Encoding: 115 115 83
Width: 520
Flags: W
LayerCount: 2
Fore
SplineSet
66 405 m 1,0,-1
 122 405 l 1,1,-1
 122 349 l 1,2,-1
 66 349 l 1,3,-1
 66 405 l 1,0,-1
132 405 m 1,4,-1
 188 405 l 1,5,-1
 188 349 l 1,6,-1
 132 349 l 1,7,-1
 132 405 l 1,4,-1
198 405 m 1,8,-1
 254 405 l 1,9,-1
 254 349 l 1,10,-1
 198 349 l 1,11,-1
 198 405 l 1,8,-1
265 405 m 1,12,-1
 321 405 l 1,13,-1
 321 349 l 1,14,-1
 265 349 l 1,15,-1
 265 405 l 1,12,-1
331 405 m 1,16,-1
 387 405 l 1,17,-1
 387 349 l 1,18,-1
 331 349 l 1,19,-1
 331 405 l 1,16,-1
331 339 m 1,20,-1
 387 339 l 1,21,-1
 387 283 l 1,22,-1
 331 283 l 1,23,-1
 331 339 l 1,20,-1
397 339 m 1,24,-1
 453 339 l 1,25,-1
 453 283 l 1,26,-1
 397 283 l 1,27,-1
 397 339 l 1,24,-1
66 273 m 1,28,-1
 122 273 l 1,29,-1
 122 217 l 1,30,-1
 66 217 l 1,31,-1
 66 273 l 1,28,-1
132 273 m 1,32,-1
 188 273 l 1,33,-1
 188 217 l 1,34,-1
 132 217 l 1,35,-1
 132 273 l 1,32,-1
198 273 m 1,36,-1
 254 273 l 1,37,-1
 254 217 l 1,38,-1
 198 217 l 1,39,-1
 198 273 l 1,36,-1
265 273 m 1,40,-1
 321 273 l 1,41,-1
 321 217 l 1,42,-1
 265 217 l 1,43,-1
 265 273 l 1,40,-1
331 273 m 1,44,-1
 387 273 l 1,45,-1
 387 217 l 1,46,-1
 331 217 l 1,47,-1
 331 273 l 1,44,-1
66 538 m 1,48,-1
 122 538 l 1,49,-1
 122 482 l 1,50,-1
 66 482 l 1,51,-1
 66 538 l 1,48,-1
132 538 m 1,52,-1
 188 538 l 1,53,-1
 188 482 l 1,54,-1
 132 482 l 1,55,-1
 132 538 l 1,52,-1
198 538 m 1,56,-1
 254 538 l 1,57,-1
 254 482 l 1,58,-1
 198 482 l 1,59,-1
 198 538 l 1,56,-1
265 538 m 1,60,-1
 321 538 l 1,61,-1
 321 482 l 1,62,-1
 265 482 l 1,63,-1
 265 538 l 1,60,-1
331 538 m 1,64,-1
 387 538 l 1,65,-1
 387 482 l 1,66,-1
 331 482 l 1,67,-1
 331 538 l 1,64,-1
0 472 m 1,68,-1
 56 472 l 1,69,-1
 56 416 l 1,70,-1
 0 416 l 1,71,-1
 0 472 l 1,68,-1
66 472 m 1,72,-1
 122 472 l 1,73,-1
 122 416 l 1,74,-1
 66 416 l 1,75,-1
 66 472 l 1,72,-1
EndSplineSet
Validated: 1
EndChar

StartChar: t
Encoding: 116 116 84
Width: 388
Flags: W
LayerCount: 2
Fore
SplineSet
66 405 m 1,0,-1
 122 405 l 1,1,-1
 122 349 l 1,2,-1
 66 349 l 1,3,-1
 66 405 l 1,0,-1
132 405 m 1,4,-1
 188 405 l 1,5,-1
 188 349 l 1,6,-1
 132 349 l 1,7,-1
 132 405 l 1,4,-1
66 339 m 1,8,-1
 122 339 l 1,9,-1
 122 283 l 1,10,-1
 66 283 l 1,11,-1
 66 339 l 1,8,-1
132 339 m 1,12,-1
 188 339 l 1,13,-1
 188 283 l 1,14,-1
 132 283 l 1,15,-1
 132 339 l 1,12,-1
132 273 m 1,16,-1
 188 273 l 1,17,-1
 188 217 l 1,18,-1
 132 217 l 1,19,-1
 132 273 l 1,16,-1
198 273 m 1,20,-1
 254 273 l 1,21,-1
 254 217 l 1,22,-1
 198 217 l 1,23,-1
 198 273 l 1,20,-1
265 273 m 1,24,-1
 321 273 l 1,25,-1
 321 217 l 1,26,-1
 265 217 l 1,27,-1
 265 273 l 1,24,-1
66 670 m 1,28,-1
 122 670 l 1,29,-1
 122 614 l 1,30,-1
 66 614 l 1,31,-1
 66 670 l 1,28,-1
132 670 m 1,32,-1
 188 670 l 1,33,-1
 188 614 l 1,34,-1
 132 614 l 1,35,-1
 132 670 l 1,32,-1
66 604 m 1,36,-1
 122 604 l 1,37,-1
 122 548 l 1,38,-1
 66 548 l 1,39,-1
 66 604 l 1,36,-1
132 604 m 1,40,-1
 188 604 l 1,41,-1
 188 548 l 1,42,-1
 132 548 l 1,43,-1
 132 604 l 1,40,-1
0 538 m 1,44,-1
 56 538 l 1,45,-1
 56 482 l 1,46,-1
 0 482 l 1,47,-1
 0 538 l 1,44,-1
66 538 m 1,48,-1
 122 538 l 1,49,-1
 122 482 l 1,50,-1
 66 482 l 1,51,-1
 66 538 l 1,48,-1
132 538 m 1,52,-1
 188 538 l 1,53,-1
 188 482 l 1,54,-1
 132 482 l 1,55,-1
 132 538 l 1,52,-1
198 538 m 1,56,-1
 254 538 l 1,57,-1
 254 482 l 1,58,-1
 198 482 l 1,59,-1
 198 538 l 1,56,-1
66 472 m 1,60,-1
 122 472 l 1,61,-1
 122 416 l 1,62,-1
 66 416 l 1,63,-1
 66 472 l 1,60,-1
132 472 m 1,64,-1
 188 472 l 1,65,-1
 188 416 l 1,66,-1
 132 416 l 1,67,-1
 132 472 l 1,64,-1
EndSplineSet
Validated: 1
EndChar

StartChar: u
Encoding: 117 117 85
Width: 520
Flags: W
LayerCount: 2
Fore
SplineSet
0 405 m 1,0,-1
 56 405 l 1,1,-1
 56 349 l 1,2,-1
 0 349 l 1,3,-1
 0 405 l 1,0,-1
66 405 m 1,4,-1
 122 405 l 1,5,-1
 122 349 l 1,6,-1
 66 349 l 1,7,-1
 66 405 l 1,4,-1
331 405 m 1,8,-1
 387 405 l 1,9,-1
 387 349 l 1,10,-1
 331 349 l 1,11,-1
 331 405 l 1,8,-1
397 405 m 1,12,-1
 453 405 l 1,13,-1
 453 349 l 1,14,-1
 397 349 l 1,15,-1
 397 405 l 1,12,-1
0 339 m 1,16,-1
 56 339 l 1,17,-1
 56 283 l 1,18,-1
 0 283 l 1,19,-1
 0 339 l 1,16,-1
66 339 m 1,20,-1
 122 339 l 1,21,-1
 122 283 l 1,22,-1
 66 283 l 1,23,-1
 66 339 l 1,20,-1
331 339 m 1,24,-1
 387 339 l 1,25,-1
 387 283 l 1,26,-1
 331 283 l 1,27,-1
 331 339 l 1,24,-1
397 339 m 1,28,-1
 453 339 l 1,29,-1
 453 283 l 1,30,-1
 397 283 l 1,31,-1
 397 339 l 1,28,-1
66 273 m 1,32,-1
 122 273 l 1,33,-1
 122 217 l 1,34,-1
 66 217 l 1,35,-1
 66 273 l 1,32,-1
132 273 m 1,36,-1
 188 273 l 1,37,-1
 188 217 l 1,38,-1
 132 217 l 1,39,-1
 132 273 l 1,36,-1
198 273 m 1,40,-1
 254 273 l 1,41,-1
 254 217 l 1,42,-1
 198 217 l 1,43,-1
 198 273 l 1,40,-1
265 273 m 1,44,-1
 321 273 l 1,45,-1
 321 217 l 1,46,-1
 265 217 l 1,47,-1
 265 273 l 1,44,-1
331 273 m 1,48,-1
 387 273 l 1,49,-1
 387 217 l 1,50,-1
 331 217 l 1,51,-1
 331 273 l 1,48,-1
397 273 m 1,52,-1
 453 273 l 1,53,-1
 453 217 l 1,54,-1
 397 217 l 1,55,-1
 397 273 l 1,52,-1
0 538 m 1,56,-1
 56 538 l 1,57,-1
 56 482 l 1,58,-1
 0 482 l 1,59,-1
 0 538 l 1,56,-1
66 538 m 1,60,-1
 122 538 l 1,61,-1
 122 482 l 1,62,-1
 66 482 l 1,63,-1
 66 538 l 1,60,-1
331 538 m 1,64,-1
 387 538 l 1,65,-1
 387 482 l 1,66,-1
 331 482 l 1,67,-1
 331 538 l 1,64,-1
397 538 m 1,68,-1
 453 538 l 1,69,-1
 453 482 l 1,70,-1
 397 482 l 1,71,-1
 397 538 l 1,68,-1
0 472 m 1,72,-1
 56 472 l 1,73,-1
 56 416 l 1,74,-1
 0 416 l 1,75,-1
 0 472 l 1,72,-1
66 472 m 1,76,-1
 122 472 l 1,77,-1
 122 416 l 1,78,-1
 66 416 l 1,79,-1
 66 472 l 1,76,-1
331 472 m 1,80,-1
 387 472 l 1,81,-1
 387 416 l 1,82,-1
 331 416 l 1,83,-1
 331 472 l 1,80,-1
397 472 m 1,84,-1
 453 472 l 1,85,-1
 453 416 l 1,86,-1
 397 416 l 1,87,-1
 397 472 l 1,84,-1
EndSplineSet
Validated: 1
EndChar

StartChar: v
Encoding: 118 118 86
Width: 520
Flags: W
LayerCount: 2
Fore
SplineSet
0 405 m 1,0,-1
 56 405 l 1,1,-1
 56 349 l 1,2,-1
 0 349 l 1,3,-1
 0 405 l 1,0,-1
66 405 m 1,4,-1
 122 405 l 1,5,-1
 122 349 l 1,6,-1
 66 349 l 1,7,-1
 66 405 l 1,4,-1
331 405 m 1,8,-1
 387 405 l 1,9,-1
 387 349 l 1,10,-1
 331 349 l 1,11,-1
 331 405 l 1,8,-1
397 405 m 1,12,-1
 453 405 l 1,13,-1
 453 349 l 1,14,-1
 397 349 l 1,15,-1
 397 405 l 1,12,-1
66 339 m 1,16,-1
 122 339 l 1,17,-1
 122 283 l 1,18,-1
 66 283 l 1,19,-1
 66 339 l 1,16,-1
132 339 m 1,20,-1
 188 339 l 1,21,-1
 188 283 l 1,22,-1
 132 283 l 1,23,-1
 132 339 l 1,20,-1
265 339 m 1,24,-1
 321 339 l 1,25,-1
 321 283 l 1,26,-1
 265 283 l 1,27,-1
 265 339 l 1,24,-1
331 339 m 1,28,-1
 387 339 l 1,29,-1
 387 283 l 1,30,-1
 331 283 l 1,31,-1
 331 339 l 1,28,-1
132 273 m 1,32,-1
 188 273 l 1,33,-1
 188 217 l 1,34,-1
 132 217 l 1,35,-1
 132 273 l 1,32,-1
198 273 m 1,36,-1
 254 273 l 1,37,-1
 254 217 l 1,38,-1
 198 217 l 1,39,-1
 198 273 l 1,36,-1
265 273 m 1,40,-1
 321 273 l 1,41,-1
 321 217 l 1,42,-1
 265 217 l 1,43,-1
 265 273 l 1,40,-1
0 538 m 1,44,-1
 56 538 l 1,45,-1
 56 482 l 1,46,-1
 0 482 l 1,47,-1
 0 538 l 1,44,-1
66 538 m 1,48,-1
 122 538 l 1,49,-1
 122 482 l 1,50,-1
 66 482 l 1,51,-1
 66 538 l 1,48,-1
331 538 m 1,52,-1
 387 538 l 1,53,-1
 387 482 l 1,54,-1
 331 482 l 1,55,-1
 331 538 l 1,52,-1
397 538 m 1,56,-1
 453 538 l 1,57,-1
 453 482 l 1,58,-1
 397 482 l 1,59,-1
 397 538 l 1,56,-1
0 472 m 1,60,-1
 56 472 l 1,61,-1
 56 416 l 1,62,-1
 0 416 l 1,63,-1
 0 472 l 1,60,-1
66 472 m 1,64,-1
 122 472 l 1,65,-1
 122 416 l 1,66,-1
 66 416 l 1,67,-1
 66 472 l 1,64,-1
331 472 m 1,68,-1
 387 472 l 1,69,-1
 387 416 l 1,70,-1
 331 416 l 1,71,-1
 331 472 l 1,68,-1
397 472 m 1,72,-1
 453 472 l 1,73,-1
 453 416 l 1,74,-1
 397 416 l 1,75,-1
 397 472 l 1,72,-1
EndSplineSet
Validated: 1
EndChar

StartChar: w
Encoding: 119 119 87
Width: 520
Flags: W
LayerCount: 2
Fore
SplineSet
0 405 m 1,0,-1
 56 405 l 1,1,-1
 56 349 l 1,2,-1
 0 349 l 1,3,-1
 0 405 l 1,0,-1
66 405 m 1,4,-1
 122 405 l 1,5,-1
 122 349 l 1,6,-1
 66 349 l 1,7,-1
 66 405 l 1,4,-1
331 405 m 1,8,-1
 387 405 l 1,9,-1
 387 349 l 1,10,-1
 331 349 l 1,11,-1
 331 405 l 1,8,-1
397 405 m 1,12,-1
 453 405 l 1,13,-1
 453 349 l 1,14,-1
 397 349 l 1,15,-1
 397 405 l 1,12,-1
0 339 m 1,16,-1
 56 339 l 1,17,-1
 56 283 l 1,18,-1
 0 283 l 1,19,-1
 0 339 l 1,16,-1
66 339 m 1,20,-1
 122 339 l 1,21,-1
 122 283 l 1,22,-1
 66 283 l 1,23,-1
 66 339 l 1,20,-1
198 339 m 1,24,-1
 254 339 l 1,25,-1
 254 283 l 1,26,-1
 198 283 l 1,27,-1
 198 339 l 1,24,-1
331 339 m 1,28,-1
 387 339 l 1,29,-1
 387 283 l 1,30,-1
 331 283 l 1,31,-1
 331 339 l 1,28,-1
397 339 m 1,32,-1
 453 339 l 1,33,-1
 453 283 l 1,34,-1
 397 283 l 1,35,-1
 397 339 l 1,32,-1
66 273 m 1,36,-1
 122 273 l 1,37,-1
 122 217 l 1,38,-1
 66 217 l 1,39,-1
 66 273 l 1,36,-1
132 273 m 1,40,-1
 188 273 l 1,41,-1
 188 217 l 1,42,-1
 132 217 l 1,43,-1
 132 273 l 1,40,-1
265 273 m 1,44,-1
 321 273 l 1,45,-1
 321 217 l 1,46,-1
 265 217 l 1,47,-1
 265 273 l 1,44,-1
331 273 m 1,48,-1
 387 273 l 1,49,-1
 387 217 l 1,50,-1
 331 217 l 1,51,-1
 331 273 l 1,48,-1
0 538 m 1,52,-1
 56 538 l 1,53,-1
 56 482 l 1,54,-1
 0 482 l 1,55,-1
 0 538 l 1,52,-1
66 538 m 1,56,-1
 122 538 l 1,57,-1
 122 482 l 1,58,-1
 66 482 l 1,59,-1
 66 538 l 1,56,-1
331 538 m 1,60,-1
 387 538 l 1,61,-1
 387 482 l 1,62,-1
 331 482 l 1,63,-1
 331 538 l 1,60,-1
397 538 m 1,64,-1
 453 538 l 1,65,-1
 453 482 l 1,66,-1
 397 482 l 1,67,-1
 397 538 l 1,64,-1
0 472 m 1,68,-1
 56 472 l 1,69,-1
 56 416 l 1,70,-1
 0 416 l 1,71,-1
 0 472 l 1,68,-1
66 472 m 1,72,-1
 122 472 l 1,73,-1
 122 416 l 1,74,-1
 66 416 l 1,75,-1
 66 472 l 1,72,-1
331 472 m 1,76,-1
 387 472 l 1,77,-1
 387 416 l 1,78,-1
 331 416 l 1,79,-1
 331 472 l 1,76,-1
397 472 m 1,80,-1
 453 472 l 1,81,-1
 453 416 l 1,82,-1
 397 416 l 1,83,-1
 397 472 l 1,80,-1
EndSplineSet
Validated: 1
EndChar

StartChar: x
Encoding: 120 120 88
Width: 520
Flags: W
LayerCount: 2
Fore
SplineSet
132 405 m 1,0,-1
 188 405 l 1,1,-1
 188 349 l 1,2,-1
 132 349 l 1,3,-1
 132 405 l 1,0,-1
198 405 m 1,4,-1
 254 405 l 1,5,-1
 254 349 l 1,6,-1
 198 349 l 1,7,-1
 198 405 l 1,4,-1
265 405 m 1,8,-1
 321 405 l 1,9,-1
 321 349 l 1,10,-1
 265 349 l 1,11,-1
 265 405 l 1,8,-1
66 339 m 1,12,-1
 122 339 l 1,13,-1
 122 283 l 1,14,-1
 66 283 l 1,15,-1
 66 339 l 1,12,-1
132 339 m 1,16,-1
 188 339 l 1,17,-1
 188 283 l 1,18,-1
 132 283 l 1,19,-1
 132 339 l 1,16,-1
265 339 m 1,20,-1
 321 339 l 1,21,-1
 321 283 l 1,22,-1
 265 283 l 1,23,-1
 265 339 l 1,20,-1
331 339 m 1,24,-1
 387 339 l 1,25,-1
 387 283 l 1,26,-1
 331 283 l 1,27,-1
 331 339 l 1,24,-1
0 273 m 1,28,-1
 56 273 l 1,29,-1
 56 217 l 1,30,-1
 0 217 l 1,31,-1
 0 273 l 1,28,-1
66 273 m 1,32,-1
 122 273 l 1,33,-1
 122 217 l 1,34,-1
 66 217 l 1,35,-1
 66 273 l 1,32,-1
331 273 m 1,36,-1
 387 273 l 1,37,-1
 387 217 l 1,38,-1
 331 217 l 1,39,-1
 331 273 l 1,36,-1
397 273 m 1,40,-1
 453 273 l 1,41,-1
 453 217 l 1,42,-1
 397 217 l 1,43,-1
 397 273 l 1,40,-1
0 538 m 1,44,-1
 56 538 l 1,45,-1
 56 482 l 1,46,-1
 0 482 l 1,47,-1
 0 538 l 1,44,-1
66 538 m 1,48,-1
 122 538 l 1,49,-1
 122 482 l 1,50,-1
 66 482 l 1,51,-1
 66 538 l 1,48,-1
331 538 m 1,52,-1
 387 538 l 1,53,-1
 387 482 l 1,54,-1
 331 482 l 1,55,-1
 331 538 l 1,52,-1
397 538 m 1,56,-1
 453 538 l 1,57,-1
 453 482 l 1,58,-1
 397 482 l 1,59,-1
 397 538 l 1,56,-1
66 472 m 1,60,-1
 122 472 l 1,61,-1
 122 416 l 1,62,-1
 66 416 l 1,63,-1
 66 472 l 1,60,-1
132 472 m 1,64,-1
 188 472 l 1,65,-1
 188 416 l 1,66,-1
 132 416 l 1,67,-1
 132 472 l 1,64,-1
265 472 m 1,68,-1
 321 472 l 1,69,-1
 321 416 l 1,70,-1
 265 416 l 1,71,-1
 265 472 l 1,68,-1
331 472 m 1,72,-1
 387 472 l 1,73,-1
 387 416 l 1,74,-1
 331 416 l 1,75,-1
 331 472 l 1,72,-1
EndSplineSet
Validated: 1
EndChar

StartChar: y
Encoding: 121 121 89
Width: 520
Flags: W
LayerCount: 2
Fore
SplineSet
0 405 m 1,0,-1
 56 405 l 1,1,-1
 56 349 l 1,2,-1
 0 349 l 1,3,-1
 0 405 l 1,0,-1
66 405 m 1,4,-1
 122 405 l 1,5,-1
 122 349 l 1,6,-1
 66 349 l 1,7,-1
 66 405 l 1,4,-1
331 405 m 1,8,-1
 387 405 l 1,9,-1
 387 349 l 1,10,-1
 331 349 l 1,11,-1
 331 405 l 1,8,-1
397 405 m 1,12,-1
 453 405 l 1,13,-1
 453 349 l 1,14,-1
 397 349 l 1,15,-1
 397 405 l 1,12,-1
0 339 m 1,16,-1
 56 339 l 1,17,-1
 56 283 l 1,18,-1
 0 283 l 1,19,-1
 0 339 l 1,16,-1
66 339 m 1,20,-1
 122 339 l 1,21,-1
 122 283 l 1,22,-1
 66 283 l 1,23,-1
 66 339 l 1,20,-1
331 339 m 1,24,-1
 387 339 l 1,25,-1
 387 283 l 1,26,-1
 331 283 l 1,27,-1
 331 339 l 1,24,-1
397 339 m 1,28,-1
 453 339 l 1,29,-1
 453 283 l 1,30,-1
 397 283 l 1,31,-1
 397 339 l 1,28,-1
66 273 m 1,32,-1
 122 273 l 1,33,-1
 122 217 l 1,34,-1
 66 217 l 1,35,-1
 66 273 l 1,32,-1
132 273 m 1,36,-1
 188 273 l 1,37,-1
 188 217 l 1,38,-1
 132 217 l 1,39,-1
 132 273 l 1,36,-1
198 273 m 1,40,-1
 254 273 l 1,41,-1
 254 217 l 1,42,-1
 198 217 l 1,43,-1
 198 273 l 1,40,-1
265 273 m 1,44,-1
 321 273 l 1,45,-1
 321 217 l 1,46,-1
 265 217 l 1,47,-1
 265 273 l 1,44,-1
331 273 m 1,48,-1
 387 273 l 1,49,-1
 387 217 l 1,50,-1
 331 217 l 1,51,-1
 331 273 l 1,48,-1
397 273 m 1,52,-1
 453 273 l 1,53,-1
 453 217 l 1,54,-1
 397 217 l 1,55,-1
 397 273 l 1,52,-1
331 207 m 1,56,-1
 387 207 l 1,57,-1
 387 151 l 1,58,-1
 331 151 l 1,59,-1
 331 207 l 1,56,-1
397 207 m 1,60,-1
 453 207 l 1,61,-1
 453 151 l 1,62,-1
 397 151 l 1,63,-1
 397 207 l 1,60,-1
0 538 m 1,64,-1
 56 538 l 1,65,-1
 56 482 l 1,66,-1
 0 482 l 1,67,-1
 0 538 l 1,64,-1
66 538 m 1,68,-1
 122 538 l 1,69,-1
 122 482 l 1,70,-1
 66 482 l 1,71,-1
 66 538 l 1,68,-1
331 538 m 1,72,-1
 387 538 l 1,73,-1
 387 482 l 1,74,-1
 331 482 l 1,75,-1
 331 538 l 1,72,-1
397 538 m 1,76,-1
 453 538 l 1,77,-1
 453 482 l 1,78,-1
 397 482 l 1,79,-1
 397 538 l 1,76,-1
0 472 m 1,80,-1
 56 472 l 1,81,-1
 56 416 l 1,82,-1
 0 416 l 1,83,-1
 0 472 l 1,80,-1
66 472 m 1,84,-1
 122 472 l 1,85,-1
 122 416 l 1,86,-1
 66 416 l 1,87,-1
 66 472 l 1,84,-1
331 472 m 1,88,-1
 387 472 l 1,89,-1
 387 416 l 1,90,-1
 331 416 l 1,91,-1
 331 472 l 1,88,-1
397 472 m 1,92,-1
 453 472 l 1,93,-1
 453 416 l 1,94,-1
 397 416 l 1,95,-1
 397 472 l 1,92,-1
66 140 m 1,96,-1
 122 140 l 1,97,-1
 122 84 l 1,98,-1
 66 84 l 1,99,-1
 66 140 l 1,96,-1
132 140 m 1,100,-1
 188 140 l 1,101,-1
 188 84 l 1,102,-1
 132 84 l 1,103,-1
 132 140 l 1,100,-1
198 140 m 1,104,-1
 254 140 l 1,105,-1
 254 84 l 1,106,-1
 198 84 l 1,107,-1
 198 140 l 1,104,-1
265 140 m 1,108,-1
 321 140 l 1,109,-1
 321 84 l 1,110,-1
 265 84 l 1,111,-1
 265 140 l 1,108,-1
331 140 m 1,112,-1
 387 140 l 1,113,-1
 387 84 l 1,114,-1
 331 84 l 1,115,-1
 331 140 l 1,112,-1
EndSplineSet
Validated: 1
EndChar

StartChar: z
Encoding: 122 122 90
Width: 520
Flags: W
LayerCount: 2
Fore
SplineSet
132 405 m 1,0,-1
 188 405 l 1,1,-1
 188 349 l 1,2,-1
 132 349 l 1,3,-1
 132 405 l 1,0,-1
198 405 m 1,4,-1
 254 405 l 1,5,-1
 254 349 l 1,6,-1
 198 349 l 1,7,-1
 198 405 l 1,4,-1
265 405 m 1,8,-1
 321 405 l 1,9,-1
 321 349 l 1,10,-1
 265 349 l 1,11,-1
 265 405 l 1,8,-1
66 339 m 1,12,-1
 122 339 l 1,13,-1
 122 283 l 1,14,-1
 66 283 l 1,15,-1
 66 339 l 1,12,-1
132 339 m 1,16,-1
 188 339 l 1,17,-1
 188 283 l 1,18,-1
 132 283 l 1,19,-1
 132 339 l 1,16,-1
0 273 m 1,20,-1
 56 273 l 1,21,-1
 56 217 l 1,22,-1
 0 217 l 1,23,-1
 0 273 l 1,20,-1
66 273 m 1,24,-1
 122 273 l 1,25,-1
 122 217 l 1,26,-1
 66 217 l 1,27,-1
 66 273 l 1,24,-1
132 273 m 1,28,-1
 188 273 l 1,29,-1
 188 217 l 1,30,-1
 132 217 l 1,31,-1
 132 273 l 1,28,-1
198 273 m 1,32,-1
 254 273 l 1,33,-1
 254 217 l 1,34,-1
 198 217 l 1,35,-1
 198 273 l 1,32,-1
265 273 m 1,36,-1
 321 273 l 1,37,-1
 321 217 l 1,38,-1
 265 217 l 1,39,-1
 265 273 l 1,36,-1
331 273 m 1,40,-1
 387 273 l 1,41,-1
 387 217 l 1,42,-1
 331 217 l 1,43,-1
 331 273 l 1,40,-1
397 273 m 1,44,-1
 453 273 l 1,45,-1
 453 217 l 1,46,-1
 397 217 l 1,47,-1
 397 273 l 1,44,-1
0 538 m 1,48,-1
 56 538 l 1,49,-1
 56 482 l 1,50,-1
 0 482 l 1,51,-1
 0 538 l 1,48,-1
66 538 m 1,52,-1
 122 538 l 1,53,-1
 122 482 l 1,54,-1
 66 482 l 1,55,-1
 66 538 l 1,52,-1
132 538 m 1,56,-1
 188 538 l 1,57,-1
 188 482 l 1,58,-1
 132 482 l 1,59,-1
 132 538 l 1,56,-1
198 538 m 1,60,-1
 254 538 l 1,61,-1
 254 482 l 1,62,-1
 198 482 l 1,63,-1
 198 538 l 1,60,-1
265 538 m 1,64,-1
 321 538 l 1,65,-1
 321 482 l 1,66,-1
 265 482 l 1,67,-1
 265 538 l 1,64,-1
331 538 m 1,68,-1
 387 538 l 1,69,-1
 387 482 l 1,70,-1
 331 482 l 1,71,-1
 331 538 l 1,68,-1
397 538 m 1,72,-1
 453 538 l 1,73,-1
 453 482 l 1,74,-1
 397 482 l 1,75,-1
 397 538 l 1,72,-1
265 472 m 1,76,-1
 321 472 l 1,77,-1
 321 416 l 1,78,-1
 265 416 l 1,79,-1
 265 472 l 1,76,-1
331 472 m 1,80,-1
 387 472 l 1,81,-1
 387 416 l 1,82,-1
 331 416 l 1,83,-1
 331 472 l 1,80,-1
EndSplineSet
Validated: 1
EndChar

StartChar: Ccedilla
Encoding: 199 199 97
Width: 520
Flags: W
LayerCount: 2
Fore
SplineSet
133 141 m 1,0,-1
 189 141 l 1,1,-1
 189 85 l 1,2,-1
 133 85 l 1,3,-1
 133 141 l 1,0,-1
198 339 m 1,4,-1
 254 339 l 1,5,-1
 254 283 l 1,6,-1
 198 283 l 1,7,-1
 198 339 l 1,4,-1
198 207 m 1,8,-1
 254 207 l 1,9,-1
 254 151 l 1,10,-1
 198 151 l 1,11,-1
 198 207 l 1,8,-1
0 405 m 1,12,-1
 56 405 l 1,13,-1
 56 349 l 1,14,-1
 0 349 l 1,15,-1
 0 405 l 1,12,-1
66 405 m 1,16,-1
 122 405 l 1,17,-1
 122 349 l 1,18,-1
 66 349 l 1,19,-1
 66 405 l 1,16,-1
0 339 m 1,20,-1
 56 339 l 1,21,-1
 56 283 l 1,22,-1
 0 283 l 1,23,-1
 0 339 l 1,20,-1
66 339 m 1,24,-1
 122 339 l 1,25,-1
 122 283 l 1,26,-1
 66 283 l 1,27,-1
 66 339 l 1,24,-1
331 339 m 1,28,-1
 387 339 l 1,29,-1
 387 283 l 1,30,-1
 331 283 l 1,31,-1
 331 339 l 1,28,-1
397 339 m 1,32,-1
 453 339 l 1,33,-1
 453 283 l 1,34,-1
 397 283 l 1,35,-1
 397 339 l 1,32,-1
66 273 m 1,36,-1
 122 273 l 1,37,-1
 122 217 l 1,38,-1
 66 217 l 1,39,-1
 66 273 l 1,36,-1
132 273 m 1,40,-1
 188 273 l 1,41,-1
 188 217 l 1,42,-1
 132 217 l 1,43,-1
 132 273 l 1,40,-1
198 273 m 1,44,-1
 254 273 l 1,45,-1
 254 217 l 1,46,-1
 198 217 l 1,47,-1
 198 273 l 1,44,-1
265 273 m 1,48,-1
 321 273 l 1,49,-1
 321 217 l 1,50,-1
 265 217 l 1,51,-1
 265 273 l 1,48,-1
331 273 m 1,52,-1
 387 273 l 1,53,-1
 387 217 l 1,54,-1
 331 217 l 1,55,-1
 331 273 l 1,52,-1
66 670 m 1,56,-1
 122 670 l 1,57,-1
 122 614 l 1,58,-1
 66 614 l 1,59,-1
 66 670 l 1,56,-1
132 670 m 1,60,-1
 188 670 l 1,61,-1
 188 614 l 1,62,-1
 132 614 l 1,63,-1
 132 670 l 1,60,-1
198 670 m 1,64,-1
 254 670 l 1,65,-1
 254 614 l 1,66,-1
 198 614 l 1,67,-1
 198 670 l 1,64,-1
265 670 m 1,68,-1
 321 670 l 1,69,-1
 321 614 l 1,70,-1
 265 614 l 1,71,-1
 265 670 l 1,68,-1
331 670 m 1,72,-1
 387 670 l 1,73,-1
 387 614 l 1,74,-1
 331 614 l 1,75,-1
 331 670 l 1,72,-1
0 604 m 1,76,-1
 56 604 l 1,77,-1
 56 548 l 1,78,-1
 0 548 l 1,79,-1
 0 604 l 1,76,-1
66 604 m 1,80,-1
 122 604 l 1,81,-1
 122 548 l 1,82,-1
 66 548 l 1,83,-1
 66 604 l 1,80,-1
331 604 m 1,84,-1
 387 604 l 1,85,-1
 387 548 l 1,86,-1
 331 548 l 1,87,-1
 331 604 l 1,84,-1
397 604 m 1,88,-1
 453 604 l 1,89,-1
 453 548 l 1,90,-1
 397 548 l 1,91,-1
 397 604 l 1,88,-1
0 538 m 1,92,-1
 56 538 l 1,93,-1
 56 482 l 1,94,-1
 0 482 l 1,95,-1
 0 538 l 1,92,-1
66 538 m 1,96,-1
 122 538 l 1,97,-1
 122 482 l 1,98,-1
 66 482 l 1,99,-1
 66 538 l 1,96,-1
0 472 m 1,100,-1
 56 472 l 1,101,-1
 56 416 l 1,102,-1
 0 416 l 1,103,-1
 0 472 l 1,100,-1
66 472 m 1,104,-1
 122 472 l 1,105,-1
 122 416 l 1,106,-1
 66 416 l 1,107,-1
 66 472 l 1,104,-1
EndSplineSet
EndChar

StartChar: Agrave
Encoding: 192 192 98
Width: 520
Flags: W
LayerCount: 2
Fore
SplineSet
0 800 m 1,0,-1
 56 800 l 1,1,-1
 56 744 l 1,2,-1
 0 744 l 1,3,-1
 0 800 l 1,0,-1
66 736 m 1,4,-1
 122 736 l 1,5,-1
 122 680 l 1,6,-1
 66 680 l 1,7,-1
 66 736 l 1,4,-1
132 670 m 1,8,-1
 188 670 l 1,9,-1
 188 614 l 1,10,-1
 132 614 l 1,11,-1
 132 670 l 1,8,-1
0 405 m 1,12,-1
 56 405 l 1,13,-1
 56 349 l 1,14,-1
 0 349 l 1,15,-1
 0 405 l 1,12,-1
66 405 m 1,16,-1
 122 405 l 1,17,-1
 122 349 l 1,18,-1
 66 349 l 1,19,-1
 66 405 l 1,16,-1
132 405 m 1,20,-1
 188 405 l 1,21,-1
 188 349 l 1,22,-1
 132 349 l 1,23,-1
 132 405 l 1,20,-1
198 405 m 1,24,-1
 254 405 l 1,25,-1
 254 349 l 1,26,-1
 198 349 l 1,27,-1
 198 405 l 1,24,-1
265 405 m 1,28,-1
 321 405 l 1,29,-1
 321 349 l 1,30,-1
 265 349 l 1,31,-1
 265 405 l 1,28,-1
331 405 m 1,32,-1
 387 405 l 1,33,-1
 387 349 l 1,34,-1
 331 349 l 1,35,-1
 331 405 l 1,32,-1
397 405 m 1,36,-1
 453 405 l 1,37,-1
 453 349 l 1,38,-1
 397 349 l 1,39,-1
 397 405 l 1,36,-1
0 339 m 1,40,-1
 56 339 l 1,41,-1
 56 283 l 1,42,-1
 0 283 l 1,43,-1
 0 339 l 1,40,-1
66 339 m 1,44,-1
 122 339 l 1,45,-1
 122 283 l 1,46,-1
 66 283 l 1,47,-1
 66 339 l 1,44,-1
331 339 m 1,48,-1
 387 339 l 1,49,-1
 387 283 l 1,50,-1
 331 283 l 1,51,-1
 331 339 l 1,48,-1
397 339 m 1,52,-1
 453 339 l 1,53,-1
 453 283 l 1,54,-1
 397 283 l 1,55,-1
 397 339 l 1,52,-1
0 273 m 1,56,-1
 56 273 l 1,57,-1
 56 217 l 1,58,-1
 0 217 l 1,59,-1
 0 273 l 1,56,-1
66 273 m 1,60,-1
 122 273 l 1,61,-1
 122 217 l 1,62,-1
 66 217 l 1,63,-1
 66 273 l 1,60,-1
331 273 m 1,64,-1
 387 273 l 1,65,-1
 387 217 l 1,66,-1
 331 217 l 1,67,-1
 331 273 l 1,64,-1
397 273 m 1,68,-1
 453 273 l 1,69,-1
 453 217 l 1,70,-1
 397 217 l 1,71,-1
 397 273 l 1,68,-1
198 670 m 1,72,-1
 254 670 l 1,73,-1
 254 614 l 1,74,-1
 198 614 l 1,75,-1
 198 670 l 1,72,-1
265 670 m 1,76,-1
 321 670 l 1,77,-1
 321 614 l 1,78,-1
 265 614 l 1,79,-1
 265 670 l 1,76,-1
66 604 m 1,80,-1
 122 604 l 1,81,-1
 122 548 l 1,82,-1
 66 548 l 1,83,-1
 66 604 l 1,80,-1
132 604 m 1,84,-1
 188 604 l 1,85,-1
 188 548 l 1,86,-1
 132 548 l 1,87,-1
 132 604 l 1,84,-1
265 604 m 1,88,-1
 321 604 l 1,89,-1
 321 548 l 1,90,-1
 265 548 l 1,91,-1
 265 604 l 1,88,-1
331 604 m 1,92,-1
 387 604 l 1,93,-1
 387 548 l 1,94,-1
 331 548 l 1,95,-1
 331 604 l 1,92,-1
0 538 m 1,96,-1
 56 538 l 1,97,-1
 56 482 l 1,98,-1
 0 482 l 1,99,-1
 0 538 l 1,96,-1
66 538 m 1,100,-1
 122 538 l 1,101,-1
 122 482 l 1,102,-1
 66 482 l 1,103,-1
 66 538 l 1,100,-1
331 538 m 1,104,-1
 387 538 l 1,105,-1
 387 482 l 1,106,-1
 331 482 l 1,107,-1
 331 538 l 1,104,-1
397 538 m 1,108,-1
 453 538 l 1,109,-1
 453 482 l 1,110,-1
 397 482 l 1,111,-1
 397 538 l 1,108,-1
0 472 m 1,112,-1
 56 472 l 1,113,-1
 56 416 l 1,114,-1
 0 416 l 1,115,-1
 0 472 l 1,112,-1
66 472 m 1,116,-1
 122 472 l 1,117,-1
 122 416 l 1,118,-1
 66 416 l 1,119,-1
 66 472 l 1,116,-1
331 472 m 1,120,-1
 387 472 l 1,121,-1
 387 416 l 1,122,-1
 331 416 l 1,123,-1
 331 472 l 1,120,-1
397 472 m 1,124,-1
 453 472 l 1,125,-1
 453 416 l 1,126,-1
 397 416 l 1,127,-1
 397 472 l 1,124,-1
EndSplineSet
Validated: 1
EndChar

StartChar: Aacute
Encoding: 193 193 99
Width: 520
Flags: W
LayerCount: 2
Fore
SplineSet
397 800 m 5,0,-1
 453 800 l 5,1,-1
 453 744 l 5,2,-1
 397 744 l 5,3,-1
 397 800 l 5,0,-1
331 736 m 1,4,-1
 387 736 l 1,5,-1
 387 680 l 1,6,-1
 331 680 l 1,7,-1
 331 736 l 1,4,-1
0 405 m 1,8,-1
 56 405 l 1,9,-1
 56 349 l 1,10,-1
 0 349 l 1,11,-1
 0 405 l 1,8,-1
66 405 m 1,12,-1
 122 405 l 1,13,-1
 122 349 l 1,14,-1
 66 349 l 1,15,-1
 66 405 l 1,12,-1
132 405 m 1,16,-1
 188 405 l 1,17,-1
 188 349 l 1,18,-1
 132 349 l 1,19,-1
 132 405 l 1,16,-1
198 405 m 1,20,-1
 254 405 l 1,21,-1
 254 349 l 1,22,-1
 198 349 l 1,23,-1
 198 405 l 1,20,-1
265 405 m 1,24,-1
 321 405 l 1,25,-1
 321 349 l 1,26,-1
 265 349 l 1,27,-1
 265 405 l 1,24,-1
331 405 m 1,28,-1
 387 405 l 1,29,-1
 387 349 l 1,30,-1
 331 349 l 1,31,-1
 331 405 l 1,28,-1
397 405 m 1,32,-1
 453 405 l 1,33,-1
 453 349 l 1,34,-1
 397 349 l 1,35,-1
 397 405 l 1,32,-1
0 339 m 1,36,-1
 56 339 l 1,37,-1
 56 283 l 1,38,-1
 0 283 l 1,39,-1
 0 339 l 1,36,-1
66 339 m 1,40,-1
 122 339 l 1,41,-1
 122 283 l 1,42,-1
 66 283 l 1,43,-1
 66 339 l 1,40,-1
331 339 m 1,44,-1
 387 339 l 1,45,-1
 387 283 l 1,46,-1
 331 283 l 1,47,-1
 331 339 l 1,44,-1
397 339 m 1,48,-1
 453 339 l 1,49,-1
 453 283 l 1,50,-1
 397 283 l 1,51,-1
 397 339 l 1,48,-1
0 273 m 1,52,-1
 56 273 l 1,53,-1
 56 217 l 1,54,-1
 0 217 l 1,55,-1
 0 273 l 1,52,-1
66 273 m 1,56,-1
 122 273 l 1,57,-1
 122 217 l 1,58,-1
 66 217 l 1,59,-1
 66 273 l 1,56,-1
331 273 m 1,60,-1
 387 273 l 1,61,-1
 387 217 l 1,62,-1
 331 217 l 1,63,-1
 331 273 l 1,60,-1
397 273 m 1,64,-1
 453 273 l 1,65,-1
 453 217 l 1,66,-1
 397 217 l 1,67,-1
 397 273 l 1,64,-1
132 670 m 1,68,-1
 188 670 l 1,69,-1
 188 614 l 1,70,-1
 132 614 l 1,71,-1
 132 670 l 1,68,-1
198 670 m 1,72,-1
 254 670 l 1,73,-1
 254 614 l 1,74,-1
 198 614 l 1,75,-1
 198 670 l 1,72,-1
265 670 m 1,76,-1
 321 670 l 1,77,-1
 321 614 l 1,78,-1
 265 614 l 1,79,-1
 265 670 l 1,76,-1
66 604 m 1,80,-1
 122 604 l 1,81,-1
 122 548 l 1,82,-1
 66 548 l 1,83,-1
 66 604 l 1,80,-1
132 604 m 1,84,-1
 188 604 l 1,85,-1
 188 548 l 1,86,-1
 132 548 l 1,87,-1
 132 604 l 1,84,-1
265 604 m 1,88,-1
 321 604 l 1,89,-1
 321 548 l 1,90,-1
 265 548 l 1,91,-1
 265 604 l 1,88,-1
331 604 m 1,92,-1
 387 604 l 1,93,-1
 387 548 l 1,94,-1
 331 548 l 1,95,-1
 331 604 l 1,92,-1
0 538 m 1,96,-1
 56 538 l 1,97,-1
 56 482 l 1,98,-1
 0 482 l 1,99,-1
 0 538 l 1,96,-1
66 538 m 1,100,-1
 122 538 l 1,101,-1
 122 482 l 1,102,-1
 66 482 l 1,103,-1
 66 538 l 1,100,-1
331 538 m 1,104,-1
 387 538 l 1,105,-1
 387 482 l 1,106,-1
 331 482 l 1,107,-1
 331 538 l 1,104,-1
397 538 m 1,108,-1
 453 538 l 1,109,-1
 453 482 l 1,110,-1
 397 482 l 1,111,-1
 397 538 l 1,108,-1
0 472 m 1,112,-1
 56 472 l 1,113,-1
 56 416 l 1,114,-1
 0 416 l 1,115,-1
 0 472 l 1,112,-1
66 472 m 1,116,-1
 122 472 l 1,117,-1
 122 416 l 1,118,-1
 66 416 l 1,119,-1
 66 472 l 1,116,-1
331 472 m 1,120,-1
 387 472 l 1,121,-1
 387 416 l 1,122,-1
 331 416 l 1,123,-1
 331 472 l 1,120,-1
397 472 m 1,124,-1
 453 472 l 1,125,-1
 453 416 l 1,126,-1
 397 416 l 1,127,-1
 397 472 l 1,124,-1
EndSplineSet
EndChar

StartChar: Acircumflex
Encoding: 194 194 100
Width: 520
Flags: W
LayerCount: 2
Fore
SplineSet
0 405 m 1,0,-1
 56 405 l 1,1,-1
 56 349 l 1,2,-1
 0 349 l 1,3,-1
 0 405 l 1,0,-1
66 405 m 1,4,-1
 122 405 l 1,5,-1
 122 349 l 1,6,-1
 66 349 l 1,7,-1
 66 405 l 1,4,-1
132 405 m 1,8,-1
 188 405 l 1,9,-1
 188 349 l 1,10,-1
 132 349 l 1,11,-1
 132 405 l 1,8,-1
198 405 m 1,12,-1
 254 405 l 1,13,-1
 254 349 l 1,14,-1
 198 349 l 1,15,-1
 198 405 l 1,12,-1
265 405 m 1,16,-1
 321 405 l 1,17,-1
 321 349 l 1,18,-1
 265 349 l 1,19,-1
 265 405 l 1,16,-1
331 405 m 1,20,-1
 387 405 l 1,21,-1
 387 349 l 1,22,-1
 331 349 l 1,23,-1
 331 405 l 1,20,-1
397 405 m 1,24,-1
 453 405 l 1,25,-1
 453 349 l 1,26,-1
 397 349 l 1,27,-1
 397 405 l 1,24,-1
0 339 m 1,28,-1
 56 339 l 1,29,-1
 56 283 l 1,30,-1
 0 283 l 1,31,-1
 0 339 l 1,28,-1
66 339 m 1,32,-1
 122 339 l 1,33,-1
 122 283 l 1,34,-1
 66 283 l 1,35,-1
 66 339 l 1,32,-1
331 339 m 1,36,-1
 387 339 l 1,37,-1
 387 283 l 1,38,-1
 331 283 l 1,39,-1
 331 339 l 1,36,-1
397 339 m 1,40,-1
 453 339 l 1,41,-1
 453 283 l 1,42,-1
 397 283 l 1,43,-1
 397 339 l 1,40,-1
0 273 m 1,44,-1
 56 273 l 1,45,-1
 56 217 l 1,46,-1
 0 217 l 1,47,-1
 0 273 l 1,44,-1
66 273 m 1,48,-1
 122 273 l 1,49,-1
 122 217 l 1,50,-1
 66 217 l 1,51,-1
 66 273 l 1,48,-1
331 273 m 1,52,-1
 387 273 l 1,53,-1
 387 217 l 1,54,-1
 331 217 l 1,55,-1
 331 273 l 1,52,-1
397 273 m 1,56,-1
 453 273 l 1,57,-1
 453 217 l 1,58,-1
 397 217 l 1,59,-1
 397 273 l 1,56,-1
132 670 m 1,60,-1
 188 670 l 1,61,-1
 188 614 l 1,62,-1
 132 614 l 1,63,-1
 132 670 l 1,60,-1
198 670 m 1,64,-1
 254 670 l 1,65,-1
 254 614 l 1,66,-1
 198 614 l 1,67,-1
 198 670 l 1,64,-1
265 670 m 1,68,-1
 321 670 l 1,69,-1
 321 614 l 1,70,-1
 265 614 l 1,71,-1
 265 670 l 1,68,-1
66 604 m 1,72,-1
 122 604 l 1,73,-1
 122 548 l 1,74,-1
 66 548 l 1,75,-1
 66 604 l 1,72,-1
132 604 m 1,76,-1
 188 604 l 1,77,-1
 188 548 l 1,78,-1
 132 548 l 1,79,-1
 132 604 l 1,76,-1
265 604 m 1,80,-1
 321 604 l 1,81,-1
 321 548 l 1,82,-1
 265 548 l 1,83,-1
 265 604 l 1,80,-1
331 604 m 1,84,-1
 387 604 l 1,85,-1
 387 548 l 1,86,-1
 331 548 l 1,87,-1
 331 604 l 1,84,-1
0 538 m 1,88,-1
 56 538 l 1,89,-1
 56 482 l 1,90,-1
 0 482 l 1,91,-1
 0 538 l 1,88,-1
66 538 m 1,92,-1
 122 538 l 1,93,-1
 122 482 l 1,94,-1
 66 482 l 1,95,-1
 66 538 l 1,92,-1
331 538 m 1,96,-1
 387 538 l 1,97,-1
 387 482 l 1,98,-1
 331 482 l 1,99,-1
 331 538 l 1,96,-1
397 538 m 1,100,-1
 453 538 l 1,101,-1
 453 482 l 1,102,-1
 397 482 l 1,103,-1
 397 538 l 1,100,-1
0 472 m 1,104,-1
 56 472 l 1,105,-1
 56 416 l 1,106,-1
 0 416 l 1,107,-1
 0 472 l 1,104,-1
66 472 m 1,108,-1
 122 472 l 1,109,-1
 122 416 l 1,110,-1
 66 416 l 1,111,-1
 66 472 l 1,108,-1
331 472 m 1,112,-1
 387 472 l 1,113,-1
 387 416 l 1,114,-1
 331 416 l 1,115,-1
 331 472 l 1,112,-1
397 472 m 1,116,-1
 453 472 l 1,117,-1
 453 416 l 1,118,-1
 397 416 l 1,119,-1
 397 472 l 1,116,-1
EndSplineSet
Validated: 1
EndChar

StartChar: Atilde
Encoding: 195 195 101
Width: 520
Flags: W
LayerCount: 2
Fore
SplineSet
198 670 m 1,0,-1
 254 670 l 1,1,-1
 254 614 l 1,2,-1
 198 614 l 1,3,-1
 198 670 l 1,0,-1
132 726 m 1,4,-1
 188 726 l 1,5,-1
 188 670 l 1,6,-1
 132 670 l 1,7,-1
 132 726 l 1,4,-1
264 670 m 1,8,-1
 320 670 l 1,9,-1
 320 614 l 1,10,-1
 264 614 l 1,11,-1
 264 670 l 1,8,-1
66 670 m 1,12,-1
 122 670 l 1,13,-1
 122 614 l 1,14,-1
 66 614 l 1,15,-1
 66 670 l 1,12,-1
132 604 m 1,16,-1
 188 604 l 1,17,-1
 188 548 l 1,18,-1
 132 548 l 1,19,-1
 132 604 l 1,16,-1
198 604 m 1,20,-1
 254 604 l 1,21,-1
 254 548 l 1,22,-1
 198 548 l 1,23,-1
 198 604 l 1,20,-1
265 604 m 1,24,-1
 321 604 l 1,25,-1
 321 548 l 1,26,-1
 265 548 l 1,27,-1
 265 604 l 1,24,-1
132 538 m 1,28,-1
 188 538 l 1,29,-1
 188 482 l 1,30,-1
 132 482 l 1,31,-1
 132 538 l 1,28,-1
265 538 m 1,32,-1
 321 538 l 1,33,-1
 321 482 l 1,34,-1
 265 482 l 1,35,-1
 265 538 l 1,32,-1
0 405 m 1,36,-1
 56 405 l 1,37,-1
 56 349 l 1,38,-1
 0 349 l 1,39,-1
 0 405 l 1,36,-1
66 405 m 1,40,-1
 122 405 l 1,41,-1
 122 349 l 1,42,-1
 66 349 l 1,43,-1
 66 405 l 1,40,-1
132 405 m 1,44,-1
 188 405 l 1,45,-1
 188 349 l 1,46,-1
 132 349 l 1,47,-1
 132 405 l 1,44,-1
198 405 m 1,48,-1
 254 405 l 1,49,-1
 254 349 l 1,50,-1
 198 349 l 1,51,-1
 198 405 l 1,48,-1
265 405 m 1,52,-1
 321 405 l 1,53,-1
 321 349 l 1,54,-1
 265 349 l 1,55,-1
 265 405 l 1,52,-1
331 405 m 1,56,-1
 387 405 l 1,57,-1
 387 349 l 1,58,-1
 331 349 l 1,59,-1
 331 405 l 1,56,-1
397 405 m 1,60,-1
 453 405 l 1,61,-1
 453 349 l 1,62,-1
 397 349 l 1,63,-1
 397 405 l 1,60,-1
0 339 m 1,64,-1
 56 339 l 1,65,-1
 56 283 l 1,66,-1
 0 283 l 1,67,-1
 0 339 l 1,64,-1
66 339 m 1,68,-1
 122 339 l 1,69,-1
 122 283 l 1,70,-1
 66 283 l 1,71,-1
 66 339 l 1,68,-1
331 339 m 1,72,-1
 387 339 l 1,73,-1
 387 283 l 1,74,-1
 331 283 l 1,75,-1
 331 339 l 1,72,-1
397 339 m 1,76,-1
 453 339 l 1,77,-1
 453 283 l 1,78,-1
 397 283 l 1,79,-1
 397 339 l 1,76,-1
0 273 m 1,80,-1
 56 273 l 1,81,-1
 56 217 l 1,82,-1
 0 217 l 1,83,-1
 0 273 l 1,80,-1
66 273 m 1,84,-1
 122 273 l 1,85,-1
 122 217 l 1,86,-1
 66 217 l 1,87,-1
 66 273 l 1,84,-1
331 273 m 1,88,-1
 387 273 l 1,89,-1
 387 217 l 1,90,-1
 331 217 l 1,91,-1
 331 273 l 1,88,-1
397 273 m 1,92,-1
 453 273 l 1,93,-1
 453 217 l 1,94,-1
 397 217 l 1,95,-1
 397 273 l 1,92,-1
66 538 m 1,96,-1
 122 538 l 1,97,-1
 122 482 l 1,98,-1
 66 482 l 1,99,-1
 66 538 l 1,96,-1
331 538 m 1,100,-1
 387 538 l 1,101,-1
 387 482 l 1,102,-1
 331 482 l 1,103,-1
 331 538 l 1,100,-1
330 736 m 5,104,-1
 386 736 l 5,105,-1
 386 680 l 5,106,-1
 330 680 l 5,107,-1
 330 736 l 5,104,-1
0 472 m 1,108,-1
 56 472 l 1,109,-1
 56 416 l 1,110,-1
 0 416 l 1,111,-1
 0 472 l 1,108,-1
66 472 m 1,112,-1
 122 472 l 1,113,-1
 122 416 l 1,114,-1
 66 416 l 1,115,-1
 66 472 l 1,112,-1
331 472 m 1,116,-1
 387 472 l 1,117,-1
 387 416 l 1,118,-1
 331 416 l 1,119,-1
 331 472 l 1,116,-1
397 472 m 1,120,-1
 453 472 l 1,121,-1
 453 416 l 1,122,-1
 397 416 l 1,123,-1
 397 472 l 1,120,-1
EndSplineSet
EndChar

